G04 EAGLE Gerber RS-274X export*
G75*
%MOMM*%
%FSLAX34Y34*%
%LPD*%
%INBottom Copper*%
%IPPOS*%
%AMOC8*
5,1,8,0,0,1.08239X$1,22.5*%
G01*
%ADD10C,1.524000*%
%ADD11P,1.649562X8X22.500000*%
%ADD12C,0.711200*%
%ADD13R,2.095500X2.095500*%
%ADD14C,0.406400*%
%ADD15C,0.635000*%
%ADD16C,0.203200*%
%ADD17C,1.016000*%
%ADD18C,0.660400*%

G36*
X243517Y3184D02*
X243517Y3184D01*
X243575Y3182D01*
X243657Y3204D01*
X243741Y3216D01*
X243794Y3239D01*
X243850Y3254D01*
X243923Y3297D01*
X244000Y3332D01*
X244045Y3370D01*
X244095Y3399D01*
X244153Y3461D01*
X244217Y3515D01*
X244249Y3564D01*
X244289Y3607D01*
X244328Y3682D01*
X244375Y3752D01*
X244392Y3808D01*
X244419Y3860D01*
X244430Y3928D01*
X244460Y4023D01*
X244463Y4123D01*
X244474Y4191D01*
X244474Y103852D01*
X244470Y103881D01*
X244473Y103910D01*
X244450Y104021D01*
X244434Y104133D01*
X244422Y104160D01*
X244417Y104189D01*
X244365Y104289D01*
X244318Y104393D01*
X244299Y104415D01*
X244286Y104441D01*
X244208Y104523D01*
X244135Y104610D01*
X244110Y104626D01*
X244090Y104647D01*
X243992Y104704D01*
X243898Y104767D01*
X243870Y104776D01*
X243845Y104791D01*
X243735Y104819D01*
X243627Y104853D01*
X243597Y104854D01*
X243569Y104861D01*
X243456Y104857D01*
X243343Y104860D01*
X243314Y104853D01*
X243285Y104852D01*
X243177Y104817D01*
X243068Y104789D01*
X243042Y104774D01*
X243014Y104765D01*
X242951Y104719D01*
X242823Y104643D01*
X242780Y104598D01*
X242741Y104570D01*
X226422Y88250D01*
X226421Y88250D01*
X224785Y86613D01*
X163268Y86613D01*
X163181Y86601D01*
X163094Y86598D01*
X163041Y86581D01*
X162986Y86573D01*
X162906Y86538D01*
X162823Y86511D01*
X162784Y86483D01*
X162727Y86457D01*
X162614Y86361D01*
X162550Y86316D01*
X157046Y80812D01*
X156993Y80742D01*
X156933Y80678D01*
X156908Y80629D01*
X156875Y80584D01*
X156844Y80503D01*
X156804Y80425D01*
X156796Y80377D01*
X156773Y80319D01*
X156761Y80171D01*
X156748Y80094D01*
X156748Y60996D01*
X156004Y60252D01*
X133996Y60252D01*
X133252Y60996D01*
X133252Y83004D01*
X133996Y83748D01*
X153094Y83748D01*
X153180Y83760D01*
X153268Y83763D01*
X153320Y83780D01*
X153375Y83788D01*
X153455Y83824D01*
X153538Y83851D01*
X153578Y83879D01*
X153635Y83904D01*
X153748Y84000D01*
X153812Y84046D01*
X159191Y89425D01*
X159243Y89495D01*
X159303Y89559D01*
X159329Y89608D01*
X159362Y89652D01*
X159393Y89734D01*
X159433Y89812D01*
X159439Y89849D01*
X159455Y89870D01*
X159465Y89897D01*
X159481Y89922D01*
X159515Y90029D01*
X159556Y90135D01*
X159558Y90165D01*
X159567Y90193D01*
X159570Y90306D01*
X159579Y90419D01*
X159574Y90447D01*
X159574Y90477D01*
X159546Y90586D01*
X159524Y90697D01*
X159510Y90724D01*
X159503Y90752D01*
X159445Y90849D01*
X159393Y90950D01*
X159372Y90971D01*
X159357Y90996D01*
X159275Y91074D01*
X159197Y91156D01*
X159172Y91171D01*
X159150Y91191D01*
X159049Y91242D01*
X158952Y91300D01*
X158923Y91307D01*
X158897Y91320D01*
X158820Y91333D01*
X158676Y91370D01*
X158613Y91368D01*
X158566Y91376D01*
X133130Y91376D01*
X133044Y91364D01*
X132956Y91361D01*
X132904Y91344D01*
X132849Y91336D01*
X132769Y91300D01*
X132686Y91273D01*
X132646Y91245D01*
X132589Y91220D01*
X132476Y91124D01*
X132412Y91078D01*
X129584Y88250D01*
X129532Y88180D01*
X129472Y88116D01*
X129446Y88067D01*
X129413Y88023D01*
X129382Y87941D01*
X129342Y87863D01*
X129334Y87816D01*
X129312Y87757D01*
X129300Y87610D01*
X129287Y87532D01*
X129287Y36368D01*
X129299Y36281D01*
X129302Y36194D01*
X129319Y36141D01*
X129327Y36086D01*
X129362Y36006D01*
X129389Y35923D01*
X129417Y35884D01*
X129443Y35827D01*
X129539Y35714D01*
X129584Y35650D01*
X136188Y29046D01*
X136258Y28993D01*
X136322Y28933D01*
X136371Y28908D01*
X136416Y28875D01*
X136497Y28844D01*
X136575Y28804D01*
X136623Y28796D01*
X136681Y28773D01*
X136829Y28761D01*
X136906Y28748D01*
X156004Y28748D01*
X156748Y28004D01*
X156748Y5996D01*
X156004Y5252D01*
X133996Y5252D01*
X133252Y5996D01*
X133252Y25094D01*
X133240Y25180D01*
X133237Y25268D01*
X133220Y25320D01*
X133212Y25375D01*
X133176Y25455D01*
X133149Y25538D01*
X133121Y25578D01*
X133096Y25635D01*
X133000Y25748D01*
X132954Y25812D01*
X126575Y32191D01*
X126505Y32243D01*
X126441Y32303D01*
X126392Y32329D01*
X126348Y32362D01*
X126266Y32393D01*
X126188Y32433D01*
X126141Y32441D01*
X126082Y32463D01*
X126078Y32463D01*
X124605Y33936D01*
X124559Y33971D01*
X124518Y34013D01*
X124446Y34056D01*
X124378Y34107D01*
X124324Y34127D01*
X124273Y34157D01*
X124192Y34178D01*
X124113Y34208D01*
X124054Y34213D01*
X123998Y34227D01*
X123913Y34224D01*
X123829Y34231D01*
X123772Y34220D01*
X123713Y34218D01*
X123633Y34192D01*
X123551Y34175D01*
X123499Y34149D01*
X123443Y34131D01*
X123387Y34091D01*
X123298Y34045D01*
X123226Y33976D01*
X123170Y33936D01*
X115046Y25812D01*
X114993Y25742D01*
X114933Y25678D01*
X114908Y25629D01*
X114875Y25584D01*
X114844Y25503D01*
X114804Y25425D01*
X114796Y25377D01*
X114773Y25319D01*
X114761Y25171D01*
X114748Y25094D01*
X114748Y5996D01*
X114004Y5252D01*
X91996Y5252D01*
X91252Y5996D01*
X91252Y28004D01*
X91996Y28748D01*
X111094Y28748D01*
X111180Y28760D01*
X111268Y28763D01*
X111320Y28780D01*
X111375Y28788D01*
X111455Y28824D01*
X111538Y28851D01*
X111578Y28879D01*
X111635Y28904D01*
X111748Y29000D01*
X111812Y29046D01*
X119653Y36887D01*
X119706Y36957D01*
X119766Y37021D01*
X119791Y37070D01*
X119824Y37115D01*
X119855Y37196D01*
X119895Y37274D01*
X119903Y37322D01*
X119926Y37380D01*
X119938Y37528D01*
X119951Y37605D01*
X119951Y91435D01*
X129228Y100712D01*
X219295Y100712D01*
X219381Y100724D01*
X219469Y100727D01*
X219521Y100744D01*
X219576Y100752D01*
X219656Y100787D01*
X219739Y100814D01*
X219779Y100842D01*
X219836Y100868D01*
X219949Y100964D01*
X220013Y101009D01*
X230778Y111775D01*
X230831Y111845D01*
X230891Y111909D01*
X230916Y111958D01*
X230949Y112002D01*
X230980Y112084D01*
X231020Y112162D01*
X231028Y112209D01*
X231051Y112268D01*
X231063Y112415D01*
X231076Y112493D01*
X231076Y189132D01*
X231064Y189219D01*
X231061Y189306D01*
X231044Y189359D01*
X231036Y189414D01*
X231000Y189494D01*
X230973Y189577D01*
X230945Y189616D01*
X230920Y189673D01*
X230824Y189786D01*
X230778Y189850D01*
X183188Y237441D01*
X183141Y237476D01*
X183101Y237519D01*
X183028Y237561D01*
X182960Y237612D01*
X182906Y237633D01*
X182855Y237662D01*
X182774Y237683D01*
X182695Y237713D01*
X182636Y237718D01*
X182580Y237732D01*
X182496Y237730D01*
X182411Y237737D01*
X182354Y237725D01*
X182296Y237723D01*
X182215Y237697D01*
X182133Y237681D01*
X182081Y237654D01*
X182025Y237636D01*
X181969Y237596D01*
X181880Y237550D01*
X181808Y237481D01*
X181752Y237441D01*
X179895Y235584D01*
X172530Y235584D01*
X167322Y240792D01*
X167322Y248158D01*
X172530Y253366D01*
X176686Y253366D01*
X176773Y253378D01*
X176860Y253381D01*
X176913Y253398D01*
X176968Y253406D01*
X177048Y253441D01*
X177131Y253468D01*
X177170Y253496D01*
X177227Y253522D01*
X177340Y253618D01*
X177404Y253663D01*
X186328Y262587D01*
X186381Y262657D01*
X186441Y262721D01*
X186466Y262770D01*
X186499Y262815D01*
X186530Y262896D01*
X186570Y262974D01*
X186578Y263022D01*
X186601Y263080D01*
X186613Y263228D01*
X186626Y263305D01*
X186626Y265264D01*
X186622Y265293D01*
X186624Y265322D01*
X186602Y265433D01*
X186586Y265545D01*
X186574Y265572D01*
X186568Y265601D01*
X186516Y265701D01*
X186470Y265805D01*
X186451Y265827D01*
X186437Y265853D01*
X186359Y265935D01*
X186286Y266022D01*
X186262Y266038D01*
X186241Y266059D01*
X186144Y266117D01*
X186049Y266179D01*
X186021Y266188D01*
X185996Y266203D01*
X185887Y266231D01*
X185778Y266265D01*
X185749Y266266D01*
X185721Y266273D01*
X185608Y266270D01*
X185494Y266272D01*
X185466Y266265D01*
X185436Y266264D01*
X185329Y266229D01*
X185219Y266201D01*
X185194Y266186D01*
X185166Y266177D01*
X185102Y266131D01*
X184975Y266055D01*
X184932Y266010D01*
X184893Y265982D01*
X179895Y260984D01*
X172530Y260984D01*
X167322Y266192D01*
X167322Y273558D01*
X172530Y278766D01*
X179895Y278766D01*
X184893Y273768D01*
X184916Y273751D01*
X184935Y273728D01*
X185029Y273665D01*
X185120Y273597D01*
X185147Y273587D01*
X185172Y273571D01*
X185280Y273536D01*
X185385Y273496D01*
X185415Y273494D01*
X185443Y273485D01*
X185556Y273482D01*
X185669Y273473D01*
X185697Y273478D01*
X185727Y273478D01*
X185836Y273506D01*
X185948Y273528D01*
X185974Y273542D01*
X186002Y273549D01*
X186099Y273607D01*
X186200Y273659D01*
X186221Y273680D01*
X186246Y273695D01*
X186324Y273777D01*
X186406Y273855D01*
X186421Y273881D01*
X186441Y273902D01*
X186492Y274003D01*
X186550Y274100D01*
X186557Y274129D01*
X186570Y274155D01*
X186583Y274232D01*
X186620Y274376D01*
X186618Y274438D01*
X186626Y274486D01*
X186626Y282795D01*
X186614Y282881D01*
X186611Y282969D01*
X186594Y283021D01*
X186586Y283076D01*
X186550Y283156D01*
X186523Y283239D01*
X186495Y283279D01*
X186470Y283336D01*
X186374Y283449D01*
X186328Y283513D01*
X181278Y288563D01*
X181208Y288616D01*
X181144Y288676D01*
X181095Y288701D01*
X181050Y288734D01*
X180969Y288765D01*
X180891Y288805D01*
X180843Y288813D01*
X180785Y288836D01*
X180637Y288848D01*
X180560Y288861D01*
X177388Y288861D01*
X174561Y291688D01*
X174561Y295687D01*
X177388Y298514D01*
X181387Y298514D01*
X184214Y295687D01*
X184214Y292515D01*
X184222Y292458D01*
X184221Y292406D01*
X184228Y292378D01*
X184229Y292341D01*
X184246Y292289D01*
X184254Y292234D01*
X184282Y292171D01*
X184293Y292131D01*
X184303Y292113D01*
X184317Y292071D01*
X184345Y292031D01*
X184370Y291974D01*
X184422Y291914D01*
X184438Y291886D01*
X184469Y291857D01*
X184512Y291797D01*
X191199Y285110D01*
X191199Y274486D01*
X191203Y274457D01*
X191201Y274428D01*
X191223Y274317D01*
X191239Y274205D01*
X191251Y274178D01*
X191257Y274149D01*
X191309Y274049D01*
X191355Y273945D01*
X191374Y273923D01*
X191388Y273897D01*
X191466Y273815D01*
X191539Y273728D01*
X191563Y273712D01*
X191584Y273691D01*
X191681Y273633D01*
X191776Y273571D01*
X191804Y273562D01*
X191829Y273547D01*
X191938Y273519D01*
X192047Y273485D01*
X192076Y273484D01*
X192104Y273477D01*
X192217Y273480D01*
X192331Y273478D01*
X192359Y273485D01*
X192389Y273486D01*
X192496Y273521D01*
X192606Y273549D01*
X192631Y273564D01*
X192659Y273573D01*
X192723Y273619D01*
X192850Y273695D01*
X192893Y273740D01*
X192932Y273768D01*
X197930Y278766D01*
X205295Y278766D01*
X208705Y275356D01*
X208729Y275338D01*
X208748Y275316D01*
X208842Y275253D01*
X208932Y275185D01*
X208960Y275174D01*
X208984Y275158D01*
X209092Y275124D01*
X209198Y275084D01*
X209227Y275081D01*
X209255Y275072D01*
X209369Y275069D01*
X209481Y275060D01*
X209510Y275066D01*
X209539Y275065D01*
X209649Y275094D01*
X209760Y275116D01*
X209786Y275129D01*
X209814Y275137D01*
X209912Y275195D01*
X210012Y275247D01*
X210034Y275267D01*
X210059Y275282D01*
X210136Y275365D01*
X210218Y275443D01*
X210233Y275468D01*
X210253Y275489D01*
X210305Y275590D01*
X210362Y275688D01*
X210369Y275716D01*
X210383Y275743D01*
X210396Y275820D01*
X210432Y275964D01*
X210430Y276026D01*
X210438Y276074D01*
X210438Y278032D01*
X210426Y278119D01*
X210423Y278206D01*
X210406Y278259D01*
X210398Y278314D01*
X210363Y278394D01*
X210336Y278477D01*
X210308Y278516D01*
X210282Y278573D01*
X210186Y278686D01*
X210141Y278750D01*
X186040Y302851D01*
X185970Y302903D01*
X185906Y302963D01*
X185857Y302989D01*
X185813Y303022D01*
X185731Y303053D01*
X185653Y303093D01*
X185606Y303101D01*
X185547Y303123D01*
X185400Y303135D01*
X185322Y303148D01*
X182151Y303148D01*
X179323Y305976D01*
X179323Y309974D01*
X182151Y312802D01*
X186149Y312802D01*
X188977Y309974D01*
X188977Y306803D01*
X188989Y306716D01*
X188992Y306629D01*
X189009Y306576D01*
X189017Y306521D01*
X189052Y306441D01*
X189079Y306358D01*
X189107Y306319D01*
X189133Y306262D01*
X189229Y306149D01*
X189274Y306085D01*
X215012Y280347D01*
X215012Y239493D01*
X215024Y239406D01*
X215027Y239319D01*
X215044Y239266D01*
X215052Y239211D01*
X215087Y239131D01*
X215114Y239048D01*
X215142Y239009D01*
X215168Y238952D01*
X215264Y238839D01*
X215309Y238775D01*
X218772Y235312D01*
X218842Y235259D01*
X218906Y235199D01*
X218955Y235174D01*
X219000Y235141D01*
X219081Y235110D01*
X219159Y235070D01*
X219207Y235062D01*
X219265Y235039D01*
X219413Y235027D01*
X219490Y235014D01*
X222662Y235014D01*
X225489Y232187D01*
X225489Y228188D01*
X222662Y225361D01*
X218663Y225361D01*
X215836Y228188D01*
X215836Y231360D01*
X215824Y231446D01*
X215821Y231534D01*
X215804Y231586D01*
X215796Y231641D01*
X215760Y231721D01*
X215733Y231804D01*
X215705Y231844D01*
X215680Y231901D01*
X215584Y232014D01*
X215538Y232078D01*
X210438Y237178D01*
X210438Y238276D01*
X210434Y238305D01*
X210437Y238335D01*
X210414Y238446D01*
X210398Y238558D01*
X210386Y238585D01*
X210381Y238613D01*
X210329Y238714D01*
X210282Y238817D01*
X210263Y238840D01*
X210250Y238866D01*
X210172Y238948D01*
X210099Y239034D01*
X210074Y239051D01*
X210054Y239072D01*
X209956Y239129D01*
X209862Y239192D01*
X209834Y239201D01*
X209809Y239216D01*
X209699Y239243D01*
X209591Y239278D01*
X209561Y239278D01*
X209533Y239286D01*
X209420Y239282D01*
X209307Y239285D01*
X209278Y239278D01*
X209249Y239277D01*
X209141Y239242D01*
X209032Y239213D01*
X209006Y239198D01*
X208978Y239189D01*
X208915Y239144D01*
X208787Y239068D01*
X208744Y239022D01*
X208705Y238994D01*
X205472Y235761D01*
X205437Y235714D01*
X205394Y235674D01*
X205351Y235601D01*
X205301Y235533D01*
X205280Y235479D01*
X205250Y235428D01*
X205229Y235347D01*
X205199Y235268D01*
X205195Y235209D01*
X205180Y235153D01*
X205183Y235069D01*
X205176Y234985D01*
X205187Y234927D01*
X205189Y234869D01*
X205215Y234789D01*
X205232Y234706D01*
X205259Y234654D01*
X205277Y234598D01*
X205317Y234542D01*
X205363Y234453D01*
X205432Y234381D01*
X205472Y234325D01*
X242741Y197055D01*
X242765Y197038D01*
X242784Y197015D01*
X242878Y196952D01*
X242968Y196884D01*
X242996Y196874D01*
X243020Y196858D01*
X243128Y196823D01*
X243234Y196783D01*
X243263Y196781D01*
X243291Y196772D01*
X243405Y196769D01*
X243517Y196760D01*
X243546Y196765D01*
X243575Y196765D01*
X243685Y196793D01*
X243796Y196815D01*
X243822Y196829D01*
X243850Y196836D01*
X243948Y196894D01*
X244048Y196946D01*
X244070Y196967D01*
X244095Y196982D01*
X244172Y197064D01*
X244254Y197142D01*
X244269Y197168D01*
X244289Y197189D01*
X244341Y197290D01*
X244398Y197388D01*
X244405Y197416D01*
X244419Y197442D01*
X244432Y197519D01*
X244468Y197663D01*
X244466Y197726D01*
X244474Y197773D01*
X244474Y510755D01*
X244470Y510784D01*
X244473Y510813D01*
X244450Y510924D01*
X244434Y511036D01*
X244422Y511063D01*
X244417Y511092D01*
X244364Y511193D01*
X244318Y511296D01*
X244299Y511318D01*
X244286Y511344D01*
X244208Y511426D01*
X244135Y511513D01*
X244110Y511529D01*
X244090Y511550D01*
X243992Y511607D01*
X243898Y511670D01*
X243870Y511679D01*
X243845Y511694D01*
X243735Y511722D01*
X243627Y511756D01*
X243597Y511757D01*
X243569Y511764D01*
X243456Y511761D01*
X243343Y511763D01*
X243314Y511756D01*
X243285Y511755D01*
X243177Y511720D01*
X243068Y511692D01*
X243042Y511677D01*
X243014Y511668D01*
X242950Y511622D01*
X242823Y511546D01*
X242780Y511501D01*
X242741Y511473D01*
X241256Y509988D01*
X237988Y508634D01*
X219212Y508634D01*
X215944Y509988D01*
X213443Y512489D01*
X212089Y515757D01*
X212089Y519293D01*
X213443Y522561D01*
X215944Y525062D01*
X219212Y526416D01*
X237988Y526416D01*
X241256Y525062D01*
X242741Y523577D01*
X242765Y523560D01*
X242784Y523537D01*
X242878Y523474D01*
X242968Y523406D01*
X242996Y523396D01*
X243020Y523380D01*
X243128Y523345D01*
X243234Y523305D01*
X243263Y523303D01*
X243291Y523294D01*
X243405Y523291D01*
X243517Y523282D01*
X243546Y523287D01*
X243575Y523287D01*
X243685Y523315D01*
X243796Y523337D01*
X243822Y523351D01*
X243850Y523358D01*
X243948Y523416D01*
X244048Y523468D01*
X244070Y523489D01*
X244095Y523504D01*
X244172Y523586D01*
X244254Y523664D01*
X244269Y523690D01*
X244289Y523711D01*
X244341Y523812D01*
X244398Y523910D01*
X244405Y523938D01*
X244419Y523964D01*
X244432Y524041D01*
X244468Y524185D01*
X244466Y524248D01*
X244474Y524295D01*
X244474Y536155D01*
X244470Y536184D01*
X244473Y536213D01*
X244450Y536324D01*
X244434Y536436D01*
X244422Y536463D01*
X244417Y536492D01*
X244364Y536593D01*
X244318Y536696D01*
X244299Y536718D01*
X244286Y536744D01*
X244208Y536826D01*
X244135Y536913D01*
X244110Y536929D01*
X244090Y536950D01*
X243992Y537007D01*
X243898Y537070D01*
X243870Y537079D01*
X243845Y537094D01*
X243735Y537122D01*
X243627Y537156D01*
X243597Y537157D01*
X243569Y537164D01*
X243456Y537161D01*
X243343Y537163D01*
X243314Y537156D01*
X243285Y537155D01*
X243177Y537120D01*
X243068Y537092D01*
X243042Y537077D01*
X243014Y537068D01*
X242950Y537022D01*
X242823Y536946D01*
X242780Y536901D01*
X242741Y536873D01*
X241256Y535388D01*
X237988Y534034D01*
X219212Y534034D01*
X215944Y535388D01*
X215055Y536277D01*
X214985Y536329D01*
X214921Y536389D01*
X214872Y536415D01*
X214828Y536448D01*
X214746Y536479D01*
X214668Y536519D01*
X214620Y536527D01*
X214562Y536549D01*
X214414Y536561D01*
X214337Y536574D01*
X184474Y536574D01*
X182140Y537541D01*
X172416Y547265D01*
X171449Y549599D01*
X171449Y552126D01*
X172416Y554460D01*
X174203Y556246D01*
X176537Y557213D01*
X179063Y557213D01*
X181397Y556246D01*
X188071Y549573D01*
X188140Y549521D01*
X188204Y549461D01*
X188254Y549435D01*
X188298Y549402D01*
X188380Y549371D01*
X188458Y549331D01*
X188505Y549323D01*
X188564Y549301D01*
X188711Y549289D01*
X188789Y549276D01*
X214337Y549276D01*
X214423Y549288D01*
X214511Y549291D01*
X214564Y549308D01*
X214618Y549316D01*
X214698Y549351D01*
X214781Y549378D01*
X214821Y549406D01*
X214878Y549432D01*
X214991Y549528D01*
X215055Y549573D01*
X215944Y550462D01*
X219212Y551816D01*
X237988Y551816D01*
X241256Y550462D01*
X242741Y548977D01*
X242765Y548960D01*
X242784Y548937D01*
X242878Y548874D01*
X242968Y548806D01*
X242996Y548796D01*
X243020Y548780D01*
X243128Y548745D01*
X243234Y548705D01*
X243263Y548703D01*
X243291Y548694D01*
X243405Y548691D01*
X243517Y548682D01*
X243546Y548687D01*
X243575Y548687D01*
X243685Y548715D01*
X243796Y548737D01*
X243822Y548751D01*
X243850Y548758D01*
X243948Y548816D01*
X244048Y548868D01*
X244070Y548889D01*
X244095Y548904D01*
X244172Y548986D01*
X244254Y549064D01*
X244269Y549090D01*
X244289Y549111D01*
X244341Y549212D01*
X244398Y549310D01*
X244405Y549338D01*
X244419Y549364D01*
X244432Y549441D01*
X244468Y549585D01*
X244466Y549648D01*
X244474Y549695D01*
X244474Y561555D01*
X244470Y561584D01*
X244473Y561613D01*
X244450Y561724D01*
X244434Y561836D01*
X244422Y561863D01*
X244417Y561892D01*
X244364Y561993D01*
X244318Y562096D01*
X244299Y562118D01*
X244286Y562144D01*
X244208Y562226D01*
X244135Y562313D01*
X244110Y562329D01*
X244090Y562350D01*
X243992Y562407D01*
X243898Y562470D01*
X243870Y562479D01*
X243845Y562494D01*
X243735Y562522D01*
X243627Y562556D01*
X243597Y562557D01*
X243569Y562564D01*
X243456Y562561D01*
X243343Y562563D01*
X243314Y562556D01*
X243285Y562555D01*
X243177Y562520D01*
X243068Y562492D01*
X243042Y562477D01*
X243014Y562468D01*
X242950Y562422D01*
X242823Y562346D01*
X242780Y562301D01*
X242741Y562273D01*
X241256Y560788D01*
X237988Y559434D01*
X219212Y559434D01*
X215944Y560788D01*
X213443Y563289D01*
X212089Y566557D01*
X212089Y568198D01*
X212081Y568256D01*
X212083Y568314D01*
X212061Y568396D01*
X212049Y568480D01*
X212026Y568533D01*
X212011Y568589D01*
X211968Y568662D01*
X211933Y568739D01*
X211895Y568784D01*
X211866Y568834D01*
X211804Y568892D01*
X211750Y568956D01*
X211701Y568988D01*
X211658Y569028D01*
X211583Y569067D01*
X211513Y569114D01*
X211457Y569131D01*
X211405Y569158D01*
X211337Y569169D01*
X211242Y569199D01*
X211142Y569202D01*
X211074Y569213D01*
X137893Y569213D01*
X137806Y569201D01*
X137719Y569198D01*
X137666Y569181D01*
X137611Y569173D01*
X137531Y569138D01*
X137448Y569111D01*
X137409Y569083D01*
X137352Y569057D01*
X137239Y568961D01*
X137175Y568916D01*
X116835Y548576D01*
X74393Y548576D01*
X74306Y548564D01*
X74219Y548561D01*
X74166Y548544D01*
X74111Y548536D01*
X74031Y548500D01*
X73948Y548473D01*
X73909Y548445D01*
X73852Y548420D01*
X73739Y548324D01*
X73675Y548278D01*
X73387Y547990D01*
X73334Y547920D01*
X73274Y547856D01*
X73249Y547807D01*
X73216Y547763D01*
X73185Y547681D01*
X73145Y547603D01*
X73137Y547556D01*
X73114Y547497D01*
X73102Y547350D01*
X73089Y547272D01*
X73089Y544101D01*
X70262Y541273D01*
X66263Y541273D01*
X63436Y544101D01*
X63436Y546886D01*
X63432Y546915D01*
X63434Y546945D01*
X63412Y547056D01*
X63396Y547168D01*
X63384Y547195D01*
X63378Y547223D01*
X63326Y547324D01*
X63280Y547427D01*
X63261Y547450D01*
X63247Y547476D01*
X63169Y547558D01*
X63096Y547644D01*
X63072Y547661D01*
X63051Y547682D01*
X62954Y547739D01*
X62859Y547802D01*
X62831Y547811D01*
X62806Y547826D01*
X62697Y547853D01*
X62588Y547888D01*
X62559Y547888D01*
X62531Y547896D01*
X62418Y547892D01*
X62304Y547895D01*
X62276Y547888D01*
X62246Y547887D01*
X62139Y547852D01*
X62029Y547823D01*
X62004Y547808D01*
X61976Y547799D01*
X61912Y547754D01*
X61785Y547678D01*
X61742Y547632D01*
X61703Y547604D01*
X56813Y542715D01*
X56761Y542645D01*
X56701Y542581D01*
X56675Y542532D01*
X56642Y542487D01*
X56611Y542406D01*
X56571Y542328D01*
X56563Y542280D01*
X56541Y542222D01*
X56529Y542074D01*
X56516Y541997D01*
X56516Y528457D01*
X55162Y525189D01*
X52518Y522545D01*
X45867Y515894D01*
X45832Y515847D01*
X45789Y515807D01*
X45747Y515734D01*
X45696Y515666D01*
X45675Y515612D01*
X45646Y515561D01*
X45625Y515480D01*
X45595Y515401D01*
X45590Y515342D01*
X45576Y515286D01*
X45578Y515201D01*
X45571Y515117D01*
X45583Y515060D01*
X45585Y515002D01*
X45611Y514921D01*
X45627Y514839D01*
X45654Y514787D01*
X45672Y514731D01*
X45712Y514675D01*
X45758Y514586D01*
X45827Y514514D01*
X45867Y514458D01*
X49169Y511156D01*
X49239Y511103D01*
X49303Y511043D01*
X49352Y511018D01*
X49396Y510985D01*
X49478Y510954D01*
X49556Y510914D01*
X49604Y510906D01*
X49662Y510883D01*
X49810Y510871D01*
X49887Y510858D01*
X79749Y510858D01*
X79836Y510870D01*
X79923Y510873D01*
X79976Y510890D01*
X80031Y510898D01*
X80110Y510934D01*
X80194Y510961D01*
X80233Y510989D01*
X80290Y511014D01*
X80403Y511110D01*
X80467Y511156D01*
X80551Y511239D01*
X84549Y511239D01*
X87377Y508412D01*
X87377Y504413D01*
X84549Y501586D01*
X80551Y501586D01*
X80467Y501669D01*
X80397Y501722D01*
X80333Y501782D01*
X80284Y501807D01*
X80240Y501840D01*
X80158Y501871D01*
X80080Y501911D01*
X80033Y501919D01*
X79974Y501942D01*
X79827Y501954D01*
X79749Y501967D01*
X45783Y501967D01*
X42882Y504868D01*
X38886Y508864D01*
X38885Y508865D01*
X38884Y508866D01*
X38770Y508951D01*
X38659Y509035D01*
X38657Y509036D01*
X38656Y509037D01*
X38524Y509086D01*
X38393Y509136D01*
X38392Y509136D01*
X38390Y509137D01*
X38251Y509148D01*
X38110Y509160D01*
X38108Y509160D01*
X38107Y509160D01*
X38092Y509156D01*
X37831Y509104D01*
X37804Y509090D01*
X37780Y509084D01*
X36693Y508634D01*
X21018Y508634D01*
X20961Y508626D01*
X20902Y508628D01*
X20821Y508606D01*
X20737Y508594D01*
X20684Y508571D01*
X20627Y508556D01*
X20555Y508513D01*
X20478Y508478D01*
X20433Y508440D01*
X20383Y508411D01*
X20325Y508349D01*
X20261Y508295D01*
X20228Y508246D01*
X20188Y508203D01*
X20150Y508128D01*
X20103Y508058D01*
X20085Y508002D01*
X20059Y507950D01*
X20047Y507882D01*
X20017Y507787D01*
X20015Y507687D01*
X20003Y507619D01*
X20003Y197778D01*
X20015Y197692D01*
X20018Y197604D01*
X20035Y197552D01*
X20043Y197497D01*
X20079Y197417D01*
X20106Y197334D01*
X20134Y197294D01*
X20159Y197237D01*
X20255Y197124D01*
X20301Y197060D01*
X28785Y188576D01*
X28855Y188523D01*
X28919Y188463D01*
X28968Y188438D01*
X29013Y188405D01*
X29094Y188374D01*
X29172Y188334D01*
X29220Y188326D01*
X29278Y188303D01*
X29426Y188291D01*
X29503Y188278D01*
X68443Y188278D01*
X71711Y186925D01*
X74212Y184424D01*
X75566Y181156D01*
X75566Y177619D01*
X74212Y174351D01*
X71711Y171850D01*
X68443Y170497D01*
X23632Y170497D01*
X20364Y171850D01*
X6219Y185995D01*
X4909Y187305D01*
X4885Y187323D01*
X4866Y187345D01*
X4772Y187408D01*
X4682Y187476D01*
X4654Y187487D01*
X4630Y187503D01*
X4522Y187537D01*
X4416Y187577D01*
X4387Y187580D01*
X4359Y187589D01*
X4245Y187592D01*
X4133Y187601D01*
X4104Y187595D01*
X4075Y187596D01*
X3965Y187567D01*
X3854Y187545D01*
X3828Y187531D01*
X3800Y187524D01*
X3702Y187466D01*
X3602Y187414D01*
X3580Y187394D01*
X3555Y187379D01*
X3478Y187296D01*
X3396Y187218D01*
X3381Y187193D01*
X3361Y187172D01*
X3309Y187071D01*
X3252Y186973D01*
X3245Y186945D01*
X3231Y186918D01*
X3218Y186841D01*
X3182Y186697D01*
X3184Y186635D01*
X3176Y186587D01*
X3176Y4191D01*
X3184Y4133D01*
X3182Y4075D01*
X3204Y3993D01*
X3216Y3909D01*
X3239Y3856D01*
X3254Y3800D01*
X3297Y3727D01*
X3332Y3650D01*
X3370Y3605D01*
X3399Y3555D01*
X3461Y3497D01*
X3515Y3433D01*
X3564Y3401D01*
X3607Y3361D01*
X3682Y3322D01*
X3752Y3275D01*
X3808Y3258D01*
X3860Y3231D01*
X3928Y3220D01*
X4023Y3190D01*
X4123Y3187D01*
X4191Y3176D01*
X243459Y3176D01*
X243517Y3184D01*
G37*
%LPC*%
G36*
X70930Y235584D02*
X70930Y235584D01*
X65722Y240792D01*
X65722Y248158D01*
X70930Y253366D01*
X78295Y253366D01*
X78564Y253097D01*
X78611Y253061D01*
X78651Y253019D01*
X78724Y252976D01*
X78791Y252926D01*
X78846Y252905D01*
X78897Y252875D01*
X78978Y252855D01*
X79057Y252824D01*
X79116Y252820D01*
X79172Y252805D01*
X79256Y252808D01*
X79340Y252801D01*
X79398Y252812D01*
X79456Y252814D01*
X79537Y252840D01*
X79619Y252857D01*
X79671Y252884D01*
X79727Y252902D01*
X79783Y252942D01*
X79872Y252988D01*
X79944Y253057D01*
X80000Y253097D01*
X83141Y256237D01*
X83193Y256307D01*
X83253Y256371D01*
X83279Y256420D01*
X83312Y256465D01*
X83343Y256546D01*
X83383Y256624D01*
X83391Y256672D01*
X83413Y256730D01*
X83419Y256804D01*
X83424Y256820D01*
X83426Y256881D01*
X83438Y256955D01*
X83438Y263676D01*
X83434Y263705D01*
X83437Y263735D01*
X83414Y263846D01*
X83398Y263958D01*
X83386Y263985D01*
X83381Y264013D01*
X83329Y264114D01*
X83282Y264217D01*
X83263Y264240D01*
X83250Y264266D01*
X83172Y264348D01*
X83099Y264434D01*
X83074Y264451D01*
X83054Y264472D01*
X82956Y264529D01*
X82862Y264592D01*
X82834Y264601D01*
X82809Y264616D01*
X82699Y264643D01*
X82591Y264678D01*
X82561Y264678D01*
X82533Y264686D01*
X82420Y264682D01*
X82307Y264685D01*
X82278Y264678D01*
X82249Y264677D01*
X82141Y264642D01*
X82032Y264613D01*
X82006Y264598D01*
X81978Y264589D01*
X81915Y264544D01*
X81787Y264468D01*
X81744Y264422D01*
X81705Y264394D01*
X78295Y260984D01*
X70930Y260984D01*
X65722Y266192D01*
X65722Y273558D01*
X71012Y278848D01*
X71065Y278918D01*
X71125Y278982D01*
X71150Y279031D01*
X71183Y279075D01*
X71214Y279157D01*
X71254Y279235D01*
X71262Y279283D01*
X71285Y279341D01*
X71297Y279489D01*
X71310Y279566D01*
X71310Y362769D01*
X71298Y362855D01*
X71295Y362943D01*
X71278Y362995D01*
X71270Y363050D01*
X71234Y363130D01*
X71207Y363213D01*
X71179Y363252D01*
X71154Y363310D01*
X71058Y363423D01*
X71012Y363487D01*
X69786Y364713D01*
X69786Y368712D01*
X71012Y369938D01*
X71065Y370008D01*
X71125Y370072D01*
X71150Y370122D01*
X71183Y370166D01*
X71214Y370247D01*
X71254Y370325D01*
X71262Y370373D01*
X71285Y370431D01*
X71291Y370515D01*
X71296Y370528D01*
X71297Y370581D01*
X71310Y370656D01*
X71310Y434774D01*
X71298Y434861D01*
X71295Y434948D01*
X71278Y435001D01*
X71270Y435055D01*
X71234Y435135D01*
X71207Y435218D01*
X71179Y435258D01*
X71154Y435315D01*
X71058Y435428D01*
X71012Y435492D01*
X68716Y437788D01*
X68646Y437841D01*
X68582Y437901D01*
X68533Y437926D01*
X68489Y437959D01*
X68407Y437990D01*
X68329Y438030D01*
X68281Y438038D01*
X68223Y438061D01*
X68075Y438073D01*
X67998Y438086D01*
X66263Y438086D01*
X63436Y440913D01*
X63436Y444912D01*
X66263Y447739D01*
X68771Y447739D01*
X68828Y447747D01*
X68887Y447746D01*
X68968Y447767D01*
X69052Y447779D01*
X69105Y447803D01*
X69162Y447818D01*
X69234Y447861D01*
X69311Y447895D01*
X69356Y447933D01*
X69406Y447963D01*
X69464Y448025D01*
X69528Y448079D01*
X69561Y448128D01*
X69601Y448170D01*
X69639Y448245D01*
X69686Y448316D01*
X69704Y448371D01*
X69730Y448423D01*
X69742Y448491D01*
X69772Y448587D01*
X69774Y448686D01*
X69786Y448754D01*
X69786Y451262D01*
X72613Y454089D01*
X76612Y454089D01*
X78854Y451847D01*
X78924Y451794D01*
X78988Y451734D01*
X79038Y451709D01*
X79082Y451676D01*
X79163Y451645D01*
X79241Y451605D01*
X79289Y451597D01*
X79347Y451574D01*
X79495Y451562D01*
X79572Y451549D01*
X83686Y451549D01*
X83715Y451553D01*
X83745Y451551D01*
X83856Y451573D01*
X83968Y451589D01*
X83994Y451601D01*
X84023Y451607D01*
X84124Y451659D01*
X84227Y451705D01*
X84250Y451724D01*
X84276Y451738D01*
X84358Y451816D01*
X84444Y451889D01*
X84460Y451913D01*
X84482Y451934D01*
X84539Y452031D01*
X84602Y452126D01*
X84611Y452154D01*
X84625Y452179D01*
X84653Y452288D01*
X84688Y452397D01*
X84688Y452426D01*
X84695Y452454D01*
X84692Y452567D01*
X84695Y452681D01*
X84687Y452709D01*
X84686Y452739D01*
X84652Y452846D01*
X84623Y452956D01*
X84608Y452981D01*
X84599Y453009D01*
X84553Y453073D01*
X84478Y453200D01*
X84432Y453243D01*
X84404Y453282D01*
X82486Y455201D01*
X82486Y459199D01*
X85313Y462027D01*
X88485Y462027D01*
X88571Y462039D01*
X88659Y462042D01*
X88711Y462059D01*
X88766Y462067D01*
X88846Y462102D01*
X88929Y462129D01*
X88969Y462157D01*
X89026Y462183D01*
X89139Y462279D01*
X89203Y462324D01*
X99016Y472137D01*
X99068Y472207D01*
X99128Y472271D01*
X99154Y472320D01*
X99187Y472365D01*
X99218Y472446D01*
X99258Y472524D01*
X99266Y472572D01*
X99288Y472630D01*
X99300Y472778D01*
X99313Y472855D01*
X99313Y478785D01*
X135528Y515000D01*
X135581Y515070D01*
X135641Y515134D01*
X135666Y515183D01*
X135699Y515227D01*
X135730Y515309D01*
X135770Y515387D01*
X135778Y515434D01*
X135801Y515493D01*
X135813Y515640D01*
X135826Y515718D01*
X135826Y520503D01*
X135814Y520589D01*
X135811Y520677D01*
X135794Y520729D01*
X135786Y520784D01*
X135750Y520864D01*
X135723Y520947D01*
X135695Y520986D01*
X135670Y521044D01*
X135574Y521157D01*
X135528Y521221D01*
X133286Y523463D01*
X133286Y527462D01*
X136113Y530289D01*
X140112Y530289D01*
X142157Y528244D01*
X142204Y528209D01*
X142244Y528166D01*
X142317Y528124D01*
X142384Y528073D01*
X142439Y528052D01*
X142489Y528023D01*
X142571Y528002D01*
X142650Y527972D01*
X142708Y527967D01*
X142765Y527953D01*
X142849Y527955D01*
X142933Y527948D01*
X142991Y527960D01*
X143049Y527962D01*
X143129Y527988D01*
X143212Y528004D01*
X143264Y528031D01*
X143320Y528049D01*
X143376Y528089D01*
X143464Y528135D01*
X143537Y528204D01*
X143593Y528244D01*
X145638Y530289D01*
X149637Y530289D01*
X152464Y527462D01*
X152464Y523463D01*
X150222Y521221D01*
X150169Y521151D01*
X150109Y521087D01*
X150084Y521037D01*
X150051Y520993D01*
X150020Y520912D01*
X149980Y520834D01*
X149972Y520786D01*
X149949Y520728D01*
X149937Y520580D01*
X149924Y520503D01*
X149924Y500703D01*
X135885Y486663D01*
X126780Y486663D01*
X126694Y486651D01*
X126606Y486648D01*
X126554Y486631D01*
X126499Y486623D01*
X126419Y486588D01*
X126336Y486561D01*
X126296Y486533D01*
X126239Y486507D01*
X126126Y486411D01*
X126062Y486366D01*
X113709Y474013D01*
X113657Y473943D01*
X113597Y473879D01*
X113571Y473830D01*
X113538Y473785D01*
X113507Y473704D01*
X113467Y473626D01*
X113459Y473578D01*
X113437Y473520D01*
X113428Y473412D01*
X113426Y473404D01*
X113425Y473375D01*
X113425Y473372D01*
X113412Y473295D01*
X113412Y465335D01*
X113424Y465248D01*
X113427Y465161D01*
X113444Y465108D01*
X113452Y465053D01*
X113487Y464974D01*
X113514Y464890D01*
X113542Y464851D01*
X113568Y464794D01*
X113664Y464681D01*
X113709Y464617D01*
X114364Y463962D01*
X114364Y459963D01*
X111537Y457136D01*
X107538Y457136D01*
X104711Y459963D01*
X104711Y462563D01*
X104707Y462592D01*
X104709Y462622D01*
X104687Y462733D01*
X104671Y462845D01*
X104659Y462872D01*
X104653Y462900D01*
X104601Y463001D01*
X104555Y463104D01*
X104536Y463127D01*
X104522Y463153D01*
X104444Y463235D01*
X104371Y463321D01*
X104347Y463337D01*
X104326Y463359D01*
X104229Y463416D01*
X104134Y463479D01*
X104106Y463488D01*
X104081Y463502D01*
X103972Y463530D01*
X103863Y463565D01*
X103834Y463565D01*
X103806Y463573D01*
X103693Y463569D01*
X103579Y463572D01*
X103551Y463564D01*
X103521Y463564D01*
X103414Y463529D01*
X103304Y463500D01*
X103279Y463485D01*
X103251Y463476D01*
X103187Y463431D01*
X103060Y463355D01*
X103017Y463309D01*
X102978Y463281D01*
X99422Y459725D01*
X99409Y459708D01*
X99397Y459698D01*
X99367Y459653D01*
X99309Y459591D01*
X99284Y459542D01*
X99251Y459498D01*
X99220Y459416D01*
X99180Y459338D01*
X99172Y459291D01*
X99149Y459232D01*
X99137Y459085D01*
X99124Y459007D01*
X99124Y454222D01*
X99136Y454136D01*
X99139Y454048D01*
X99156Y453996D01*
X99164Y453941D01*
X99200Y453861D01*
X99227Y453778D01*
X99255Y453739D01*
X99280Y453681D01*
X99376Y453568D01*
X99422Y453504D01*
X101664Y451262D01*
X101664Y447263D01*
X99174Y444773D01*
X99157Y444750D01*
X99134Y444731D01*
X99072Y444637D01*
X99003Y444546D01*
X98993Y444519D01*
X98977Y444494D01*
X98943Y444386D01*
X98902Y444281D01*
X98900Y444251D01*
X98891Y444223D01*
X98888Y444110D01*
X98879Y443997D01*
X98884Y443969D01*
X98884Y443939D01*
X98912Y443830D01*
X98935Y443718D01*
X98948Y443692D01*
X98956Y443664D01*
X99013Y443567D01*
X99066Y443466D01*
X99086Y443445D01*
X99101Y443420D01*
X99183Y443342D01*
X99261Y443260D01*
X99287Y443245D01*
X99308Y443225D01*
X99409Y443174D01*
X99507Y443116D01*
X99535Y443109D01*
X99561Y443096D01*
X99639Y443083D01*
X99782Y443046D01*
X99845Y443048D01*
X99892Y443040D01*
X115119Y443040D01*
X115205Y443052D01*
X115293Y443055D01*
X115345Y443072D01*
X115400Y443080D01*
X115480Y443116D01*
X115563Y443143D01*
X115602Y443171D01*
X115660Y443196D01*
X115773Y443292D01*
X115837Y443338D01*
X117063Y444564D01*
X121062Y444564D01*
X121393Y444233D01*
X121416Y444216D01*
X121435Y444193D01*
X121529Y444131D01*
X121620Y444062D01*
X121647Y444052D01*
X121672Y444036D01*
X121780Y444002D01*
X121885Y443961D01*
X121915Y443959D01*
X121943Y443950D01*
X122056Y443947D01*
X122169Y443938D01*
X122197Y443943D01*
X122227Y443943D01*
X122336Y443971D01*
X122448Y443994D01*
X122474Y444007D01*
X122502Y444015D01*
X122599Y444072D01*
X122700Y444125D01*
X122721Y444145D01*
X122746Y444160D01*
X122824Y444242D01*
X122906Y444320D01*
X122921Y444346D01*
X122941Y444367D01*
X122992Y444468D01*
X123050Y444566D01*
X123057Y444594D01*
X123070Y444620D01*
X123083Y444698D01*
X123120Y444841D01*
X123118Y444904D01*
X123126Y444951D01*
X123126Y464940D01*
X123114Y465027D01*
X123111Y465114D01*
X123094Y465167D01*
X123086Y465222D01*
X123050Y465301D01*
X123023Y465385D01*
X122995Y465424D01*
X122970Y465481D01*
X122874Y465594D01*
X122828Y465658D01*
X120586Y467901D01*
X120586Y471899D01*
X123413Y474727D01*
X127412Y474727D01*
X130239Y471899D01*
X130239Y467901D01*
X127997Y465658D01*
X127944Y465588D01*
X127884Y465524D01*
X127859Y465475D01*
X127826Y465431D01*
X127795Y465349D01*
X127755Y465271D01*
X127747Y465224D01*
X127724Y465165D01*
X127712Y465018D01*
X127699Y464940D01*
X127699Y435615D01*
X123185Y431101D01*
X90939Y431101D01*
X90910Y431097D01*
X90880Y431099D01*
X90769Y431077D01*
X90657Y431061D01*
X90631Y431049D01*
X90602Y431043D01*
X90501Y430991D01*
X90398Y430945D01*
X90375Y430926D01*
X90349Y430912D01*
X90267Y430834D01*
X90181Y430761D01*
X90165Y430737D01*
X90143Y430716D01*
X90086Y430619D01*
X90023Y430524D01*
X90014Y430496D01*
X90000Y430471D01*
X89972Y430362D01*
X89937Y430253D01*
X89937Y430224D01*
X89930Y430196D01*
X89933Y430083D01*
X89930Y429969D01*
X89938Y429941D01*
X89939Y429911D01*
X89973Y429804D01*
X90002Y429694D01*
X90017Y429669D01*
X90026Y429641D01*
X90072Y429577D01*
X90147Y429450D01*
X90193Y429407D01*
X90221Y429368D01*
X92139Y427449D01*
X92139Y423451D01*
X89312Y420623D01*
X89027Y420623D01*
X88969Y420615D01*
X88911Y420617D01*
X88829Y420595D01*
X88745Y420583D01*
X88692Y420560D01*
X88636Y420545D01*
X88563Y420502D01*
X88486Y420467D01*
X88441Y420429D01*
X88391Y420400D01*
X88333Y420338D01*
X88269Y420284D01*
X88237Y420235D01*
X88197Y420192D01*
X88158Y420117D01*
X88111Y420047D01*
X88094Y419991D01*
X88067Y419939D01*
X88056Y419871D01*
X88026Y419776D01*
X88023Y419676D01*
X88012Y419608D01*
X88012Y364905D01*
X88024Y364819D01*
X88027Y364731D01*
X88044Y364679D01*
X88052Y364624D01*
X88087Y364544D01*
X88114Y364461D01*
X88142Y364421D01*
X88168Y364364D01*
X88264Y364251D01*
X88309Y364187D01*
X95900Y356597D01*
X95970Y356544D01*
X96034Y356484D01*
X96083Y356459D01*
X96127Y356426D01*
X96209Y356395D01*
X96287Y356355D01*
X96334Y356347D01*
X96393Y356324D01*
X96540Y356312D01*
X96618Y356299D01*
X108897Y356299D01*
X126112Y339085D01*
X126112Y323630D01*
X126124Y323544D01*
X126127Y323456D01*
X126144Y323404D01*
X126152Y323349D01*
X126187Y323269D01*
X126214Y323186D01*
X126242Y323146D01*
X126268Y323089D01*
X126364Y322976D01*
X126409Y322912D01*
X131460Y317862D01*
X131530Y317809D01*
X131594Y317749D01*
X131643Y317724D01*
X131687Y317691D01*
X131769Y317660D01*
X131847Y317620D01*
X131894Y317612D01*
X131953Y317589D01*
X132100Y317577D01*
X132178Y317564D01*
X135349Y317564D01*
X138177Y314737D01*
X138177Y310738D01*
X135349Y307911D01*
X132178Y307911D01*
X132091Y307899D01*
X132004Y307896D01*
X131951Y307879D01*
X131896Y307871D01*
X131816Y307835D01*
X131733Y307808D01*
X131694Y307780D01*
X131637Y307755D01*
X131524Y307659D01*
X131460Y307613D01*
X126409Y302563D01*
X126357Y302493D01*
X126297Y302429D01*
X126271Y302380D01*
X126238Y302335D01*
X126207Y302254D01*
X126167Y302176D01*
X126159Y302128D01*
X126137Y302070D01*
X126125Y301922D01*
X126112Y301845D01*
X126112Y284803D01*
X117678Y276369D01*
X117625Y276299D01*
X117565Y276235D01*
X117540Y276186D01*
X117507Y276142D01*
X117476Y276060D01*
X117436Y275982D01*
X117428Y275935D01*
X117406Y275876D01*
X117393Y275728D01*
X117380Y275651D01*
X117380Y256161D01*
X117393Y256075D01*
X117396Y255987D01*
X117413Y255935D01*
X117420Y255880D01*
X117456Y255800D01*
X117483Y255717D01*
X117511Y255678D01*
X117537Y255621D01*
X117632Y255507D01*
X117678Y255444D01*
X120025Y253097D01*
X120072Y253061D01*
X120112Y253019D01*
X120185Y252976D01*
X120252Y252926D01*
X120307Y252905D01*
X120357Y252875D01*
X120439Y252854D01*
X120518Y252824D01*
X120576Y252820D01*
X120633Y252805D01*
X120717Y252808D01*
X120801Y252801D01*
X120858Y252812D01*
X120917Y252814D01*
X120997Y252840D01*
X121080Y252857D01*
X121132Y252884D01*
X121187Y252902D01*
X121244Y252942D01*
X121332Y252988D01*
X121405Y253057D01*
X121461Y253097D01*
X121730Y253366D01*
X129095Y253366D01*
X134303Y248158D01*
X134303Y240792D01*
X129095Y235584D01*
X121730Y235584D01*
X116522Y240792D01*
X116522Y248158D01*
X116791Y248427D01*
X116826Y248474D01*
X116869Y248514D01*
X116911Y248587D01*
X116962Y248654D01*
X116983Y248709D01*
X117012Y248759D01*
X117033Y248841D01*
X117063Y248920D01*
X117068Y248978D01*
X117082Y249035D01*
X117080Y249119D01*
X117087Y249203D01*
X117075Y249260D01*
X117073Y249319D01*
X117047Y249399D01*
X117031Y249482D01*
X117004Y249534D01*
X116986Y249589D01*
X116946Y249646D01*
X116900Y249734D01*
X116831Y249806D01*
X116791Y249863D01*
X114444Y252210D01*
X113430Y253223D01*
X113384Y253258D01*
X113343Y253301D01*
X113271Y253343D01*
X113203Y253394D01*
X113149Y253415D01*
X113098Y253444D01*
X113017Y253465D01*
X112938Y253495D01*
X112879Y253500D01*
X112823Y253515D01*
X112738Y253512D01*
X112654Y253519D01*
X112597Y253507D01*
X112538Y253506D01*
X112458Y253480D01*
X112376Y253463D01*
X112324Y253436D01*
X112268Y253418D01*
X112212Y253378D01*
X112123Y253332D01*
X112051Y253263D01*
X111995Y253223D01*
X108634Y249863D01*
X108599Y249816D01*
X108556Y249776D01*
X108514Y249703D01*
X108463Y249635D01*
X108442Y249581D01*
X108413Y249530D01*
X108392Y249449D01*
X108362Y249370D01*
X108357Y249311D01*
X108343Y249255D01*
X108345Y249170D01*
X108338Y249086D01*
X108350Y249029D01*
X108352Y248971D01*
X108378Y248890D01*
X108394Y248808D01*
X108421Y248756D01*
X108439Y248700D01*
X108479Y248644D01*
X108525Y248555D01*
X108594Y248483D01*
X108634Y248427D01*
X108903Y248158D01*
X108903Y240792D01*
X103695Y235584D01*
X96330Y235584D01*
X91122Y240792D01*
X91122Y248158D01*
X96330Y253366D01*
X103695Y253366D01*
X103964Y253097D01*
X104011Y253061D01*
X104051Y253019D01*
X104124Y252976D01*
X104191Y252926D01*
X104246Y252905D01*
X104297Y252875D01*
X104378Y252855D01*
X104457Y252824D01*
X104516Y252820D01*
X104572Y252805D01*
X104656Y252808D01*
X104740Y252801D01*
X104798Y252812D01*
X104856Y252814D01*
X104937Y252840D01*
X105019Y252857D01*
X105071Y252884D01*
X105127Y252902D01*
X105183Y252942D01*
X105272Y252988D01*
X105344Y253057D01*
X105400Y253097D01*
X107747Y255444D01*
X107800Y255513D01*
X107860Y255577D01*
X107885Y255627D01*
X107918Y255671D01*
X107949Y255752D01*
X107989Y255830D01*
X107997Y255878D01*
X108019Y255936D01*
X108032Y256084D01*
X108045Y256161D01*
X108045Y262883D01*
X108040Y262912D01*
X108043Y262941D01*
X108021Y263052D01*
X108005Y263164D01*
X107993Y263191D01*
X107987Y263220D01*
X107935Y263320D01*
X107888Y263424D01*
X107869Y263446D01*
X107856Y263472D01*
X107778Y263554D01*
X107705Y263641D01*
X107680Y263657D01*
X107660Y263678D01*
X107563Y263735D01*
X107468Y263798D01*
X107440Y263807D01*
X107415Y263822D01*
X107305Y263850D01*
X107197Y263884D01*
X107168Y263885D01*
X107139Y263892D01*
X107026Y263888D01*
X106913Y263891D01*
X106885Y263884D01*
X106855Y263883D01*
X106747Y263848D01*
X106638Y263819D01*
X106613Y263804D01*
X106585Y263795D01*
X106521Y263750D01*
X106393Y263674D01*
X106351Y263629D01*
X106311Y263601D01*
X103695Y260984D01*
X96330Y260984D01*
X91122Y266192D01*
X91122Y273558D01*
X96330Y278766D01*
X100486Y278766D01*
X100573Y278778D01*
X100660Y278781D01*
X100713Y278798D01*
X100768Y278806D01*
X100848Y278841D01*
X100931Y278868D01*
X100970Y278896D01*
X101027Y278922D01*
X101140Y279018D01*
X101204Y279063D01*
X110128Y287987D01*
X110181Y288057D01*
X110241Y288121D01*
X110266Y288170D01*
X110299Y288215D01*
X110330Y288296D01*
X110370Y288374D01*
X110378Y288422D01*
X110401Y288480D01*
X110413Y288628D01*
X110426Y288705D01*
X110426Y328415D01*
X110414Y328502D01*
X110411Y328589D01*
X110394Y328642D01*
X110386Y328697D01*
X110350Y328776D01*
X110323Y328860D01*
X110295Y328899D01*
X110270Y328956D01*
X110174Y329069D01*
X110128Y329133D01*
X107886Y331376D01*
X107886Y335374D01*
X110713Y338202D01*
X111726Y338202D01*
X111755Y338206D01*
X111784Y338203D01*
X111895Y338226D01*
X112007Y338242D01*
X112034Y338254D01*
X112063Y338259D01*
X112163Y338311D01*
X112267Y338358D01*
X112289Y338377D01*
X112315Y338390D01*
X112397Y338468D01*
X112484Y338541D01*
X112500Y338566D01*
X112521Y338586D01*
X112578Y338684D01*
X112641Y338778D01*
X112650Y338806D01*
X112665Y338831D01*
X112693Y338941D01*
X112727Y339049D01*
X112728Y339079D01*
X112735Y339107D01*
X112731Y339220D01*
X112734Y339333D01*
X112727Y339362D01*
X112726Y339391D01*
X112691Y339499D01*
X112663Y339608D01*
X112648Y339634D01*
X112639Y339662D01*
X112593Y339725D01*
X112517Y339853D01*
X112511Y339858D01*
X112511Y339859D01*
X112471Y339897D01*
X112444Y339935D01*
X107300Y345078D01*
X107230Y345131D01*
X107166Y345191D01*
X107117Y345216D01*
X107073Y345249D01*
X106991Y345280D01*
X106913Y345320D01*
X106866Y345328D01*
X106807Y345351D01*
X106660Y345363D01*
X106582Y345376D01*
X104972Y345376D01*
X104886Y345364D01*
X104798Y345361D01*
X104746Y345344D01*
X104691Y345336D01*
X104611Y345300D01*
X104528Y345273D01*
X104489Y345245D01*
X104431Y345220D01*
X104318Y345124D01*
X104254Y345078D01*
X102012Y342836D01*
X98013Y342836D01*
X95186Y345663D01*
X95186Y349662D01*
X95517Y349993D01*
X95534Y350016D01*
X95557Y350035D01*
X95619Y350129D01*
X95688Y350220D01*
X95698Y350247D01*
X95714Y350272D01*
X95748Y350380D01*
X95789Y350485D01*
X95791Y350515D01*
X95800Y350543D01*
X95803Y350656D01*
X95812Y350769D01*
X95807Y350797D01*
X95807Y350827D01*
X95779Y350936D01*
X95756Y351048D01*
X95743Y351074D01*
X95735Y351102D01*
X95678Y351199D01*
X95625Y351300D01*
X95605Y351321D01*
X95590Y351346D01*
X95508Y351424D01*
X95430Y351506D01*
X95404Y351521D01*
X95383Y351541D01*
X95282Y351592D01*
X95184Y351650D01*
X95156Y351657D01*
X95130Y351670D01*
X95052Y351683D01*
X94909Y351720D01*
X94846Y351718D01*
X94799Y351726D01*
X94303Y351726D01*
X85075Y360953D01*
X84982Y361046D01*
X84959Y361064D01*
X84940Y361086D01*
X84846Y361149D01*
X84755Y361217D01*
X84728Y361228D01*
X84703Y361244D01*
X84596Y361278D01*
X84490Y361318D01*
X84460Y361321D01*
X84432Y361330D01*
X84319Y361333D01*
X84206Y361342D01*
X84178Y361336D01*
X84148Y361337D01*
X84039Y361308D01*
X83928Y361286D01*
X83901Y361272D01*
X83873Y361265D01*
X83776Y361207D01*
X83675Y361155D01*
X83654Y361135D01*
X83629Y361120D01*
X83551Y361037D01*
X83469Y360959D01*
X83454Y360934D01*
X83434Y360913D01*
X83383Y360812D01*
X83325Y360714D01*
X83318Y360686D01*
X83305Y360659D01*
X83292Y360582D01*
X83255Y360439D01*
X83257Y360376D01*
X83249Y360328D01*
X83249Y350618D01*
X83261Y350531D01*
X83264Y350444D01*
X83281Y350391D01*
X83289Y350336D01*
X83325Y350256D01*
X83352Y350173D01*
X83380Y350134D01*
X83405Y350077D01*
X83501Y349964D01*
X83547Y349900D01*
X98122Y335324D01*
X98192Y335272D01*
X98256Y335212D01*
X98305Y335186D01*
X98350Y335153D01*
X98431Y335122D01*
X98509Y335082D01*
X98557Y335074D01*
X98615Y335052D01*
X98763Y335040D01*
X98840Y335027D01*
X102012Y335027D01*
X104839Y332199D01*
X104839Y328201D01*
X102012Y325373D01*
X98013Y325373D01*
X95186Y328201D01*
X95186Y331372D01*
X95174Y331459D01*
X95171Y331546D01*
X95154Y331599D01*
X95146Y331654D01*
X95110Y331734D01*
X95083Y331817D01*
X95055Y331856D01*
X95030Y331913D01*
X94934Y332026D01*
X94888Y332090D01*
X79648Y347330D01*
X79625Y347348D01*
X79606Y347370D01*
X79512Y347433D01*
X79421Y347501D01*
X79394Y347512D01*
X79369Y347528D01*
X79261Y347562D01*
X79156Y347602D01*
X79126Y347605D01*
X79098Y347614D01*
X78985Y347617D01*
X78872Y347626D01*
X78844Y347620D01*
X78814Y347621D01*
X78705Y347592D01*
X78593Y347570D01*
X78567Y347556D01*
X78539Y347549D01*
X78442Y347491D01*
X78341Y347439D01*
X78320Y347419D01*
X78295Y347404D01*
X78217Y347321D01*
X78135Y347243D01*
X78120Y347218D01*
X78100Y347197D01*
X78049Y347096D01*
X77991Y346998D01*
X77984Y346970D01*
X77971Y346943D01*
X77958Y346866D01*
X77921Y346722D01*
X77923Y346660D01*
X77915Y346612D01*
X77915Y279566D01*
X77927Y279480D01*
X77930Y279392D01*
X77947Y279339D01*
X77955Y279285D01*
X77991Y279205D01*
X78018Y279122D01*
X78046Y279082D01*
X78071Y279025D01*
X78167Y278912D01*
X78213Y278848D01*
X81705Y275356D01*
X81729Y275338D01*
X81748Y275316D01*
X81842Y275253D01*
X81932Y275185D01*
X81960Y275174D01*
X81984Y275158D01*
X82092Y275124D01*
X82198Y275084D01*
X82227Y275081D01*
X82255Y275072D01*
X82369Y275069D01*
X82481Y275060D01*
X82510Y275066D01*
X82539Y275065D01*
X82649Y275094D01*
X82760Y275116D01*
X82786Y275129D01*
X82814Y275137D01*
X82912Y275195D01*
X83012Y275247D01*
X83034Y275267D01*
X83059Y275282D01*
X83136Y275365D01*
X83218Y275443D01*
X83233Y275468D01*
X83253Y275489D01*
X83305Y275590D01*
X83362Y275688D01*
X83369Y275716D01*
X83383Y275743D01*
X83396Y275820D01*
X83432Y275964D01*
X83430Y276026D01*
X83438Y276074D01*
X83438Y293849D01*
X83426Y293936D01*
X83423Y294023D01*
X83406Y294076D01*
X83398Y294131D01*
X83363Y294211D01*
X83336Y294294D01*
X83308Y294333D01*
X83282Y294390D01*
X83186Y294504D01*
X83141Y294567D01*
X81152Y296556D01*
X81152Y300344D01*
X83831Y303023D01*
X87619Y303023D01*
X90298Y300344D01*
X90298Y296556D01*
X88309Y294567D01*
X88257Y294497D01*
X88197Y294434D01*
X88171Y294384D01*
X88138Y294340D01*
X88107Y294258D01*
X88067Y294180D01*
X88059Y294133D01*
X88037Y294074D01*
X88025Y293927D01*
X88012Y293849D01*
X88012Y254640D01*
X83234Y249863D01*
X83199Y249816D01*
X83156Y249776D01*
X83114Y249703D01*
X83063Y249635D01*
X83042Y249581D01*
X83013Y249530D01*
X82992Y249449D01*
X82962Y249370D01*
X82957Y249311D01*
X82943Y249255D01*
X82945Y249170D01*
X82938Y249086D01*
X82950Y249029D01*
X82952Y248971D01*
X82978Y248890D01*
X82994Y248808D01*
X83021Y248756D01*
X83039Y248700D01*
X83079Y248644D01*
X83125Y248555D01*
X83194Y248483D01*
X83234Y248427D01*
X83503Y248158D01*
X83503Y240792D01*
X78295Y235584D01*
X70930Y235584D01*
G37*
%LPD*%
%LPC*%
G36*
X216312Y21459D02*
X216312Y21459D01*
X209497Y24282D01*
X204282Y29497D01*
X201459Y36312D01*
X201459Y43688D01*
X204282Y50503D01*
X209497Y55718D01*
X216312Y58541D01*
X223688Y58541D01*
X230503Y55718D01*
X235718Y50503D01*
X238541Y43688D01*
X238541Y36312D01*
X235718Y29497D01*
X230503Y24282D01*
X223688Y21459D01*
X216312Y21459D01*
G37*
%LPD*%
%LPC*%
G36*
X26312Y21459D02*
X26312Y21459D01*
X19497Y24282D01*
X14282Y29497D01*
X11459Y36312D01*
X11459Y43688D01*
X14282Y50503D01*
X19497Y55718D01*
X26312Y58541D01*
X33688Y58541D01*
X40503Y55718D01*
X45718Y50503D01*
X48541Y43688D01*
X48541Y36312D01*
X45718Y29497D01*
X40503Y24282D01*
X33688Y21459D01*
X26312Y21459D01*
G37*
%LPD*%
%LPC*%
G36*
X145638Y342836D02*
X145638Y342836D01*
X142811Y345663D01*
X142811Y349662D01*
X144856Y351707D01*
X144873Y351729D01*
X144893Y351746D01*
X144909Y351771D01*
X144934Y351794D01*
X144976Y351867D01*
X145027Y351934D01*
X145039Y351966D01*
X145050Y351983D01*
X145058Y352006D01*
X145077Y352039D01*
X145098Y352121D01*
X145128Y352200D01*
X145131Y352239D01*
X145136Y352254D01*
X145137Y352273D01*
X145147Y352315D01*
X145145Y352399D01*
X145152Y352483D01*
X145143Y352526D01*
X145143Y352538D01*
X145140Y352552D01*
X145138Y352599D01*
X145112Y352679D01*
X145096Y352762D01*
X145074Y352804D01*
X145072Y352813D01*
X145066Y352822D01*
X145051Y352870D01*
X145011Y352926D01*
X144965Y353014D01*
X144931Y353050D01*
X144926Y353058D01*
X144903Y353080D01*
X144896Y353087D01*
X144856Y353143D01*
X142811Y355188D01*
X142811Y359187D01*
X145638Y362014D01*
X149637Y362014D01*
X151879Y359772D01*
X151949Y359719D01*
X152013Y359659D01*
X152063Y359634D01*
X152107Y359601D01*
X152188Y359570D01*
X152266Y359530D01*
X152314Y359522D01*
X152372Y359499D01*
X152520Y359487D01*
X152597Y359474D01*
X195065Y359474D01*
X195152Y359486D01*
X195239Y359489D01*
X195292Y359506D01*
X195347Y359514D01*
X195427Y359550D01*
X195510Y359577D01*
X195549Y359605D01*
X195606Y359630D01*
X195719Y359726D01*
X195783Y359772D01*
X198026Y362014D01*
X202024Y362014D01*
X204852Y359187D01*
X204852Y358591D01*
X204856Y358562D01*
X204853Y358533D01*
X204876Y358422D01*
X204892Y358310D01*
X204904Y358283D01*
X204909Y358254D01*
X204962Y358154D01*
X205008Y358050D01*
X205027Y358028D01*
X205040Y358002D01*
X205118Y357920D01*
X205191Y357833D01*
X205216Y357817D01*
X205236Y357796D01*
X205334Y357739D01*
X205428Y357676D01*
X205456Y357667D01*
X205481Y357652D01*
X205591Y357624D01*
X205699Y357590D01*
X205729Y357589D01*
X205757Y357582D01*
X205870Y357586D01*
X205983Y357583D01*
X206012Y357590D01*
X206041Y357591D01*
X206149Y357626D01*
X206258Y357655D01*
X206284Y357669D01*
X206312Y357679D01*
X206376Y357724D01*
X206503Y357800D01*
X206546Y357845D01*
X206585Y357873D01*
X207551Y358839D01*
X211549Y358839D01*
X214377Y356012D01*
X214377Y352013D01*
X211549Y349186D01*
X208378Y349186D01*
X208291Y349174D01*
X208204Y349171D01*
X208151Y349154D01*
X208096Y349146D01*
X208016Y349110D01*
X207933Y349083D01*
X207894Y349055D01*
X207837Y349030D01*
X207724Y348934D01*
X207660Y348888D01*
X207322Y348551D01*
X194315Y348551D01*
X193025Y349841D01*
X192955Y349893D01*
X192891Y349953D01*
X192842Y349979D01*
X192798Y350012D01*
X192716Y350043D01*
X192638Y350083D01*
X192591Y350091D01*
X192532Y350113D01*
X192385Y350125D01*
X192307Y350138D01*
X153768Y350138D01*
X153681Y350126D01*
X153594Y350123D01*
X153541Y350106D01*
X153486Y350098D01*
X153406Y350063D01*
X153323Y350036D01*
X153284Y350008D01*
X153227Y349982D01*
X153114Y349886D01*
X153050Y349841D01*
X152762Y349553D01*
X152709Y349483D01*
X152649Y349419D01*
X152624Y349370D01*
X152591Y349325D01*
X152560Y349244D01*
X152520Y349166D01*
X152512Y349118D01*
X152489Y349060D01*
X152477Y348912D01*
X152464Y348835D01*
X152464Y345663D01*
X149637Y342836D01*
X145638Y342836D01*
G37*
%LPD*%
%LPC*%
G36*
X142463Y134873D02*
X142463Y134873D01*
X139636Y137701D01*
X139636Y141699D01*
X142463Y144527D01*
X145635Y144527D01*
X145721Y144539D01*
X145809Y144542D01*
X145861Y144559D01*
X145916Y144567D01*
X145996Y144602D01*
X146079Y144629D01*
X146119Y144657D01*
X146176Y144683D01*
X146289Y144779D01*
X146353Y144824D01*
X148228Y146700D01*
X148281Y146770D01*
X148341Y146834D01*
X148366Y146883D01*
X148399Y146927D01*
X148430Y147009D01*
X148470Y147087D01*
X148478Y147134D01*
X148501Y147193D01*
X148513Y147340D01*
X148526Y147418D01*
X148526Y234569D01*
X148518Y234627D01*
X148519Y234685D01*
X148498Y234767D01*
X148486Y234851D01*
X148462Y234904D01*
X148447Y234960D01*
X148404Y235033D01*
X148370Y235110D01*
X148332Y235155D01*
X148302Y235205D01*
X148240Y235263D01*
X148186Y235327D01*
X148137Y235359D01*
X148095Y235399D01*
X148020Y235438D01*
X147949Y235485D01*
X147894Y235502D01*
X147842Y235529D01*
X147774Y235540D01*
X147678Y235570D01*
X147579Y235573D01*
X147511Y235584D01*
X147130Y235584D01*
X141922Y240792D01*
X141922Y248158D01*
X147130Y253366D01*
X154495Y253366D01*
X159703Y248158D01*
X159703Y240792D01*
X154495Y235584D01*
X154114Y235584D01*
X154057Y235576D01*
X153998Y235578D01*
X153917Y235556D01*
X153833Y235544D01*
X153780Y235521D01*
X153723Y235506D01*
X153651Y235463D01*
X153574Y235428D01*
X153529Y235390D01*
X153479Y235361D01*
X153421Y235299D01*
X153357Y235245D01*
X153324Y235196D01*
X153284Y235153D01*
X153246Y235078D01*
X153199Y235008D01*
X153181Y234952D01*
X153155Y234900D01*
X153143Y234832D01*
X153113Y234737D01*
X153111Y234637D01*
X153099Y234569D01*
X153099Y145103D01*
X149587Y141590D01*
X149534Y141520D01*
X149474Y141456D01*
X149449Y141407D01*
X149416Y141363D01*
X149385Y141281D01*
X149345Y141203D01*
X149337Y141156D01*
X149314Y141097D01*
X149302Y140950D01*
X149289Y140872D01*
X149289Y137701D01*
X146462Y134873D01*
X142463Y134873D01*
G37*
%LPD*%
%LPC*%
G36*
X175996Y60252D02*
X175996Y60252D01*
X175252Y60996D01*
X175252Y83004D01*
X175996Y83748D01*
X198004Y83748D01*
X198748Y83004D01*
X198748Y60996D01*
X198004Y60252D01*
X175996Y60252D01*
G37*
%LPD*%
%LPC*%
G36*
X91996Y60252D02*
X91996Y60252D01*
X91252Y60996D01*
X91252Y83004D01*
X91996Y83748D01*
X114004Y83748D01*
X114748Y83004D01*
X114748Y60996D01*
X114004Y60252D01*
X91996Y60252D01*
G37*
%LPD*%
%LPC*%
G36*
X49996Y60252D02*
X49996Y60252D01*
X49252Y60996D01*
X49252Y83004D01*
X49996Y83748D01*
X72004Y83748D01*
X72748Y83004D01*
X72748Y60996D01*
X72004Y60252D01*
X49996Y60252D01*
G37*
%LPD*%
%LPC*%
G36*
X175996Y5252D02*
X175996Y5252D01*
X175252Y5996D01*
X175252Y28004D01*
X175996Y28748D01*
X198004Y28748D01*
X198748Y28004D01*
X198748Y5996D01*
X198004Y5252D01*
X175996Y5252D01*
G37*
%LPD*%
%LPC*%
G36*
X147130Y260984D02*
X147130Y260984D01*
X141922Y266192D01*
X141922Y273558D01*
X147130Y278766D01*
X154495Y278766D01*
X159703Y273558D01*
X159703Y266192D01*
X154495Y260984D01*
X147130Y260984D01*
G37*
%LPD*%
%LPC*%
G36*
X148813Y395223D02*
X148813Y395223D01*
X146571Y397466D01*
X146501Y397518D01*
X146437Y397578D01*
X146387Y397604D01*
X146343Y397637D01*
X146262Y397668D01*
X146184Y397708D01*
X146136Y397716D01*
X146078Y397738D01*
X145930Y397750D01*
X145853Y397763D01*
X138753Y397763D01*
X135240Y401276D01*
X135170Y401328D01*
X135106Y401388D01*
X135057Y401414D01*
X135013Y401447D01*
X134931Y401478D01*
X134853Y401518D01*
X134806Y401526D01*
X134747Y401548D01*
X134600Y401560D01*
X134522Y401573D01*
X131351Y401573D01*
X128523Y404401D01*
X128523Y408399D01*
X131351Y411227D01*
X135349Y411227D01*
X138177Y408399D01*
X138177Y405228D01*
X138189Y405141D01*
X138192Y405054D01*
X138209Y405001D01*
X138217Y404946D01*
X138252Y404866D01*
X138279Y404783D01*
X138307Y404744D01*
X138333Y404687D01*
X138388Y404621D01*
X138413Y404579D01*
X138448Y404547D01*
X138474Y404510D01*
X140350Y402634D01*
X140420Y402582D01*
X140484Y402522D01*
X140533Y402496D01*
X140577Y402463D01*
X140659Y402432D01*
X140737Y402392D01*
X140784Y402384D01*
X140843Y402362D01*
X140990Y402350D01*
X141068Y402337D01*
X145853Y402337D01*
X145939Y402349D01*
X146027Y402352D01*
X146079Y402369D01*
X146134Y402377D01*
X146214Y402412D01*
X146297Y402439D01*
X146336Y402467D01*
X146394Y402493D01*
X146507Y402589D01*
X146571Y402634D01*
X148813Y404877D01*
X152812Y404877D01*
X155639Y402049D01*
X155639Y398051D01*
X152812Y395223D01*
X148813Y395223D01*
G37*
%LPD*%
D10*
X11430Y568325D02*
X26670Y568325D01*
X26670Y542925D02*
X11430Y542925D01*
X11430Y517525D02*
X26670Y517525D01*
X220980Y568325D02*
X236220Y568325D01*
X236220Y542925D02*
X220980Y542925D01*
X220980Y517525D02*
X236220Y517525D01*
X236220Y492125D02*
X220980Y492125D01*
D11*
X74613Y244475D03*
X74613Y269875D03*
X100013Y244475D03*
X100013Y269875D03*
X125413Y244475D03*
X125413Y269875D03*
X150813Y244475D03*
X150813Y269875D03*
X176213Y244475D03*
X176213Y269875D03*
X201613Y244475D03*
X201613Y269875D03*
D12*
X33338Y496888D03*
X93663Y481013D03*
X84138Y544513D03*
X174625Y430213D03*
X184150Y401638D03*
X198438Y417513D03*
X52388Y325438D03*
X58738Y309563D03*
X133350Y104775D03*
X133350Y111125D03*
X155575Y111125D03*
X155575Y104775D03*
X133350Y117475D03*
X46038Y209550D03*
X139700Y214313D03*
X46038Y203200D03*
X20638Y138113D03*
X20638Y146050D03*
X30163Y146050D03*
X104775Y527050D03*
X180975Y512763D03*
X33338Y341313D03*
X192088Y312738D03*
X204788Y312738D03*
X160338Y330200D03*
X160338Y346075D03*
X182563Y447675D03*
X182563Y469900D03*
X222250Y290513D03*
X36513Y306388D03*
X52388Y346075D03*
X31750Y374650D03*
X25400Y496888D03*
X33338Y488950D03*
X25400Y488950D03*
X23813Y420688D03*
X30163Y420688D03*
X204788Y209550D03*
X239713Y384175D03*
X220663Y250825D03*
X30163Y138113D03*
X155575Y117475D03*
D13*
X61000Y17000D03*
D12*
X187325Y531813D03*
X46038Y241300D03*
X42863Y366713D03*
X128588Y349250D03*
X128588Y342900D03*
X134938Y349250D03*
X134938Y342900D03*
X30163Y306388D03*
X106363Y146050D03*
X26988Y236538D03*
X26988Y230188D03*
X119063Y439738D03*
X68263Y442913D03*
D14*
X74613Y436563D01*
X77788Y439738D01*
X119063Y439738D01*
X74613Y436563D02*
X74613Y366713D01*
X74613Y269875D01*
D12*
X74613Y366713D03*
D13*
X187000Y72000D03*
D10*
X66675Y179388D02*
X25400Y179388D01*
X11113Y193675D01*
X11113Y517525D01*
X19050Y517525D01*
X34925Y517525D02*
X47625Y530225D01*
X47625Y546100D01*
X65088Y563563D01*
X111125Y563563D01*
D12*
X61913Y182563D03*
X68263Y182563D03*
X68263Y176213D03*
X61913Y176213D03*
X82550Y506413D03*
D15*
X36513Y517525D02*
X19050Y517525D01*
X36513Y517525D02*
X47625Y506413D01*
X82550Y506413D01*
D10*
X111125Y563563D02*
X124000Y576438D01*
X34925Y517525D02*
X19050Y517525D01*
D13*
X124000Y610000D03*
D10*
X124000Y576438D01*
D13*
X103000Y72000D03*
D12*
X87313Y457200D03*
D16*
X101600Y471488D01*
X101600Y477838D01*
X138113Y514350D01*
X138113Y525463D01*
D12*
X138113Y525463D03*
D13*
X166000Y610000D03*
D12*
X68263Y546100D03*
D16*
X115888Y550863D02*
X136525Y571500D01*
X115888Y550863D02*
X73025Y550863D01*
X68263Y546100D01*
X136525Y571500D02*
X196850Y571500D01*
X196850Y634150D01*
X196850Y571500D02*
X225425Y571500D01*
X228600Y568325D01*
D13*
X166000Y665000D03*
D16*
X196850Y634150D01*
D13*
X82000Y610000D03*
D16*
X58738Y576263D02*
X25400Y542925D01*
X19050Y542925D01*
X58738Y576263D02*
X58738Y641738D01*
D13*
X82000Y665000D03*
D16*
X58738Y641738D01*
D12*
X133350Y312738D03*
D16*
X107950Y354013D02*
X95250Y354013D01*
X85725Y363538D01*
D12*
X87313Y425450D03*
D16*
X85725Y423863D02*
X85725Y363538D01*
X85725Y423863D02*
X87313Y425450D01*
X107950Y354013D02*
X123825Y338138D01*
X123825Y322263D01*
X133350Y312738D01*
X115094Y254794D02*
X125413Y244475D01*
X115094Y254794D02*
X115094Y277019D01*
X123825Y285750D01*
X123825Y303213D01*
X133350Y312738D01*
D12*
X147638Y525463D03*
X109538Y461963D03*
D16*
X111125Y463550D01*
X111125Y474663D01*
X125413Y488950D01*
X134938Y488950D01*
X147638Y501650D01*
X147638Y525463D01*
D17*
X185738Y542925D02*
X228600Y542925D01*
X185738Y542925D02*
X177800Y550863D01*
D12*
X177800Y550863D03*
D13*
X124000Y665000D03*
D12*
X74613Y449263D03*
X96838Y449263D03*
D16*
X74613Y449263D01*
D12*
X133350Y500063D03*
D16*
X96838Y460375D02*
X96838Y449263D01*
X96838Y460375D02*
X106363Y469900D01*
X106363Y476250D01*
X130175Y500063D01*
X133350Y500063D01*
D12*
X133350Y406400D03*
X150813Y400050D03*
D16*
X139700Y400050D01*
X133350Y406400D01*
D12*
X112713Y333375D03*
D16*
X112713Y287338D01*
X100013Y274638D01*
X100013Y269875D01*
D18*
X85725Y298450D03*
D16*
X85725Y255588D01*
X74613Y244475D01*
D12*
X100013Y347663D03*
D16*
X107950Y347663D01*
X119063Y336550D01*
X119063Y287338D01*
X110331Y278606D01*
X110331Y254794D01*
X100013Y244475D01*
X80963Y428625D02*
X85725Y433388D01*
X122238Y433388D01*
X125413Y436563D01*
X125413Y469900D01*
D12*
X125413Y469900D03*
X100013Y330200D03*
D16*
X80963Y349250D02*
X80963Y428625D01*
X80963Y349250D02*
X100013Y330200D01*
D12*
X144463Y139700D03*
D16*
X150813Y146050D01*
X150813Y244475D01*
D13*
X61000Y72000D03*
D16*
X222250Y93663D02*
X238125Y109538D01*
X238125Y192088D01*
X190500Y239713D01*
X190500Y257175D01*
X201613Y268288D01*
X201613Y269875D01*
X222250Y93663D02*
X131763Y93663D01*
X127000Y88900D01*
X127000Y34775D01*
D13*
X145000Y17000D03*
D16*
X127225Y34775D02*
X127000Y34775D01*
X127225Y34775D02*
X145000Y17000D01*
X220663Y98425D02*
X233363Y111125D01*
X233363Y190500D01*
X179388Y244475D01*
X176213Y244475D01*
X220663Y98425D02*
X130175Y98425D01*
X122238Y90488D01*
X122238Y36238D01*
D12*
X179388Y293688D03*
D13*
X103000Y17000D03*
D16*
X122238Y36238D01*
X176213Y244475D02*
X176213Y249238D01*
X188913Y261938D01*
X188913Y284163D01*
X179388Y293688D01*
X242888Y193675D02*
X242888Y107950D01*
X242888Y193675D02*
X201613Y234950D01*
X201613Y244475D01*
X242888Y107950D02*
X223838Y88900D01*
X161775Y88900D01*
D13*
X145000Y72000D03*
D16*
X161775Y88775D02*
X161775Y88900D01*
X161775Y88775D02*
X145000Y72000D01*
D12*
X209550Y354013D03*
X147638Y347663D03*
D16*
X152400Y352425D01*
X193675Y352425D01*
X195263Y350838D01*
X206375Y350838D01*
X209550Y354013D01*
D12*
X200025Y357188D03*
X147638Y357188D03*
D16*
X200025Y357188D01*
D13*
X187000Y17000D03*
D12*
X184150Y307975D03*
D16*
X212725Y279400D01*
X212725Y238125D01*
X220663Y230188D01*
D12*
X220663Y230188D03*
M02*
