G04 EAGLE Gerber RS-274X export*
G75*
%MOMM*%
%FSLAX34Y34*%
%LPD*%
%INTop Copper*%
%IPPOS*%
%AMOC8*
5,1,8,0,0,1.08239X$1,22.5*%
G01*
%ADD10R,1.100000X1.000000*%
%ADD11R,1.000000X1.100000*%
%ADD12R,0.700000X1.000000*%
%ADD13R,1.270000X0.558800*%
%ADD14R,0.558800X1.270000*%
%ADD15R,1.400000X1.000000*%
%ADD16R,1.200000X1.200000*%
%ADD17R,2.160000X1.780000*%
%ADD18R,1.200000X2.800000*%
%ADD19C,1.524000*%
%ADD20R,0.600000X0.900000*%
%ADD21R,1.400000X1.200000*%
%ADD22R,1.300000X1.500000*%
%ADD23R,1.600000X1.800000*%
%ADD24R,2.100000X1.500000*%
%ADD25R,2.400000X1.800000*%
%ADD26R,1.000000X1.400000*%
%ADD27P,1.649562X8X22.500000*%
%ADD28R,1.500000X2.500000*%
%ADD29R,1.400000X1.400000*%
%ADD30C,0.711200*%
%ADD31C,0.203200*%
%ADD32C,0.254000*%
%ADD33C,0.304800*%
%ADD34C,0.406400*%
%ADD35C,0.508000*%
%ADD36R,2.095500X2.095500*%
%ADD37C,0.660400*%

G36*
X201792Y59322D02*
X201792Y59322D01*
X201879Y59325D01*
X201932Y59342D01*
X201987Y59350D01*
X202067Y59385D01*
X202150Y59412D01*
X202189Y59440D01*
X202246Y59466D01*
X202359Y59562D01*
X202423Y59607D01*
X240303Y97487D01*
X240356Y97557D01*
X240416Y97621D01*
X240441Y97670D01*
X240474Y97714D01*
X240505Y97796D01*
X240545Y97874D01*
X240553Y97922D01*
X240576Y97980D01*
X240588Y98128D01*
X240601Y98205D01*
X240601Y202264D01*
X240593Y202322D01*
X240594Y202380D01*
X240573Y202462D01*
X240561Y202546D01*
X240537Y202599D01*
X240522Y202655D01*
X240479Y202728D01*
X240445Y202805D01*
X240407Y202850D01*
X240377Y202900D01*
X240315Y202958D01*
X240261Y203022D01*
X240212Y203054D01*
X240170Y203094D01*
X240095Y203133D01*
X240024Y203180D01*
X239969Y203197D01*
X239917Y203224D01*
X239849Y203235D01*
X239753Y203265D01*
X239654Y203268D01*
X239586Y203279D01*
X232661Y203279D01*
X231917Y204024D01*
X231917Y215076D01*
X232661Y215821D01*
X239586Y215821D01*
X239643Y215829D01*
X239702Y215827D01*
X239783Y215849D01*
X239867Y215861D01*
X239920Y215884D01*
X239977Y215899D01*
X240049Y215942D01*
X240126Y215977D01*
X240171Y216015D01*
X240221Y216044D01*
X240279Y216106D01*
X240343Y216160D01*
X240376Y216209D01*
X240416Y216252D01*
X240454Y216327D01*
X240501Y216397D01*
X240519Y216453D01*
X240545Y216505D01*
X240557Y216573D01*
X240587Y216668D01*
X240589Y216768D01*
X240601Y216836D01*
X240601Y222402D01*
X240593Y222459D01*
X240594Y222518D01*
X240573Y222599D01*
X240561Y222683D01*
X240537Y222736D01*
X240522Y222793D01*
X240479Y222865D01*
X240445Y222942D01*
X240407Y222987D01*
X240377Y223037D01*
X240315Y223095D01*
X240261Y223159D01*
X240212Y223192D01*
X240170Y223232D01*
X240095Y223270D01*
X240024Y223317D01*
X239969Y223335D01*
X239917Y223361D01*
X239849Y223373D01*
X239753Y223403D01*
X239654Y223405D01*
X239586Y223417D01*
X233161Y223417D01*
X232417Y224161D01*
X232417Y236214D01*
X233161Y236958D01*
X243459Y236958D01*
X243517Y236966D01*
X243575Y236965D01*
X243657Y236986D01*
X243741Y236998D01*
X243794Y237022D01*
X243850Y237037D01*
X243923Y237080D01*
X244000Y237114D01*
X244045Y237152D01*
X244095Y237182D01*
X244153Y237244D01*
X244217Y237298D01*
X244249Y237347D01*
X244289Y237389D01*
X244328Y237464D01*
X244375Y237535D01*
X244392Y237590D01*
X244419Y237642D01*
X244430Y237710D01*
X244460Y237806D01*
X244463Y237905D01*
X244474Y237973D01*
X244474Y284114D01*
X244466Y284172D01*
X244468Y284230D01*
X244446Y284312D01*
X244434Y284396D01*
X244411Y284449D01*
X244396Y284505D01*
X244353Y284578D01*
X244318Y284655D01*
X244280Y284700D01*
X244251Y284750D01*
X244189Y284808D01*
X244135Y284872D01*
X244086Y284904D01*
X244043Y284944D01*
X243968Y284983D01*
X243898Y285030D01*
X243842Y285047D01*
X243790Y285074D01*
X243722Y285085D01*
X243627Y285115D01*
X243527Y285118D01*
X243459Y285129D01*
X237749Y285129D01*
X237243Y285635D01*
X237196Y285670D01*
X237156Y285713D01*
X237083Y285755D01*
X237016Y285806D01*
X236961Y285827D01*
X236911Y285856D01*
X236829Y285877D01*
X236750Y285907D01*
X236692Y285912D01*
X236635Y285926D01*
X236551Y285924D01*
X236467Y285931D01*
X236409Y285919D01*
X236351Y285917D01*
X236271Y285891D01*
X236188Y285875D01*
X236136Y285848D01*
X236080Y285830D01*
X236024Y285790D01*
X235936Y285744D01*
X235863Y285675D01*
X235807Y285635D01*
X235301Y285129D01*
X228249Y285129D01*
X227743Y285635D01*
X227696Y285670D01*
X227656Y285713D01*
X227583Y285755D01*
X227516Y285806D01*
X227461Y285827D01*
X227411Y285856D01*
X227329Y285877D01*
X227250Y285907D01*
X227192Y285912D01*
X227135Y285926D01*
X227051Y285924D01*
X226967Y285931D01*
X226909Y285919D01*
X226851Y285917D01*
X226771Y285891D01*
X226688Y285875D01*
X226636Y285848D01*
X226580Y285830D01*
X226524Y285790D01*
X226436Y285744D01*
X226363Y285675D01*
X226307Y285635D01*
X225801Y285129D01*
X218749Y285129D01*
X218004Y285874D01*
X218004Y287512D01*
X217992Y287598D01*
X217989Y287686D01*
X217972Y287738D01*
X217964Y287793D01*
X217929Y287873D01*
X217902Y287956D01*
X217874Y287996D01*
X217848Y288053D01*
X217752Y288166D01*
X217707Y288230D01*
X217423Y288513D01*
X217423Y292512D01*
X217707Y292795D01*
X217759Y292865D01*
X217819Y292929D01*
X217845Y292978D01*
X217878Y293023D01*
X217909Y293104D01*
X217949Y293182D01*
X217957Y293230D01*
X217979Y293288D01*
X217991Y293436D01*
X218004Y293513D01*
X218004Y295926D01*
X218749Y296671D01*
X225801Y296671D01*
X226168Y296304D01*
X226191Y296287D01*
X226210Y296264D01*
X226304Y296202D01*
X226395Y296134D01*
X226422Y296123D01*
X226447Y296107D01*
X226555Y296073D01*
X226660Y296032D01*
X226690Y296030D01*
X226718Y296021D01*
X226831Y296018D01*
X226944Y296009D01*
X226972Y296015D01*
X227002Y296014D01*
X227111Y296042D01*
X227223Y296065D01*
X227249Y296078D01*
X227277Y296086D01*
X227374Y296143D01*
X227475Y296196D01*
X227496Y296216D01*
X227521Y296231D01*
X227599Y296313D01*
X227681Y296391D01*
X227696Y296417D01*
X227716Y296438D01*
X227767Y296539D01*
X227825Y296637D01*
X227832Y296665D01*
X227845Y296691D01*
X227858Y296769D01*
X227895Y296912D01*
X227893Y296975D01*
X227901Y297022D01*
X227901Y339844D01*
X227889Y339931D01*
X227886Y340018D01*
X227869Y340071D01*
X227861Y340126D01*
X227825Y340205D01*
X227798Y340289D01*
X227770Y340328D01*
X227745Y340385D01*
X227649Y340498D01*
X227603Y340562D01*
X226592Y341574D01*
X226592Y343798D01*
X226584Y343856D01*
X226585Y343914D01*
X226564Y343996D01*
X226552Y344080D01*
X226528Y344133D01*
X226513Y344189D01*
X226470Y344262D01*
X226436Y344339D01*
X226398Y344384D01*
X226368Y344434D01*
X226306Y344492D01*
X226252Y344556D01*
X226203Y344588D01*
X226161Y344628D01*
X226086Y344667D01*
X226015Y344714D01*
X225960Y344731D01*
X225908Y344758D01*
X225840Y344769D01*
X225744Y344799D01*
X225645Y344802D01*
X225577Y344813D01*
X225040Y344813D01*
X223403Y346450D01*
X219886Y349968D01*
X219816Y350020D01*
X219752Y350080D01*
X219703Y350106D01*
X219659Y350139D01*
X219577Y350170D01*
X219499Y350210D01*
X219451Y350218D01*
X219393Y350240D01*
X219245Y350252D01*
X219168Y350265D01*
X213049Y350265D01*
X212963Y350253D01*
X212875Y350250D01*
X212823Y350233D01*
X212768Y350225D01*
X212688Y350190D01*
X212605Y350163D01*
X212565Y350135D01*
X212508Y350109D01*
X212395Y350013D01*
X212331Y349968D01*
X211549Y349186D01*
X209550Y349186D01*
X209492Y349178D01*
X209434Y349179D01*
X209352Y349158D01*
X209269Y349146D01*
X209215Y349122D01*
X209159Y349107D01*
X209086Y349064D01*
X209009Y349030D01*
X208964Y348992D01*
X208914Y348962D01*
X208856Y348900D01*
X208792Y348846D01*
X208760Y348797D01*
X208720Y348755D01*
X208681Y348680D01*
X208635Y348609D01*
X208617Y348554D01*
X208590Y348502D01*
X208579Y348434D01*
X208549Y348338D01*
X208546Y348239D01*
X208535Y348171D01*
X208535Y332661D01*
X208543Y332603D01*
X208541Y332545D01*
X208563Y332463D01*
X208575Y332379D01*
X208599Y332326D01*
X208613Y332270D01*
X208656Y332197D01*
X208691Y332120D01*
X208729Y332075D01*
X208759Y332025D01*
X208820Y331967D01*
X208875Y331903D01*
X208923Y331871D01*
X208966Y331831D01*
X209041Y331792D01*
X209111Y331745D01*
X209167Y331728D01*
X209219Y331701D01*
X209287Y331690D01*
X209382Y331660D01*
X209482Y331657D01*
X209550Y331646D01*
X218251Y331646D01*
X218996Y330901D01*
X218996Y318849D01*
X218251Y318104D01*
X212186Y318104D01*
X212136Y318097D01*
X212087Y318099D01*
X211996Y318077D01*
X211904Y318064D01*
X211859Y318044D01*
X211810Y318032D01*
X211730Y317986D01*
X211645Y317948D01*
X211607Y317916D01*
X211564Y317891D01*
X211514Y317837D01*
X211428Y317765D01*
X211379Y317691D01*
X211336Y317645D01*
X209780Y315265D01*
X209727Y315152D01*
X209670Y315041D01*
X209667Y315025D01*
X209659Y315008D01*
X209614Y314727D01*
X209616Y314717D01*
X209614Y314709D01*
X209614Y310738D01*
X206787Y307911D01*
X202788Y307911D01*
X199961Y310738D01*
X199961Y311150D01*
X199954Y311199D01*
X199954Y311208D01*
X199953Y311213D01*
X199954Y311266D01*
X199933Y311348D01*
X199921Y311432D01*
X199897Y311485D01*
X199882Y311541D01*
X199839Y311614D01*
X199805Y311691D01*
X199767Y311736D01*
X199737Y311786D01*
X199675Y311844D01*
X199621Y311908D01*
X199572Y311940D01*
X199530Y311980D01*
X199455Y312019D01*
X199384Y312066D01*
X199329Y312083D01*
X199277Y312110D01*
X199209Y312121D01*
X199113Y312151D01*
X199014Y312154D01*
X198946Y312165D01*
X197929Y312165D01*
X197872Y312157D01*
X197813Y312159D01*
X197732Y312137D01*
X197648Y312125D01*
X197595Y312102D01*
X197538Y312087D01*
X197466Y312044D01*
X197389Y312009D01*
X197344Y311971D01*
X197294Y311942D01*
X197236Y311880D01*
X197172Y311826D01*
X197139Y311777D01*
X197099Y311734D01*
X197061Y311659D01*
X197014Y311589D01*
X196996Y311533D01*
X196970Y311481D01*
X196958Y311413D01*
X196928Y311318D01*
X196926Y311218D01*
X196914Y311150D01*
X196914Y310738D01*
X194087Y307911D01*
X189992Y307911D01*
X189934Y307903D01*
X189876Y307904D01*
X189794Y307883D01*
X189710Y307871D01*
X189657Y307847D01*
X189601Y307832D01*
X189528Y307789D01*
X189451Y307755D01*
X189406Y307717D01*
X189356Y307687D01*
X189298Y307625D01*
X189234Y307571D01*
X189202Y307522D01*
X189162Y307480D01*
X189123Y307405D01*
X189076Y307334D01*
X189059Y307279D01*
X189032Y307227D01*
X189021Y307159D01*
X188991Y307063D01*
X188988Y306964D01*
X188977Y306896D01*
X188977Y305976D01*
X186149Y303148D01*
X182151Y303148D01*
X179323Y305976D01*
X179323Y309820D01*
X179315Y309878D01*
X179317Y309936D01*
X179295Y310018D01*
X179283Y310102D01*
X179260Y310155D01*
X179245Y310211D01*
X179202Y310284D01*
X179167Y310361D01*
X179129Y310406D01*
X179100Y310456D01*
X179038Y310514D01*
X178984Y310578D01*
X178935Y310610D01*
X178892Y310650D01*
X178817Y310689D01*
X178747Y310736D01*
X178691Y310753D01*
X178639Y310780D01*
X178571Y310791D01*
X178476Y310821D01*
X178376Y310824D01*
X178308Y310835D01*
X171450Y310835D01*
X171392Y310827D01*
X171334Y310829D01*
X171252Y310807D01*
X171169Y310795D01*
X171115Y310772D01*
X171059Y310757D01*
X170986Y310714D01*
X170909Y310679D01*
X170864Y310641D01*
X170814Y310612D01*
X170756Y310550D01*
X170692Y310496D01*
X170660Y310447D01*
X170620Y310404D01*
X170581Y310329D01*
X170535Y310259D01*
X170517Y310203D01*
X170490Y310151D01*
X170479Y310083D01*
X170449Y309988D01*
X170446Y309888D01*
X170435Y309820D01*
X170435Y306295D01*
X170447Y306208D01*
X170450Y306121D01*
X170467Y306068D01*
X170475Y306013D01*
X170510Y305933D01*
X170537Y305850D01*
X170565Y305811D01*
X170591Y305754D01*
X170687Y305641D01*
X170732Y305577D01*
X177497Y298812D01*
X177567Y298759D01*
X177631Y298699D01*
X177680Y298674D01*
X177725Y298641D01*
X177806Y298610D01*
X177884Y298570D01*
X177932Y298562D01*
X177990Y298539D01*
X178138Y298527D01*
X178215Y298514D01*
X181387Y298514D01*
X184214Y295687D01*
X184214Y291688D01*
X183883Y291357D01*
X183866Y291334D01*
X183843Y291315D01*
X183781Y291221D01*
X183712Y291130D01*
X183702Y291103D01*
X183686Y291078D01*
X183652Y290970D01*
X183611Y290865D01*
X183609Y290835D01*
X183600Y290807D01*
X183597Y290694D01*
X183588Y290581D01*
X183593Y290553D01*
X183593Y290523D01*
X183621Y290414D01*
X183644Y290302D01*
X183657Y290276D01*
X183665Y290248D01*
X183722Y290151D01*
X183775Y290050D01*
X183795Y290029D01*
X183810Y290004D01*
X183892Y289926D01*
X183970Y289844D01*
X183996Y289829D01*
X184017Y289809D01*
X184118Y289758D01*
X184216Y289700D01*
X184244Y289693D01*
X184270Y289680D01*
X184348Y289667D01*
X184491Y289630D01*
X184554Y289632D01*
X184601Y289624D01*
X185097Y289624D01*
X196225Y278497D01*
X196272Y278461D01*
X196312Y278419D01*
X196385Y278376D01*
X196452Y278326D01*
X196507Y278305D01*
X196557Y278275D01*
X196639Y278254D01*
X196718Y278224D01*
X196776Y278220D01*
X196833Y278205D01*
X196917Y278208D01*
X197001Y278201D01*
X197058Y278212D01*
X197117Y278214D01*
X197197Y278240D01*
X197280Y278257D01*
X197332Y278284D01*
X197387Y278302D01*
X197444Y278342D01*
X197532Y278388D01*
X197605Y278457D01*
X197661Y278497D01*
X197930Y278766D01*
X205295Y278766D01*
X210503Y273558D01*
X210503Y266192D01*
X205295Y260984D01*
X197930Y260984D01*
X192722Y266192D01*
X192722Y273558D01*
X192991Y273827D01*
X193008Y273849D01*
X193029Y273867D01*
X193045Y273892D01*
X193069Y273914D01*
X193111Y273987D01*
X193162Y274054D01*
X193173Y274084D01*
X193187Y274104D01*
X193195Y274129D01*
X193212Y274159D01*
X193233Y274241D01*
X193263Y274320D01*
X193266Y274355D01*
X193272Y274375D01*
X193273Y274398D01*
X193282Y274435D01*
X193280Y274519D01*
X193287Y274603D01*
X193279Y274640D01*
X193280Y274659D01*
X193275Y274679D01*
X193273Y274719D01*
X193247Y274799D01*
X193231Y274882D01*
X193212Y274917D01*
X193208Y274934D01*
X193199Y274950D01*
X193186Y274989D01*
X193146Y275046D01*
X193100Y275134D01*
X193071Y275164D01*
X193063Y275179D01*
X193027Y275212D01*
X192991Y275263D01*
X183500Y284753D01*
X183430Y284806D01*
X183366Y284866D01*
X183317Y284891D01*
X183273Y284924D01*
X183191Y284955D01*
X183113Y284995D01*
X183066Y285003D01*
X183007Y285026D01*
X182860Y285038D01*
X182782Y285051D01*
X166722Y285051D01*
X166693Y285047D01*
X166663Y285049D01*
X166552Y285027D01*
X166440Y285011D01*
X166413Y284999D01*
X166385Y284993D01*
X166284Y284941D01*
X166181Y284895D01*
X166158Y284876D01*
X166132Y284862D01*
X166050Y284784D01*
X165964Y284711D01*
X165948Y284687D01*
X165926Y284666D01*
X165869Y284569D01*
X165806Y284474D01*
X165797Y284446D01*
X165783Y284421D01*
X165755Y284312D01*
X165720Y284203D01*
X165720Y284174D01*
X165712Y284146D01*
X165716Y284033D01*
X165713Y283919D01*
X165721Y283891D01*
X165721Y283861D01*
X165756Y283754D01*
X165785Y283644D01*
X165800Y283619D01*
X165809Y283591D01*
X165854Y283527D01*
X165930Y283400D01*
X165976Y283357D01*
X166004Y283318D01*
X170825Y278497D01*
X170871Y278462D01*
X170912Y278419D01*
X170985Y278376D01*
X171052Y278326D01*
X171107Y278305D01*
X171157Y278275D01*
X171239Y278254D01*
X171318Y278224D01*
X171376Y278220D01*
X171433Y278205D01*
X171517Y278208D01*
X171601Y278201D01*
X171658Y278212D01*
X171717Y278214D01*
X171797Y278240D01*
X171880Y278257D01*
X171932Y278284D01*
X171987Y278302D01*
X172044Y278342D01*
X172132Y278388D01*
X172205Y278457D01*
X172261Y278497D01*
X172530Y278766D01*
X179895Y278766D01*
X185103Y273558D01*
X185103Y266192D01*
X179895Y260984D01*
X172530Y260984D01*
X167322Y266192D01*
X167322Y273558D01*
X167591Y273827D01*
X167608Y273849D01*
X167629Y273867D01*
X167645Y273892D01*
X167669Y273914D01*
X167711Y273987D01*
X167762Y274054D01*
X167773Y274084D01*
X167787Y274104D01*
X167795Y274129D01*
X167812Y274159D01*
X167833Y274241D01*
X167863Y274320D01*
X167866Y274355D01*
X167872Y274375D01*
X167873Y274398D01*
X167882Y274435D01*
X167880Y274519D01*
X167887Y274603D01*
X167879Y274640D01*
X167880Y274659D01*
X167875Y274679D01*
X167873Y274719D01*
X167847Y274799D01*
X167831Y274882D01*
X167812Y274917D01*
X167808Y274934D01*
X167799Y274950D01*
X167786Y274989D01*
X167746Y275046D01*
X167700Y275134D01*
X167671Y275164D01*
X167663Y275179D01*
X167627Y275212D01*
X167591Y275263D01*
X162863Y279991D01*
X162793Y280043D01*
X162729Y280103D01*
X162680Y280129D01*
X162635Y280162D01*
X162554Y280193D01*
X162476Y280233D01*
X162428Y280241D01*
X162370Y280263D01*
X162222Y280275D01*
X162145Y280288D01*
X155424Y280288D01*
X155395Y280284D01*
X155365Y280287D01*
X155254Y280264D01*
X155142Y280248D01*
X155115Y280236D01*
X155087Y280231D01*
X154986Y280179D01*
X154883Y280132D01*
X154860Y280113D01*
X154834Y280100D01*
X154752Y280022D01*
X154666Y279949D01*
X154649Y279924D01*
X154628Y279904D01*
X154571Y279806D01*
X154508Y279712D01*
X154499Y279684D01*
X154484Y279659D01*
X154457Y279549D01*
X154422Y279441D01*
X154422Y279411D01*
X154414Y279383D01*
X154418Y279270D01*
X154415Y279157D01*
X154422Y279128D01*
X154423Y279099D01*
X154458Y278991D01*
X154487Y278882D01*
X154502Y278856D01*
X154511Y278828D01*
X154556Y278765D01*
X154632Y278637D01*
X154678Y278594D01*
X154706Y278555D01*
X159703Y273558D01*
X159703Y266192D01*
X154495Y260984D01*
X147130Y260984D01*
X141922Y266192D01*
X141922Y273558D01*
X142191Y273827D01*
X142208Y273849D01*
X142229Y273867D01*
X142245Y273892D01*
X142269Y273914D01*
X142311Y273987D01*
X142362Y274054D01*
X142373Y274084D01*
X142387Y274104D01*
X142395Y274129D01*
X142412Y274159D01*
X142433Y274241D01*
X142463Y274320D01*
X142466Y274355D01*
X142472Y274375D01*
X142473Y274398D01*
X142482Y274435D01*
X142480Y274519D01*
X142487Y274603D01*
X142479Y274640D01*
X142480Y274659D01*
X142475Y274679D01*
X142473Y274719D01*
X142447Y274799D01*
X142431Y274882D01*
X142412Y274917D01*
X142408Y274934D01*
X142399Y274950D01*
X142386Y274989D01*
X142346Y275045D01*
X142300Y275134D01*
X142271Y275164D01*
X142263Y275179D01*
X142227Y275212D01*
X142191Y275263D01*
X137463Y279991D01*
X137393Y280043D01*
X137329Y280103D01*
X137280Y280129D01*
X137235Y280162D01*
X137154Y280193D01*
X137076Y280233D01*
X137028Y280241D01*
X136970Y280263D01*
X136822Y280275D01*
X136745Y280288D01*
X130024Y280288D01*
X129995Y280284D01*
X129965Y280287D01*
X129854Y280264D01*
X129742Y280248D01*
X129715Y280236D01*
X129687Y280231D01*
X129586Y280179D01*
X129483Y280132D01*
X129460Y280113D01*
X129434Y280100D01*
X129352Y280022D01*
X129266Y279949D01*
X129249Y279924D01*
X129228Y279904D01*
X129171Y279806D01*
X129108Y279712D01*
X129099Y279684D01*
X129084Y279659D01*
X129057Y279549D01*
X129022Y279441D01*
X129022Y279411D01*
X129014Y279383D01*
X129018Y279270D01*
X129015Y279157D01*
X129022Y279128D01*
X129023Y279099D01*
X129058Y278991D01*
X129087Y278882D01*
X129102Y278856D01*
X129111Y278828D01*
X129156Y278765D01*
X129232Y278637D01*
X129278Y278594D01*
X129306Y278555D01*
X134303Y273558D01*
X134303Y266192D01*
X129306Y261195D01*
X129288Y261171D01*
X129266Y261152D01*
X129203Y261058D01*
X129135Y260968D01*
X129124Y260940D01*
X129108Y260916D01*
X129074Y260808D01*
X129034Y260702D01*
X129031Y260673D01*
X129022Y260645D01*
X129019Y260531D01*
X129010Y260419D01*
X129016Y260390D01*
X129015Y260361D01*
X129044Y260251D01*
X129066Y260140D01*
X129079Y260114D01*
X129087Y260086D01*
X129145Y259988D01*
X129197Y259888D01*
X129217Y259866D01*
X129232Y259841D01*
X129315Y259764D01*
X129393Y259682D01*
X129418Y259667D01*
X129439Y259647D01*
X129540Y259595D01*
X129638Y259538D01*
X129666Y259531D01*
X129693Y259517D01*
X129770Y259504D01*
X129914Y259468D01*
X129976Y259470D01*
X130024Y259462D01*
X139060Y259462D01*
X145425Y253097D01*
X145472Y253061D01*
X145512Y253019D01*
X145585Y252976D01*
X145652Y252926D01*
X145707Y252905D01*
X145757Y252875D01*
X145839Y252854D01*
X145918Y252824D01*
X145976Y252820D01*
X146033Y252805D01*
X146117Y252808D01*
X146201Y252801D01*
X146258Y252812D01*
X146317Y252814D01*
X146397Y252840D01*
X146480Y252857D01*
X146532Y252884D01*
X146587Y252902D01*
X146644Y252942D01*
X146732Y252988D01*
X146804Y253056D01*
X146861Y253097D01*
X147130Y253366D01*
X154495Y253366D01*
X159703Y248158D01*
X159703Y240792D01*
X154495Y235584D01*
X147130Y235584D01*
X141922Y240792D01*
X141922Y248158D01*
X142191Y248427D01*
X142226Y248473D01*
X142269Y248514D01*
X142311Y248587D01*
X142362Y248654D01*
X142383Y248709D01*
X142412Y248759D01*
X142433Y248841D01*
X142463Y248920D01*
X142468Y248978D01*
X142482Y249035D01*
X142480Y249119D01*
X142487Y249203D01*
X142475Y249260D01*
X142473Y249319D01*
X142447Y249399D01*
X142431Y249482D01*
X142404Y249534D01*
X142386Y249589D01*
X142346Y249645D01*
X142300Y249734D01*
X142261Y249774D01*
X142248Y249797D01*
X142217Y249827D01*
X142191Y249863D01*
X137463Y254591D01*
X137393Y254643D01*
X137329Y254703D01*
X137280Y254729D01*
X137235Y254762D01*
X137154Y254793D01*
X137076Y254833D01*
X137028Y254841D01*
X136970Y254863D01*
X136822Y254875D01*
X136745Y254888D01*
X130024Y254888D01*
X129995Y254884D01*
X129965Y254887D01*
X129854Y254864D01*
X129742Y254848D01*
X129715Y254836D01*
X129687Y254831D01*
X129586Y254779D01*
X129483Y254732D01*
X129460Y254713D01*
X129434Y254700D01*
X129352Y254622D01*
X129266Y254549D01*
X129249Y254524D01*
X129228Y254504D01*
X129171Y254406D01*
X129108Y254312D01*
X129099Y254284D01*
X129084Y254259D01*
X129057Y254149D01*
X129022Y254041D01*
X129022Y254011D01*
X129014Y253983D01*
X129018Y253870D01*
X129015Y253757D01*
X129022Y253728D01*
X129023Y253699D01*
X129058Y253591D01*
X129087Y253482D01*
X129102Y253456D01*
X129111Y253428D01*
X129156Y253365D01*
X129232Y253237D01*
X129278Y253194D01*
X129306Y253155D01*
X134303Y248158D01*
X134303Y240792D01*
X129095Y235584D01*
X121730Y235584D01*
X116522Y240792D01*
X116522Y248158D01*
X121519Y253155D01*
X121537Y253179D01*
X121559Y253198D01*
X121622Y253292D01*
X121690Y253382D01*
X121701Y253410D01*
X121717Y253434D01*
X121751Y253542D01*
X121791Y253648D01*
X121794Y253677D01*
X121803Y253705D01*
X121806Y253819D01*
X121815Y253931D01*
X121809Y253960D01*
X121810Y253989D01*
X121781Y254099D01*
X121759Y254210D01*
X121746Y254236D01*
X121738Y254264D01*
X121680Y254362D01*
X121628Y254462D01*
X121608Y254484D01*
X121593Y254509D01*
X121510Y254586D01*
X121432Y254668D01*
X121407Y254683D01*
X121386Y254703D01*
X121285Y254755D01*
X121187Y254812D01*
X121159Y254819D01*
X121132Y254833D01*
X121055Y254846D01*
X120911Y254882D01*
X120849Y254880D01*
X120801Y254888D01*
X119703Y254888D01*
X110426Y264165D01*
X110426Y265264D01*
X110422Y265293D01*
X110424Y265322D01*
X110402Y265433D01*
X110386Y265545D01*
X110374Y265572D01*
X110368Y265601D01*
X110316Y265701D01*
X110270Y265805D01*
X110251Y265827D01*
X110237Y265853D01*
X110159Y265935D01*
X110086Y266022D01*
X110062Y266038D01*
X110041Y266059D01*
X109944Y266117D01*
X109849Y266179D01*
X109821Y266188D01*
X109796Y266203D01*
X109687Y266231D01*
X109578Y266265D01*
X109549Y266266D01*
X109521Y266273D01*
X109408Y266270D01*
X109294Y266272D01*
X109266Y266265D01*
X109236Y266264D01*
X109129Y266229D01*
X109019Y266201D01*
X108994Y266186D01*
X108966Y266177D01*
X108902Y266131D01*
X108775Y266055D01*
X108732Y266010D01*
X108693Y265982D01*
X103695Y260984D01*
X96330Y260984D01*
X91122Y266192D01*
X91122Y273558D01*
X96330Y278766D01*
X102845Y278766D01*
X102892Y278772D01*
X102940Y278770D01*
X103032Y278792D01*
X103127Y278806D01*
X103170Y278825D01*
X103216Y278836D01*
X103299Y278883D01*
X103386Y278922D01*
X103422Y278952D01*
X103464Y278976D01*
X103530Y279044D01*
X103603Y279105D01*
X103629Y279145D01*
X103663Y279179D01*
X103708Y279263D01*
X103761Y279342D01*
X103775Y279387D01*
X103797Y279429D01*
X103818Y279522D01*
X103846Y279613D01*
X103848Y279661D01*
X103858Y279707D01*
X103851Y279802D01*
X103854Y279897D01*
X103842Y279943D01*
X103839Y279991D01*
X103806Y280080D01*
X103782Y280172D01*
X103758Y280213D01*
X103741Y280258D01*
X103696Y280317D01*
X103637Y280417D01*
X103575Y280475D01*
X103537Y280524D01*
X98968Y284779D01*
X98911Y284818D01*
X98860Y284866D01*
X98795Y284899D01*
X98734Y284941D01*
X98669Y284964D01*
X98607Y284995D01*
X98546Y285006D01*
X98465Y285033D01*
X98350Y285038D01*
X98276Y285051D01*
X75980Y285051D01*
X75894Y285039D01*
X75806Y285036D01*
X75754Y285019D01*
X75699Y285011D01*
X75619Y284975D01*
X75536Y284948D01*
X75496Y284920D01*
X75439Y284895D01*
X75326Y284799D01*
X75262Y284753D01*
X59635Y269126D01*
X50800Y269126D01*
X50742Y269118D01*
X50684Y269119D01*
X50602Y269098D01*
X50519Y269086D01*
X50465Y269062D01*
X50409Y269047D01*
X50336Y269004D01*
X50259Y268970D01*
X50214Y268932D01*
X50164Y268902D01*
X50106Y268840D01*
X50042Y268786D01*
X50010Y268737D01*
X49970Y268695D01*
X49931Y268620D01*
X49885Y268549D01*
X49867Y268494D01*
X49840Y268442D01*
X49829Y268374D01*
X49799Y268278D01*
X49796Y268179D01*
X49785Y268111D01*
X49785Y247561D01*
X49793Y247503D01*
X49791Y247445D01*
X49813Y247363D01*
X49825Y247279D01*
X49849Y247226D01*
X49863Y247170D01*
X49906Y247097D01*
X49941Y247020D01*
X49979Y246975D01*
X50009Y246925D01*
X50070Y246867D01*
X50125Y246803D01*
X50173Y246771D01*
X50216Y246731D01*
X50291Y246692D01*
X50361Y246645D01*
X50417Y246628D01*
X50469Y246601D01*
X50537Y246590D01*
X50632Y246560D01*
X50732Y246557D01*
X50800Y246546D01*
X52064Y246546D01*
X52808Y245801D01*
X52808Y234749D01*
X52064Y234004D01*
X50800Y234004D01*
X50742Y233996D01*
X50684Y233998D01*
X50602Y233976D01*
X50519Y233964D01*
X50465Y233941D01*
X50409Y233926D01*
X50336Y233883D01*
X50259Y233848D01*
X50214Y233810D01*
X50164Y233781D01*
X50106Y233719D01*
X50042Y233665D01*
X50010Y233616D01*
X49970Y233573D01*
X49931Y233498D01*
X49885Y233428D01*
X49867Y233372D01*
X49840Y233320D01*
X49829Y233252D01*
X49799Y233157D01*
X49796Y233057D01*
X49785Y232989D01*
X49785Y230561D01*
X49793Y230503D01*
X49791Y230445D01*
X49813Y230363D01*
X49825Y230279D01*
X49849Y230226D01*
X49863Y230170D01*
X49906Y230097D01*
X49941Y230020D01*
X49979Y229975D01*
X50009Y229925D01*
X50070Y229867D01*
X50125Y229803D01*
X50173Y229771D01*
X50216Y229731D01*
X50291Y229692D01*
X50361Y229645D01*
X50417Y229628D01*
X50469Y229601D01*
X50537Y229590D01*
X50632Y229560D01*
X50732Y229557D01*
X50800Y229546D01*
X52064Y229546D01*
X52808Y228801D01*
X52808Y228781D01*
X52812Y228752D01*
X52810Y228723D01*
X52832Y228612D01*
X52848Y228500D01*
X52860Y228473D01*
X52866Y228444D01*
X52918Y228344D01*
X52964Y228240D01*
X52983Y228218D01*
X52997Y228192D01*
X53075Y228110D01*
X53148Y228023D01*
X53172Y228007D01*
X53193Y227986D01*
X53290Y227929D01*
X53385Y227866D01*
X53413Y227857D01*
X53438Y227842D01*
X53547Y227814D01*
X53656Y227780D01*
X53685Y227779D01*
X53713Y227772D01*
X53826Y227776D01*
X53940Y227773D01*
X53968Y227780D01*
X53998Y227781D01*
X54106Y227816D01*
X54215Y227845D01*
X54240Y227860D01*
X54268Y227869D01*
X54332Y227914D01*
X54459Y227990D01*
X54502Y228035D01*
X54541Y228063D01*
X55386Y228908D01*
X68439Y228908D01*
X69183Y228164D01*
X69183Y215111D01*
X68439Y214367D01*
X55386Y214367D01*
X55166Y214587D01*
X55143Y214604D01*
X55124Y214627D01*
X55030Y214689D01*
X54939Y214757D01*
X54912Y214768D01*
X54887Y214784D01*
X54779Y214818D01*
X54674Y214859D01*
X54644Y214861D01*
X54616Y214870D01*
X54503Y214873D01*
X54390Y214882D01*
X54361Y214876D01*
X54332Y214877D01*
X54223Y214849D01*
X54112Y214826D01*
X54085Y214813D01*
X54057Y214805D01*
X53960Y214748D01*
X53859Y214695D01*
X53838Y214675D01*
X53813Y214660D01*
X53735Y214578D01*
X53653Y214500D01*
X53638Y214474D01*
X53618Y214453D01*
X53567Y214352D01*
X53509Y214254D01*
X53502Y214226D01*
X53489Y214200D01*
X53476Y214122D01*
X53439Y213979D01*
X53441Y213916D01*
X53433Y213869D01*
X53433Y196849D01*
X52565Y195980D01*
X52547Y195957D01*
X52525Y195938D01*
X52462Y195844D01*
X52394Y195753D01*
X52384Y195726D01*
X52367Y195701D01*
X52333Y195593D01*
X52293Y195488D01*
X52290Y195458D01*
X52282Y195430D01*
X52279Y195317D01*
X52269Y195204D01*
X52275Y195176D01*
X52274Y195146D01*
X52303Y195037D01*
X52325Y194926D01*
X52339Y194899D01*
X52346Y194871D01*
X52404Y194774D01*
X52456Y194673D01*
X52476Y194652D01*
X52491Y194627D01*
X52574Y194549D01*
X52652Y194467D01*
X52677Y194452D01*
X52699Y194432D01*
X52800Y194381D01*
X52897Y194323D01*
X52926Y194316D01*
X52952Y194303D01*
X53029Y194290D01*
X53173Y194253D01*
X53235Y194255D01*
X53283Y194247D01*
X96989Y194247D01*
X97047Y194255D01*
X97105Y194254D01*
X97187Y194275D01*
X97271Y194287D01*
X97324Y194311D01*
X97380Y194326D01*
X97453Y194369D01*
X97530Y194403D01*
X97575Y194441D01*
X97625Y194471D01*
X97683Y194533D01*
X97747Y194587D01*
X97779Y194636D01*
X97819Y194678D01*
X97858Y194753D01*
X97905Y194824D01*
X97922Y194879D01*
X97949Y194931D01*
X97960Y194999D01*
X97990Y195095D01*
X97993Y195194D01*
X98004Y195263D01*
X98004Y204989D01*
X98749Y205733D01*
X110801Y205733D01*
X111546Y204989D01*
X111546Y203780D01*
X111554Y203723D01*
X111552Y203664D01*
X111574Y203583D01*
X111586Y203499D01*
X111609Y203446D01*
X111624Y203389D01*
X111667Y203317D01*
X111702Y203240D01*
X111740Y203195D01*
X111769Y203145D01*
X111831Y203087D01*
X111885Y203023D01*
X111934Y202990D01*
X111977Y202950D01*
X112052Y202912D01*
X112122Y202865D01*
X112178Y202847D01*
X112230Y202821D01*
X112298Y202809D01*
X112393Y202779D01*
X112493Y202777D01*
X112561Y202765D01*
X119532Y202765D01*
X119590Y202773D01*
X119648Y202772D01*
X119730Y202793D01*
X119814Y202805D01*
X119867Y202829D01*
X119923Y202844D01*
X119996Y202887D01*
X120073Y202921D01*
X120118Y202959D01*
X120168Y202989D01*
X120226Y203051D01*
X120290Y203105D01*
X120322Y203154D01*
X120362Y203196D01*
X120401Y203271D01*
X120448Y203342D01*
X120465Y203397D01*
X120492Y203449D01*
X120503Y203517D01*
X120533Y203613D01*
X120536Y203712D01*
X120547Y203780D01*
X120547Y206527D01*
X120539Y206584D01*
X120541Y206637D01*
X120540Y206638D01*
X120541Y206643D01*
X120519Y206724D01*
X120507Y206808D01*
X120484Y206861D01*
X120469Y206918D01*
X120426Y206990D01*
X120391Y207067D01*
X120353Y207112D01*
X120324Y207162D01*
X120262Y207220D01*
X120208Y207284D01*
X120159Y207317D01*
X120116Y207357D01*
X120041Y207395D01*
X119971Y207442D01*
X119915Y207460D01*
X119863Y207486D01*
X119795Y207498D01*
X119700Y207528D01*
X119600Y207530D01*
X119532Y207542D01*
X116149Y207542D01*
X115404Y208286D01*
X115404Y220339D01*
X116149Y221083D01*
X127201Y221083D01*
X127946Y220339D01*
X127946Y208286D01*
X127450Y207791D01*
X127398Y207721D01*
X127338Y207657D01*
X127312Y207608D01*
X127279Y207563D01*
X127248Y207482D01*
X127208Y207404D01*
X127200Y207356D01*
X127178Y207298D01*
X127166Y207150D01*
X127153Y207073D01*
X127153Y203652D01*
X127165Y203566D01*
X127168Y203478D01*
X127185Y203426D01*
X127193Y203371D01*
X127228Y203291D01*
X127255Y203208D01*
X127283Y203169D01*
X127309Y203111D01*
X127405Y202998D01*
X127450Y202935D01*
X127882Y202502D01*
X127929Y202467D01*
X127969Y202425D01*
X128042Y202382D01*
X128109Y202332D01*
X128164Y202311D01*
X128214Y202281D01*
X128296Y202260D01*
X128375Y202230D01*
X128433Y202226D01*
X128490Y202211D01*
X128574Y202214D01*
X128658Y202207D01*
X128716Y202218D01*
X128774Y202220D01*
X128854Y202246D01*
X128937Y202263D01*
X128989Y202290D01*
X129045Y202308D01*
X129101Y202348D01*
X129189Y202394D01*
X129262Y202462D01*
X129318Y202502D01*
X129750Y202935D01*
X129802Y203004D01*
X129862Y203068D01*
X129888Y203118D01*
X129921Y203162D01*
X129952Y203243D01*
X129992Y203321D01*
X130000Y203369D01*
X130022Y203427D01*
X130034Y203575D01*
X130047Y203652D01*
X130047Y210356D01*
X132107Y212415D01*
X132159Y212485D01*
X132219Y212549D01*
X132245Y212598D01*
X132278Y212642D01*
X132309Y212724D01*
X132349Y212802D01*
X132357Y212850D01*
X132379Y212908D01*
X132391Y213056D01*
X132404Y213133D01*
X132404Y220339D01*
X133149Y221083D01*
X144201Y221083D01*
X144946Y220339D01*
X144946Y208286D01*
X144201Y207542D01*
X137668Y207542D01*
X137610Y207534D01*
X137552Y207535D01*
X137470Y207514D01*
X137386Y207502D01*
X137333Y207478D01*
X137277Y207463D01*
X137204Y207420D01*
X137127Y207386D01*
X137082Y207348D01*
X137032Y207318D01*
X136974Y207256D01*
X136910Y207202D01*
X136878Y207153D01*
X136838Y207111D01*
X136799Y207036D01*
X136752Y206965D01*
X136735Y206910D01*
X136708Y206858D01*
X136697Y206790D01*
X136667Y206694D01*
X136664Y206595D01*
X136653Y206527D01*
X136653Y203652D01*
X136665Y203566D01*
X136668Y203478D01*
X136685Y203426D01*
X136693Y203371D01*
X136728Y203291D01*
X136755Y203208D01*
X136783Y203169D01*
X136809Y203111D01*
X136905Y202998D01*
X136950Y202935D01*
X137382Y202502D01*
X137429Y202467D01*
X137469Y202425D01*
X137542Y202382D01*
X137609Y202332D01*
X137664Y202311D01*
X137714Y202281D01*
X137796Y202260D01*
X137875Y202230D01*
X137933Y202226D01*
X137990Y202211D01*
X138074Y202214D01*
X138158Y202207D01*
X138216Y202218D01*
X138274Y202220D01*
X138354Y202246D01*
X138437Y202263D01*
X138489Y202290D01*
X138545Y202308D01*
X138601Y202348D01*
X138689Y202394D01*
X138762Y202462D01*
X138818Y202502D01*
X139324Y203008D01*
X146376Y203008D01*
X147121Y202264D01*
X147121Y201555D01*
X147129Y201498D01*
X147127Y201439D01*
X147149Y201358D01*
X147161Y201274D01*
X147184Y201221D01*
X147199Y201164D01*
X147242Y201092D01*
X147277Y201015D01*
X147315Y200970D01*
X147344Y200920D01*
X147406Y200862D01*
X147460Y200798D01*
X147509Y200765D01*
X147552Y200725D01*
X147627Y200687D01*
X147697Y200640D01*
X147753Y200622D01*
X147805Y200596D01*
X147873Y200584D01*
X147968Y200554D01*
X148068Y200552D01*
X148136Y200540D01*
X151464Y200540D01*
X151522Y200548D01*
X151580Y200547D01*
X151662Y200568D01*
X151746Y200580D01*
X151799Y200604D01*
X151855Y200619D01*
X151928Y200662D01*
X152005Y200696D01*
X152050Y200734D01*
X152100Y200764D01*
X152158Y200826D01*
X152222Y200880D01*
X152254Y200929D01*
X152294Y200971D01*
X152333Y201046D01*
X152380Y201117D01*
X152397Y201172D01*
X152424Y201224D01*
X152435Y201292D01*
X152465Y201388D01*
X152468Y201487D01*
X152479Y201555D01*
X152479Y206614D01*
X153224Y207358D01*
X164276Y207358D01*
X165021Y206614D01*
X165021Y195263D01*
X165029Y195205D01*
X165027Y195146D01*
X165049Y195065D01*
X165061Y194981D01*
X165084Y194928D01*
X165099Y194871D01*
X165142Y194799D01*
X165177Y194722D01*
X165215Y194677D01*
X165244Y194627D01*
X165306Y194569D01*
X165360Y194505D01*
X165409Y194472D01*
X165452Y194432D01*
X165527Y194394D01*
X165597Y194347D01*
X165653Y194329D01*
X165705Y194303D01*
X165773Y194291D01*
X165868Y194261D01*
X165968Y194259D01*
X166036Y194247D01*
X168847Y194247D01*
X168847Y184150D01*
X168855Y184098D01*
X168854Y184069D01*
X168855Y184066D01*
X168854Y184034D01*
X168875Y183952D01*
X168887Y183869D01*
X168911Y183815D01*
X168926Y183759D01*
X168969Y183686D01*
X169003Y183609D01*
X169041Y183564D01*
X169071Y183514D01*
X169133Y183456D01*
X169187Y183392D01*
X169236Y183360D01*
X169278Y183320D01*
X169353Y183281D01*
X169424Y183235D01*
X169479Y183217D01*
X169531Y183190D01*
X169599Y183179D01*
X169695Y183149D01*
X169794Y183146D01*
X169863Y183135D01*
X195835Y183135D01*
X195835Y83565D01*
X174625Y83565D01*
X174567Y83557D01*
X174509Y83559D01*
X174427Y83537D01*
X174344Y83525D01*
X174290Y83502D01*
X174234Y83487D01*
X174161Y83444D01*
X174084Y83409D01*
X174039Y83371D01*
X173989Y83342D01*
X173931Y83280D01*
X173867Y83226D01*
X173835Y83177D01*
X173795Y83134D01*
X173756Y83059D01*
X173710Y82989D01*
X173692Y82933D01*
X173665Y82881D01*
X173654Y82813D01*
X173624Y82718D01*
X173621Y82618D01*
X173610Y82550D01*
X173610Y60325D01*
X173618Y60267D01*
X173616Y60209D01*
X173638Y60127D01*
X173650Y60044D01*
X173674Y59990D01*
X173688Y59934D01*
X173731Y59861D01*
X173766Y59784D01*
X173804Y59739D01*
X173834Y59689D01*
X173895Y59631D01*
X173950Y59567D01*
X173998Y59535D01*
X174041Y59495D01*
X174116Y59456D01*
X174186Y59410D01*
X174242Y59392D01*
X174294Y59365D01*
X174362Y59354D01*
X174457Y59324D01*
X174557Y59321D01*
X174625Y59310D01*
X201705Y59310D01*
X201792Y59322D01*
G37*
G36*
X46095Y273707D02*
X46095Y273707D01*
X46154Y273706D01*
X46235Y273727D01*
X46319Y273739D01*
X46372Y273763D01*
X46429Y273778D01*
X46501Y273821D01*
X46578Y273855D01*
X46623Y273893D01*
X46673Y273923D01*
X46731Y273985D01*
X46795Y274039D01*
X46828Y274088D01*
X46868Y274130D01*
X46906Y274205D01*
X46953Y274276D01*
X46971Y274331D01*
X46997Y274383D01*
X47009Y274451D01*
X47039Y274547D01*
X47041Y274646D01*
X47053Y274714D01*
X47053Y281560D01*
X52952Y281560D01*
X53009Y281568D01*
X53068Y281566D01*
X53149Y281588D01*
X53233Y281600D01*
X53286Y281624D01*
X53343Y281638D01*
X53415Y281681D01*
X53492Y281716D01*
X53537Y281754D01*
X53587Y281784D01*
X53645Y281845D01*
X53709Y281900D01*
X53742Y281948D01*
X53782Y281991D01*
X53820Y282066D01*
X53867Y282136D01*
X53885Y282192D01*
X53911Y282244D01*
X53923Y282312D01*
X53953Y282407D01*
X53955Y282507D01*
X53967Y282575D01*
X53967Y292976D01*
X54711Y293721D01*
X61913Y293721D01*
X61970Y293729D01*
X62029Y293727D01*
X62110Y293749D01*
X62194Y293761D01*
X62247Y293784D01*
X62304Y293799D01*
X62376Y293842D01*
X62453Y293877D01*
X62498Y293915D01*
X62548Y293944D01*
X62606Y294006D01*
X62670Y294060D01*
X62703Y294109D01*
X62743Y294152D01*
X62781Y294227D01*
X62828Y294297D01*
X62846Y294353D01*
X62872Y294405D01*
X62884Y294473D01*
X62914Y294568D01*
X62916Y294668D01*
X62928Y294736D01*
X62928Y298455D01*
X62924Y298484D01*
X62926Y298514D01*
X62904Y298625D01*
X62888Y298737D01*
X62876Y298764D01*
X62870Y298792D01*
X62818Y298893D01*
X62772Y298996D01*
X62753Y299019D01*
X62739Y299045D01*
X62661Y299127D01*
X62588Y299213D01*
X62564Y299229D01*
X62543Y299251D01*
X62446Y299308D01*
X62351Y299371D01*
X62323Y299380D01*
X62298Y299394D01*
X62189Y299422D01*
X62080Y299457D01*
X62051Y299457D01*
X62023Y299465D01*
X61910Y299461D01*
X61796Y299464D01*
X61768Y299456D01*
X61738Y299456D01*
X61631Y299421D01*
X61521Y299392D01*
X61496Y299377D01*
X61468Y299368D01*
X61426Y299338D01*
X53755Y299338D01*
X53669Y299326D01*
X53581Y299323D01*
X53529Y299306D01*
X53474Y299298D01*
X53394Y299263D01*
X53311Y299236D01*
X53271Y299208D01*
X53214Y299182D01*
X53101Y299086D01*
X53037Y299041D01*
X43810Y289813D01*
X41186Y289813D01*
X41128Y289805D01*
X41070Y289807D01*
X40988Y289785D01*
X40904Y289773D01*
X40851Y289750D01*
X40795Y289735D01*
X40722Y289692D01*
X40645Y289657D01*
X40600Y289619D01*
X40550Y289590D01*
X40492Y289528D01*
X40428Y289474D01*
X40396Y289425D01*
X40356Y289382D01*
X40317Y289307D01*
X40270Y289237D01*
X40253Y289181D01*
X40226Y289129D01*
X40215Y289061D01*
X40185Y288966D01*
X40182Y288866D01*
X40171Y288798D01*
X40171Y286074D01*
X39426Y285329D01*
X28374Y285329D01*
X27629Y286074D01*
X27629Y298126D01*
X28374Y298871D01*
X39426Y298871D01*
X40171Y298126D01*
X40171Y295402D01*
X40179Y295344D01*
X40177Y295286D01*
X40199Y295204D01*
X40211Y295120D01*
X40234Y295067D01*
X40249Y295011D01*
X40292Y294938D01*
X40327Y294861D01*
X40365Y294816D01*
X40394Y294766D01*
X40456Y294708D01*
X40510Y294644D01*
X40559Y294612D01*
X40602Y294572D01*
X40677Y294533D01*
X40747Y294486D01*
X40803Y294469D01*
X40855Y294442D01*
X40923Y294431D01*
X41018Y294401D01*
X41118Y294398D01*
X41186Y294387D01*
X41495Y294387D01*
X41581Y294399D01*
X41669Y294402D01*
X41721Y294419D01*
X41776Y294427D01*
X41856Y294462D01*
X41939Y294489D01*
X41979Y294517D01*
X42036Y294543D01*
X42149Y294639D01*
X42213Y294684D01*
X51440Y303912D01*
X59045Y303912D01*
X59131Y303924D01*
X59219Y303927D01*
X59271Y303944D01*
X59326Y303952D01*
X59406Y303987D01*
X59489Y304014D01*
X59529Y304042D01*
X59586Y304068D01*
X59699Y304164D01*
X59763Y304209D01*
X62630Y307077D01*
X62683Y307147D01*
X62743Y307211D01*
X62768Y307260D01*
X62801Y307304D01*
X62832Y307386D01*
X62872Y307464D01*
X62880Y307511D01*
X62903Y307570D01*
X62915Y307717D01*
X62928Y307795D01*
X62928Y314198D01*
X62920Y314256D01*
X62921Y314314D01*
X62900Y314396D01*
X62888Y314480D01*
X62864Y314533D01*
X62849Y314589D01*
X62806Y314662D01*
X62772Y314739D01*
X62734Y314784D01*
X62704Y314834D01*
X62642Y314892D01*
X62588Y314956D01*
X62539Y314988D01*
X62497Y315028D01*
X62422Y315067D01*
X62351Y315114D01*
X62296Y315131D01*
X62244Y315158D01*
X62176Y315169D01*
X62080Y315199D01*
X61981Y315202D01*
X61913Y315213D01*
X45686Y315213D01*
X45628Y315205D01*
X45570Y315207D01*
X45488Y315185D01*
X45404Y315173D01*
X45351Y315150D01*
X45295Y315135D01*
X45222Y315092D01*
X45145Y315057D01*
X45100Y315019D01*
X45050Y314990D01*
X44992Y314928D01*
X44928Y314874D01*
X44896Y314825D01*
X44856Y314782D01*
X44817Y314707D01*
X44770Y314637D01*
X44753Y314581D01*
X44726Y314529D01*
X44715Y314461D01*
X44685Y314366D01*
X44682Y314266D01*
X44671Y314198D01*
X44671Y311974D01*
X43926Y311229D01*
X28874Y311229D01*
X28129Y311974D01*
X28129Y314198D01*
X28121Y314256D01*
X28123Y314314D01*
X28101Y314396D01*
X28089Y314480D01*
X28066Y314533D01*
X28051Y314589D01*
X28008Y314662D01*
X27973Y314739D01*
X27935Y314784D01*
X27906Y314834D01*
X27844Y314892D01*
X27790Y314956D01*
X27741Y314988D01*
X27698Y315028D01*
X27623Y315067D01*
X27553Y315114D01*
X27497Y315131D01*
X27445Y315158D01*
X27377Y315169D01*
X27282Y315199D01*
X27182Y315202D01*
X27114Y315213D01*
X26040Y315213D01*
X23113Y318140D01*
X23113Y331445D01*
X23101Y331531D01*
X23098Y331619D01*
X23081Y331671D01*
X23073Y331726D01*
X23038Y331806D01*
X23011Y331889D01*
X22983Y331929D01*
X22957Y331986D01*
X22861Y332099D01*
X22816Y332163D01*
X20734Y334244D01*
X20664Y334297D01*
X20600Y334357D01*
X20551Y334382D01*
X20507Y334415D01*
X20425Y334446D01*
X20347Y334486D01*
X20300Y334494D01*
X20241Y334517D01*
X20094Y334529D01*
X20016Y334542D01*
X11374Y334542D01*
X10629Y335286D01*
X10629Y347339D01*
X11374Y348083D01*
X12573Y348083D01*
X12631Y348091D01*
X12689Y348090D01*
X12771Y348111D01*
X12855Y348123D01*
X12908Y348147D01*
X12964Y348162D01*
X13037Y348205D01*
X13114Y348239D01*
X13159Y348277D01*
X13209Y348307D01*
X13267Y348369D01*
X13331Y348423D01*
X13363Y348472D01*
X13403Y348514D01*
X13442Y348589D01*
X13489Y348660D01*
X13506Y348715D01*
X13533Y348767D01*
X13544Y348835D01*
X13574Y348931D01*
X13577Y349030D01*
X13588Y349098D01*
X13588Y350927D01*
X13582Y350974D01*
X13582Y350975D01*
X13581Y350975D01*
X13580Y350984D01*
X13582Y351043D01*
X13560Y351124D01*
X13548Y351208D01*
X13525Y351261D01*
X13510Y351318D01*
X13467Y351390D01*
X13432Y351467D01*
X13394Y351512D01*
X13365Y351562D01*
X13303Y351620D01*
X13249Y351684D01*
X13200Y351717D01*
X13157Y351757D01*
X13082Y351795D01*
X13012Y351842D01*
X12956Y351860D01*
X12904Y351886D01*
X12836Y351898D01*
X12741Y351928D01*
X12641Y351930D01*
X12573Y351942D01*
X9849Y351942D01*
X9104Y352686D01*
X9104Y363739D01*
X9849Y364483D01*
X21901Y364483D01*
X22646Y363739D01*
X22646Y352686D01*
X21901Y351942D01*
X19177Y351942D01*
X19119Y351934D01*
X19061Y351935D01*
X18979Y351914D01*
X18895Y351902D01*
X18842Y351878D01*
X18786Y351863D01*
X18713Y351820D01*
X18636Y351786D01*
X18591Y351748D01*
X18541Y351718D01*
X18483Y351656D01*
X18419Y351602D01*
X18387Y351553D01*
X18347Y351511D01*
X18308Y351436D01*
X18261Y351365D01*
X18244Y351310D01*
X18217Y351258D01*
X18206Y351190D01*
X18176Y351094D01*
X18173Y350995D01*
X18162Y350927D01*
X18162Y349098D01*
X18170Y349041D01*
X18168Y348982D01*
X18190Y348901D01*
X18202Y348817D01*
X18225Y348764D01*
X18240Y348707D01*
X18283Y348635D01*
X18318Y348558D01*
X18356Y348513D01*
X18385Y348463D01*
X18447Y348405D01*
X18501Y348341D01*
X18550Y348308D01*
X18593Y348268D01*
X18668Y348230D01*
X18738Y348183D01*
X18794Y348165D01*
X18846Y348139D01*
X18914Y348127D01*
X19009Y348097D01*
X19109Y348095D01*
X19177Y348083D01*
X22426Y348083D01*
X23171Y347339D01*
X23171Y338696D01*
X23183Y338610D01*
X23186Y338522D01*
X23203Y338470D01*
X23211Y338415D01*
X23246Y338335D01*
X23273Y338252D01*
X23301Y338212D01*
X23327Y338155D01*
X23393Y338077D01*
X23415Y338039D01*
X23443Y338014D01*
X23468Y337978D01*
X27687Y333760D01*
X27687Y324786D01*
X27695Y324728D01*
X27693Y324670D01*
X27715Y324588D01*
X27727Y324504D01*
X27750Y324451D01*
X27765Y324395D01*
X27808Y324322D01*
X27843Y324245D01*
X27881Y324200D01*
X27910Y324150D01*
X27972Y324092D01*
X28026Y324028D01*
X28075Y323996D01*
X28118Y323956D01*
X28193Y323917D01*
X28263Y323870D01*
X28319Y323853D01*
X28371Y323826D01*
X28439Y323815D01*
X28534Y323785D01*
X28634Y323782D01*
X28702Y323771D01*
X43926Y323771D01*
X44671Y323026D01*
X44671Y320802D01*
X44679Y320744D01*
X44677Y320686D01*
X44699Y320604D01*
X44711Y320520D01*
X44734Y320467D01*
X44749Y320411D01*
X44792Y320338D01*
X44827Y320261D01*
X44865Y320216D01*
X44894Y320166D01*
X44956Y320108D01*
X45010Y320044D01*
X45059Y320012D01*
X45102Y319972D01*
X45177Y319933D01*
X45247Y319886D01*
X45303Y319869D01*
X45355Y319842D01*
X45423Y319831D01*
X45518Y319801D01*
X45618Y319798D01*
X45686Y319787D01*
X61039Y319787D01*
X61097Y319795D01*
X61155Y319793D01*
X61237Y319815D01*
X61321Y319827D01*
X61374Y319850D01*
X61430Y319865D01*
X61503Y319908D01*
X61580Y319943D01*
X61625Y319981D01*
X61675Y320010D01*
X61733Y320072D01*
X61797Y320126D01*
X61829Y320175D01*
X61869Y320218D01*
X61908Y320293D01*
X61955Y320363D01*
X61972Y320419D01*
X61999Y320471D01*
X62010Y320539D01*
X62040Y320634D01*
X62043Y320734D01*
X62054Y320802D01*
X62054Y330964D01*
X62799Y331708D01*
X72837Y331708D01*
X72861Y331712D01*
X72884Y331709D01*
X73001Y331731D01*
X73119Y331748D01*
X73140Y331758D01*
X73163Y331762D01*
X73231Y331798D01*
X73378Y331864D01*
X73421Y331900D01*
X73459Y331921D01*
X74309Y332580D01*
X74361Y332632D01*
X74406Y332664D01*
X74958Y333217D01*
X75027Y333227D01*
X75048Y333236D01*
X75072Y333241D01*
X75139Y333277D01*
X75177Y333294D01*
X75956Y333195D01*
X76029Y333196D01*
X76084Y333187D01*
X78613Y333187D01*
X78671Y333195D01*
X78729Y333193D01*
X78811Y333215D01*
X78895Y333227D01*
X78948Y333250D01*
X79004Y333265D01*
X79077Y333308D01*
X79154Y333343D01*
X79199Y333381D01*
X79249Y333410D01*
X79307Y333472D01*
X79371Y333526D01*
X79403Y333575D01*
X79443Y333618D01*
X79482Y333693D01*
X79529Y333763D01*
X79546Y333819D01*
X79573Y333871D01*
X79584Y333939D01*
X79614Y334034D01*
X79617Y334134D01*
X79628Y334202D01*
X79628Y334220D01*
X80373Y334965D01*
X93663Y334965D01*
X93720Y334973D01*
X93779Y334971D01*
X93860Y334993D01*
X93944Y335005D01*
X93997Y335028D01*
X94054Y335043D01*
X94126Y335086D01*
X94203Y335121D01*
X94248Y335159D01*
X94298Y335188D01*
X94356Y335250D01*
X94420Y335304D01*
X94453Y335353D01*
X94493Y335396D01*
X94531Y335471D01*
X94578Y335541D01*
X94596Y335597D01*
X94622Y335649D01*
X94634Y335717D01*
X94664Y335812D01*
X94666Y335912D01*
X94678Y335980D01*
X94678Y341820D01*
X94670Y341878D01*
X94671Y341936D01*
X94650Y342018D01*
X94638Y342102D01*
X94614Y342155D01*
X94599Y342211D01*
X94556Y342284D01*
X94522Y342361D01*
X94484Y342406D01*
X94454Y342456D01*
X94392Y342514D01*
X94338Y342578D01*
X94289Y342610D01*
X94247Y342650D01*
X94172Y342689D01*
X94101Y342736D01*
X94046Y342753D01*
X93994Y342780D01*
X93926Y342791D01*
X93830Y342821D01*
X93731Y342824D01*
X93663Y342835D01*
X80373Y342835D01*
X79400Y343808D01*
X79330Y343860D01*
X79266Y343920D01*
X79217Y343946D01*
X79173Y343979D01*
X79091Y344010D01*
X79013Y344050D01*
X78966Y344058D01*
X78907Y344080D01*
X78759Y344092D01*
X78682Y344105D01*
X76611Y344105D01*
X76553Y344097D01*
X76495Y344099D01*
X76413Y344077D01*
X76329Y344065D01*
X76276Y344042D01*
X76220Y344027D01*
X76147Y343984D01*
X76070Y343949D01*
X76025Y343911D01*
X75975Y343882D01*
X75917Y343820D01*
X75853Y343766D01*
X75821Y343717D01*
X75781Y343674D01*
X75742Y343599D01*
X75695Y343529D01*
X75678Y343473D01*
X75651Y343421D01*
X75640Y343353D01*
X75610Y343258D01*
X75607Y343158D01*
X75596Y343090D01*
X75596Y340549D01*
X74851Y339804D01*
X62799Y339804D01*
X62054Y340549D01*
X62054Y349250D01*
X62046Y349308D01*
X62048Y349366D01*
X62026Y349448D01*
X62014Y349532D01*
X61991Y349585D01*
X61976Y349641D01*
X61933Y349714D01*
X61898Y349791D01*
X61860Y349836D01*
X61831Y349886D01*
X61769Y349944D01*
X61715Y350008D01*
X61666Y350040D01*
X61623Y350080D01*
X61548Y350119D01*
X61478Y350166D01*
X61422Y350183D01*
X61370Y350210D01*
X61340Y350215D01*
X61340Y355473D01*
X61332Y355531D01*
X61334Y355589D01*
X61312Y355671D01*
X61300Y355755D01*
X61277Y355808D01*
X61262Y355864D01*
X61219Y355937D01*
X61184Y356014D01*
X61146Y356059D01*
X61117Y356109D01*
X61055Y356167D01*
X61001Y356231D01*
X60952Y356263D01*
X60909Y356303D01*
X60834Y356342D01*
X60764Y356389D01*
X60708Y356406D01*
X60656Y356433D01*
X60588Y356444D01*
X60493Y356474D01*
X60393Y356477D01*
X60325Y356488D01*
X53018Y356488D01*
X52946Y356531D01*
X52878Y356582D01*
X52824Y356602D01*
X52773Y356632D01*
X52691Y356653D01*
X52613Y356683D01*
X52554Y356688D01*
X52498Y356702D01*
X52413Y356699D01*
X52329Y356706D01*
X52272Y356695D01*
X52213Y356693D01*
X52133Y356667D01*
X52051Y356651D01*
X51999Y356624D01*
X51943Y356606D01*
X51887Y356566D01*
X51798Y356520D01*
X51765Y356488D01*
X39036Y356488D01*
X38978Y356480D01*
X38920Y356482D01*
X38838Y356460D01*
X38754Y356448D01*
X38701Y356425D01*
X38645Y356410D01*
X38572Y356367D01*
X38495Y356332D01*
X38450Y356294D01*
X38400Y356265D01*
X38342Y356203D01*
X38278Y356149D01*
X38246Y356100D01*
X38206Y356057D01*
X38167Y355982D01*
X38120Y355912D01*
X38103Y355856D01*
X38076Y355804D01*
X38065Y355736D01*
X38035Y355641D01*
X38032Y355541D01*
X38021Y355473D01*
X38021Y350599D01*
X37276Y349854D01*
X26224Y349854D01*
X25479Y350599D01*
X25479Y362651D01*
X26224Y363396D01*
X37276Y363396D01*
X38021Y362651D01*
X38021Y362077D01*
X38029Y362019D01*
X38027Y361961D01*
X38049Y361879D01*
X38061Y361795D01*
X38084Y361742D01*
X38099Y361686D01*
X38142Y361613D01*
X38177Y361536D01*
X38215Y361491D01*
X38244Y361441D01*
X38306Y361383D01*
X38360Y361319D01*
X38409Y361287D01*
X38452Y361247D01*
X38527Y361208D01*
X38597Y361161D01*
X38653Y361144D01*
X38705Y361117D01*
X38773Y361106D01*
X38868Y361076D01*
X38968Y361073D01*
X39036Y361062D01*
X49086Y361062D01*
X49143Y361070D01*
X49202Y361068D01*
X49283Y361090D01*
X49367Y361102D01*
X49420Y361125D01*
X49477Y361140D01*
X49549Y361183D01*
X49626Y361218D01*
X49671Y361256D01*
X49721Y361285D01*
X49779Y361347D01*
X49843Y361401D01*
X49876Y361450D01*
X49916Y361493D01*
X49954Y361568D01*
X50001Y361638D01*
X50019Y361694D01*
X50045Y361746D01*
X50057Y361814D01*
X50087Y361909D01*
X50089Y362009D01*
X50101Y362077D01*
X50101Y375597D01*
X51738Y377234D01*
X53350Y378846D01*
X53367Y378870D01*
X53390Y378889D01*
X53453Y378983D01*
X53521Y379073D01*
X53531Y379101D01*
X53547Y379125D01*
X53582Y379233D01*
X53622Y379339D01*
X53624Y379368D01*
X53633Y379396D01*
X53636Y379510D01*
X53645Y379622D01*
X53640Y379651D01*
X53640Y379680D01*
X53612Y379790D01*
X53590Y379901D01*
X53576Y379927D01*
X53569Y379955D01*
X53511Y380053D01*
X53459Y380153D01*
X53438Y380175D01*
X53423Y380200D01*
X53341Y380277D01*
X53263Y380359D01*
X53237Y380374D01*
X53216Y380394D01*
X53115Y380446D01*
X53017Y380503D01*
X52989Y380510D01*
X52963Y380524D01*
X52886Y380537D01*
X52742Y380573D01*
X52679Y380571D01*
X52632Y380579D01*
X44249Y380579D01*
X43504Y381324D01*
X43504Y393573D01*
X43496Y393631D01*
X43498Y393689D01*
X43476Y393771D01*
X43464Y393855D01*
X43441Y393908D01*
X43426Y393964D01*
X43383Y394037D01*
X43348Y394114D01*
X43310Y394159D01*
X43281Y394209D01*
X43219Y394267D01*
X43165Y394331D01*
X43116Y394363D01*
X43073Y394403D01*
X42998Y394442D01*
X42928Y394489D01*
X42872Y394506D01*
X42820Y394533D01*
X42752Y394544D01*
X42657Y394574D01*
X42557Y394577D01*
X42489Y394588D01*
X40061Y394588D01*
X40003Y394580D01*
X39945Y394582D01*
X39863Y394560D01*
X39779Y394548D01*
X39726Y394525D01*
X39670Y394510D01*
X39597Y394467D01*
X39520Y394432D01*
X39475Y394394D01*
X39425Y394365D01*
X39367Y394303D01*
X39303Y394249D01*
X39271Y394200D01*
X39231Y394157D01*
X39192Y394082D01*
X39145Y394012D01*
X39128Y393956D01*
X39101Y393904D01*
X39090Y393836D01*
X39060Y393741D01*
X39057Y393641D01*
X39046Y393573D01*
X39046Y381324D01*
X38301Y380579D01*
X27249Y380579D01*
X26504Y381324D01*
X26504Y393376D01*
X27249Y394121D01*
X29473Y394121D01*
X29531Y394129D01*
X29589Y394127D01*
X29671Y394149D01*
X29755Y394161D01*
X29808Y394184D01*
X29864Y394199D01*
X29937Y394242D01*
X30014Y394277D01*
X30059Y394315D01*
X30109Y394344D01*
X30167Y394406D01*
X30231Y394460D01*
X30263Y394509D01*
X30303Y394552D01*
X30342Y394627D01*
X30389Y394697D01*
X30406Y394753D01*
X30433Y394805D01*
X30444Y394873D01*
X30474Y394968D01*
X30477Y395068D01*
X30488Y395136D01*
X30488Y395672D01*
X33978Y399162D01*
X60325Y399162D01*
X60383Y399170D01*
X60441Y399168D01*
X60523Y399190D01*
X60607Y399202D01*
X60660Y399225D01*
X60716Y399240D01*
X60789Y399283D01*
X60866Y399318D01*
X60911Y399356D01*
X60961Y399385D01*
X61019Y399447D01*
X61083Y399501D01*
X61115Y399550D01*
X61155Y399593D01*
X61194Y399668D01*
X61241Y399738D01*
X61258Y399794D01*
X61285Y399846D01*
X61296Y399914D01*
X61326Y400009D01*
X61329Y400109D01*
X61340Y400177D01*
X61340Y411255D01*
X61336Y411284D01*
X61339Y411314D01*
X61316Y411425D01*
X61300Y411537D01*
X61288Y411564D01*
X61283Y411592D01*
X61231Y411693D01*
X61184Y411796D01*
X61165Y411819D01*
X61152Y411845D01*
X61074Y411927D01*
X61001Y412013D01*
X60976Y412029D01*
X60956Y412051D01*
X60858Y412108D01*
X60764Y412171D01*
X60736Y412180D01*
X60711Y412194D01*
X60601Y412222D01*
X60493Y412257D01*
X60463Y412257D01*
X60435Y412265D01*
X60322Y412261D01*
X60209Y412264D01*
X60180Y412256D01*
X60151Y412256D01*
X60043Y412221D01*
X59934Y412192D01*
X59908Y412177D01*
X59880Y412168D01*
X59817Y412123D01*
X59689Y412047D01*
X59646Y412001D01*
X59607Y411973D01*
X53335Y405701D01*
X52298Y405701D01*
X52241Y405693D01*
X52182Y405694D01*
X52101Y405673D01*
X52017Y405661D01*
X51964Y405637D01*
X51907Y405622D01*
X51835Y405579D01*
X51758Y405545D01*
X51713Y405507D01*
X51663Y405477D01*
X51605Y405415D01*
X51541Y405361D01*
X51508Y405312D01*
X51468Y405270D01*
X51430Y405195D01*
X51383Y405124D01*
X51365Y405069D01*
X51339Y405017D01*
X51327Y404949D01*
X51297Y404853D01*
X51295Y404754D01*
X51283Y404686D01*
X51283Y401961D01*
X50539Y401217D01*
X39486Y401217D01*
X38742Y401961D01*
X38742Y413032D01*
X38738Y413061D01*
X38740Y413090D01*
X38718Y413201D01*
X38702Y413313D01*
X38690Y413340D01*
X38684Y413369D01*
X38632Y413469D01*
X38586Y413573D01*
X38567Y413595D01*
X38553Y413621D01*
X38475Y413703D01*
X38402Y413790D01*
X38378Y413806D01*
X38357Y413827D01*
X38260Y413884D01*
X38165Y413947D01*
X38137Y413956D01*
X38112Y413971D01*
X38003Y413999D01*
X37894Y414033D01*
X37865Y414034D01*
X37837Y414041D01*
X37724Y414037D01*
X37610Y414040D01*
X37582Y414033D01*
X37552Y414032D01*
X37445Y413997D01*
X37335Y413969D01*
X37310Y413954D01*
X37282Y413945D01*
X37218Y413899D01*
X37091Y413823D01*
X37048Y413778D01*
X37009Y413750D01*
X34581Y411322D01*
X34528Y411252D01*
X34468Y411188D01*
X34443Y411139D01*
X34410Y411094D01*
X34379Y411013D01*
X34339Y410935D01*
X34331Y410887D01*
X34308Y410829D01*
X34296Y410681D01*
X34283Y410604D01*
X34283Y401961D01*
X33539Y401217D01*
X22486Y401217D01*
X21742Y401961D01*
X21742Y414014D01*
X22486Y414758D01*
X31129Y414758D01*
X31215Y414770D01*
X31303Y414773D01*
X31355Y414790D01*
X31410Y414798D01*
X31490Y414834D01*
X31573Y414861D01*
X31613Y414889D01*
X31670Y414914D01*
X31783Y415010D01*
X31847Y415056D01*
X36590Y419799D01*
X41495Y419799D01*
X41581Y419811D01*
X41669Y419814D01*
X41721Y419831D01*
X41776Y419839D01*
X41856Y419875D01*
X41939Y419902D01*
X41979Y419930D01*
X42036Y419955D01*
X42149Y420051D01*
X42213Y420097D01*
X44406Y422290D01*
X44458Y422360D01*
X44518Y422424D01*
X44544Y422473D01*
X44577Y422517D01*
X44608Y422599D01*
X44648Y422677D01*
X44656Y422724D01*
X44678Y422783D01*
X44690Y422930D01*
X44703Y423008D01*
X44703Y426182D01*
X44743Y426219D01*
X44785Y426292D01*
X44836Y426359D01*
X44857Y426414D01*
X44886Y426464D01*
X44907Y426546D01*
X44937Y426625D01*
X44942Y426683D01*
X44956Y426740D01*
X44954Y426824D01*
X44961Y426908D01*
X44949Y426966D01*
X44947Y427024D01*
X44921Y427104D01*
X44905Y427187D01*
X44878Y427239D01*
X44860Y427295D01*
X44820Y427351D01*
X44774Y427439D01*
X44705Y427512D01*
X44703Y427514D01*
X44703Y427548D01*
X44695Y427606D01*
X44697Y427664D01*
X44675Y427746D01*
X44663Y427830D01*
X44640Y427883D01*
X44625Y427939D01*
X44582Y428012D01*
X44547Y428089D01*
X44509Y428134D01*
X44480Y428184D01*
X44418Y428242D01*
X44364Y428306D01*
X44315Y428338D01*
X44272Y428378D01*
X44197Y428417D01*
X44127Y428464D01*
X44071Y428481D01*
X44019Y428508D01*
X43951Y428519D01*
X43856Y428549D01*
X43756Y428552D01*
X43688Y428563D01*
X42773Y428563D01*
X42716Y428555D01*
X42657Y428557D01*
X42576Y428535D01*
X42492Y428523D01*
X42439Y428500D01*
X42382Y428485D01*
X42310Y428442D01*
X42233Y428407D01*
X42188Y428369D01*
X42138Y428340D01*
X42080Y428278D01*
X42016Y428224D01*
X41983Y428175D01*
X41943Y428132D01*
X41905Y428057D01*
X41858Y427987D01*
X41840Y427931D01*
X41814Y427879D01*
X41802Y427811D01*
X41772Y427716D01*
X41770Y427616D01*
X41758Y427548D01*
X41758Y425774D01*
X41014Y425029D01*
X29961Y425029D01*
X29217Y425774D01*
X29217Y437826D01*
X29961Y438571D01*
X41014Y438571D01*
X41758Y437826D01*
X41758Y434152D01*
X41766Y434094D01*
X41765Y434036D01*
X41786Y433954D01*
X41798Y433870D01*
X41822Y433817D01*
X41837Y433761D01*
X41880Y433688D01*
X41914Y433611D01*
X41952Y433566D01*
X41982Y433516D01*
X42044Y433458D01*
X42098Y433394D01*
X42147Y433362D01*
X42189Y433322D01*
X42264Y433283D01*
X42335Y433236D01*
X42390Y433219D01*
X42442Y433192D01*
X42510Y433181D01*
X42606Y433151D01*
X42705Y433148D01*
X42773Y433137D01*
X43688Y433137D01*
X43746Y433145D01*
X43804Y433143D01*
X43886Y433165D01*
X43970Y433177D01*
X44023Y433200D01*
X44079Y433215D01*
X44152Y433258D01*
X44229Y433293D01*
X44274Y433331D01*
X44324Y433360D01*
X44382Y433422D01*
X44446Y433476D01*
X44478Y433525D01*
X44518Y433568D01*
X44557Y433643D01*
X44604Y433713D01*
X44621Y433769D01*
X44648Y433821D01*
X44659Y433889D01*
X44689Y433984D01*
X44692Y434084D01*
X44703Y434152D01*
X44703Y434182D01*
X44743Y434219D01*
X44785Y434292D01*
X44836Y434359D01*
X44857Y434414D01*
X44886Y434464D01*
X44907Y434546D01*
X44937Y434625D01*
X44942Y434683D01*
X44956Y434740D01*
X44954Y434824D01*
X44961Y434908D01*
X44949Y434966D01*
X44947Y435024D01*
X44921Y435104D01*
X44905Y435187D01*
X44878Y435239D01*
X44860Y435295D01*
X44820Y435351D01*
X44774Y435439D01*
X44705Y435512D01*
X44703Y435514D01*
X44703Y442182D01*
X44743Y442219D01*
X44785Y442292D01*
X44836Y442359D01*
X44857Y442414D01*
X44886Y442464D01*
X44907Y442546D01*
X44937Y442625D01*
X44942Y442683D01*
X44956Y442740D01*
X44954Y442824D01*
X44961Y442908D01*
X44949Y442966D01*
X44947Y443024D01*
X44921Y443104D01*
X44905Y443187D01*
X44878Y443239D01*
X44860Y443295D01*
X44820Y443351D01*
X44774Y443439D01*
X44705Y443512D01*
X44665Y443568D01*
X44475Y443758D01*
X44405Y443810D01*
X44341Y443870D01*
X44292Y443896D01*
X44248Y443929D01*
X44166Y443960D01*
X44088Y444000D01*
X44041Y444008D01*
X43982Y444030D01*
X43834Y444042D01*
X43757Y444055D01*
X36742Y444055D01*
X35770Y445028D01*
X35746Y445045D01*
X35727Y445068D01*
X35633Y445131D01*
X35543Y445199D01*
X35515Y445209D01*
X35491Y445225D01*
X35383Y445260D01*
X35277Y445300D01*
X35248Y445302D01*
X35220Y445311D01*
X35106Y445314D01*
X34994Y445323D01*
X34965Y445318D01*
X34936Y445318D01*
X34826Y445290D01*
X34715Y445268D01*
X34689Y445254D01*
X34661Y445247D01*
X34563Y445189D01*
X34463Y445137D01*
X34441Y445116D01*
X34416Y445101D01*
X34339Y445019D01*
X34257Y444941D01*
X34242Y444915D01*
X34222Y444894D01*
X34170Y444793D01*
X34113Y444696D01*
X34106Y444667D01*
X34092Y444641D01*
X34079Y444564D01*
X34043Y444420D01*
X34045Y444358D01*
X34037Y444310D01*
X34037Y443553D01*
X31110Y440626D01*
X22005Y440626D01*
X21919Y440614D01*
X21832Y440611D01*
X21779Y440594D01*
X21724Y440586D01*
X21644Y440550D01*
X21561Y440524D01*
X21522Y440495D01*
X21464Y440470D01*
X21352Y440374D01*
X21288Y440329D01*
X21263Y440304D01*
X21253Y440291D01*
X21247Y440286D01*
X21242Y440277D01*
X21223Y440261D01*
X21160Y440168D01*
X21092Y440077D01*
X21082Y440050D01*
X21065Y440025D01*
X21031Y439917D01*
X20991Y439812D01*
X20988Y439782D01*
X20979Y439754D01*
X20976Y439641D01*
X20967Y439528D01*
X20973Y439499D01*
X20972Y439470D01*
X21001Y439361D01*
X21023Y439250D01*
X21036Y439223D01*
X21044Y439195D01*
X21102Y439098D01*
X21154Y438997D01*
X21174Y438976D01*
X21189Y438950D01*
X21271Y438873D01*
X21349Y438791D01*
X21375Y438776D01*
X21396Y438756D01*
X21497Y438704D01*
X21594Y438647D01*
X21623Y438640D01*
X21650Y438626D01*
X21727Y438613D01*
X21870Y438577D01*
X21933Y438579D01*
X21981Y438571D01*
X24014Y438571D01*
X24758Y437826D01*
X24758Y425774D01*
X24014Y425029D01*
X12961Y425029D01*
X12217Y425774D01*
X12217Y437826D01*
X12961Y438571D01*
X15186Y438571D01*
X15243Y438579D01*
X15302Y438577D01*
X15383Y438599D01*
X15467Y438611D01*
X15520Y438634D01*
X15577Y438649D01*
X15649Y438692D01*
X15726Y438727D01*
X15771Y438765D01*
X15821Y438794D01*
X15879Y438856D01*
X15943Y438910D01*
X15976Y438959D01*
X16016Y439002D01*
X16054Y439077D01*
X16101Y439147D01*
X16119Y439203D01*
X16145Y439255D01*
X16157Y439323D01*
X16187Y439418D01*
X16189Y439518D01*
X16201Y439586D01*
X16201Y441710D01*
X19690Y445199D01*
X24803Y445199D01*
X24832Y445203D01*
X24861Y445201D01*
X24972Y445223D01*
X25084Y445239D01*
X25111Y445251D01*
X25140Y445257D01*
X25240Y445309D01*
X25344Y445355D01*
X25366Y445374D01*
X25392Y445388D01*
X25474Y445466D01*
X25561Y445539D01*
X25577Y445563D01*
X25598Y445584D01*
X25655Y445681D01*
X25718Y445776D01*
X25727Y445804D01*
X25742Y445829D01*
X25770Y445939D01*
X25804Y446047D01*
X25805Y446076D01*
X25812Y446104D01*
X25808Y446218D01*
X25811Y446331D01*
X25804Y446359D01*
X25803Y446389D01*
X25768Y446496D01*
X25739Y446606D01*
X25724Y446631D01*
X25715Y446659D01*
X25670Y446723D01*
X25594Y446850D01*
X25549Y446893D01*
X25542Y446903D01*
X25542Y457964D01*
X26286Y458708D01*
X38339Y458708D01*
X39083Y457964D01*
X39083Y450660D01*
X39091Y450602D01*
X39090Y450544D01*
X39111Y450462D01*
X39123Y450378D01*
X39147Y450325D01*
X39162Y450269D01*
X39205Y450196D01*
X39239Y450119D01*
X39277Y450074D01*
X39307Y450024D01*
X39369Y449966D01*
X39423Y449902D01*
X39472Y449870D01*
X39514Y449830D01*
X39589Y449791D01*
X39660Y449744D01*
X39715Y449727D01*
X39767Y449700D01*
X39835Y449689D01*
X39931Y449659D01*
X40030Y449656D01*
X40098Y449645D01*
X43757Y449645D01*
X43844Y449657D01*
X43931Y449660D01*
X43984Y449677D01*
X44039Y449685D01*
X44118Y449720D01*
X44202Y449747D01*
X44241Y449775D01*
X44298Y449801D01*
X44411Y449897D01*
X44475Y449942D01*
X44665Y450132D01*
X44700Y450179D01*
X44743Y450219D01*
X44785Y450292D01*
X44836Y450359D01*
X44857Y450414D01*
X44886Y450464D01*
X44907Y450546D01*
X44937Y450625D01*
X44942Y450683D01*
X44956Y450740D01*
X44954Y450824D01*
X44961Y450908D01*
X44949Y450966D01*
X44947Y451024D01*
X44921Y451104D01*
X44905Y451187D01*
X44878Y451239D01*
X44860Y451295D01*
X44820Y451351D01*
X44774Y451439D01*
X44705Y451512D01*
X44703Y451514D01*
X44703Y458182D01*
X44743Y458219D01*
X44785Y458292D01*
X44836Y458359D01*
X44857Y458414D01*
X44886Y458464D01*
X44907Y458546D01*
X44937Y458625D01*
X44942Y458683D01*
X44956Y458740D01*
X44954Y458824D01*
X44961Y458908D01*
X44949Y458966D01*
X44947Y459024D01*
X44921Y459104D01*
X44905Y459187D01*
X44878Y459239D01*
X44860Y459295D01*
X44820Y459351D01*
X44774Y459439D01*
X44705Y459512D01*
X44703Y459514D01*
X44703Y459548D01*
X44696Y459597D01*
X44697Y459606D01*
X44695Y459612D01*
X44697Y459664D01*
X44675Y459746D01*
X44663Y459830D01*
X44640Y459883D01*
X44625Y459939D01*
X44582Y460012D01*
X44547Y460089D01*
X44509Y460134D01*
X44480Y460184D01*
X44418Y460242D01*
X44364Y460306D01*
X44315Y460338D01*
X44272Y460378D01*
X44197Y460417D01*
X44127Y460464D01*
X44071Y460481D01*
X44019Y460508D01*
X43951Y460519D01*
X43856Y460549D01*
X43756Y460552D01*
X43688Y460563D01*
X41590Y460563D01*
X36147Y466007D01*
X36077Y466059D01*
X36013Y466119D01*
X35964Y466145D01*
X35920Y466178D01*
X35838Y466209D01*
X35760Y466249D01*
X35712Y466257D01*
X35654Y466279D01*
X35506Y466291D01*
X35429Y466304D01*
X26786Y466304D01*
X26042Y467049D01*
X26042Y479101D01*
X26786Y479846D01*
X37973Y479846D01*
X38031Y479854D01*
X38089Y479852D01*
X38171Y479874D01*
X38255Y479886D01*
X38308Y479909D01*
X38364Y479924D01*
X38437Y479967D01*
X38514Y480002D01*
X38559Y480040D01*
X38609Y480069D01*
X38667Y480131D01*
X38731Y480185D01*
X38763Y480234D01*
X38803Y480277D01*
X38842Y480352D01*
X38889Y480422D01*
X38906Y480478D01*
X38933Y480530D01*
X38944Y480598D01*
X38974Y480693D01*
X38977Y480793D01*
X38988Y480861D01*
X38988Y501650D01*
X38980Y501708D01*
X38982Y501766D01*
X38960Y501848D01*
X38948Y501932D01*
X38925Y501985D01*
X38910Y502041D01*
X38867Y502114D01*
X38832Y502191D01*
X38794Y502236D01*
X38765Y502286D01*
X38703Y502344D01*
X38649Y502408D01*
X38600Y502440D01*
X38557Y502480D01*
X38482Y502519D01*
X38412Y502566D01*
X38356Y502583D01*
X38304Y502610D01*
X38236Y502621D01*
X38141Y502651D01*
X38041Y502654D01*
X37973Y502665D01*
X4191Y502665D01*
X4133Y502657D01*
X4075Y502659D01*
X3993Y502637D01*
X3909Y502625D01*
X3856Y502602D01*
X3800Y502587D01*
X3727Y502544D01*
X3650Y502509D01*
X3605Y502471D01*
X3555Y502442D01*
X3497Y502380D01*
X3433Y502326D01*
X3401Y502277D01*
X3361Y502234D01*
X3322Y502159D01*
X3275Y502089D01*
X3258Y502033D01*
X3231Y501981D01*
X3220Y501913D01*
X3190Y501818D01*
X3187Y501718D01*
X3176Y501650D01*
X3176Y375573D01*
X3180Y375544D01*
X3177Y375515D01*
X3200Y375404D01*
X3216Y375292D01*
X3228Y375265D01*
X3233Y375236D01*
X3286Y375136D01*
X3332Y375032D01*
X3351Y375010D01*
X3364Y374984D01*
X3442Y374902D01*
X3515Y374815D01*
X3540Y374799D01*
X3560Y374778D01*
X3658Y374721D01*
X3752Y374658D01*
X3780Y374649D01*
X3805Y374634D01*
X3915Y374606D01*
X4023Y374572D01*
X4053Y374571D01*
X4081Y374564D01*
X4194Y374568D01*
X4307Y374565D01*
X4336Y374572D01*
X4365Y374573D01*
X4473Y374608D01*
X4582Y374636D01*
X4608Y374651D01*
X4636Y374660D01*
X4699Y374706D01*
X4827Y374782D01*
X4870Y374827D01*
X4909Y374855D01*
X7553Y377499D01*
X8089Y377499D01*
X8147Y377507D01*
X8205Y377506D01*
X8287Y377527D01*
X8371Y377539D01*
X8424Y377563D01*
X8480Y377578D01*
X8553Y377621D01*
X8630Y377655D01*
X8675Y377693D01*
X8725Y377723D01*
X8783Y377785D01*
X8847Y377839D01*
X8879Y377888D01*
X8919Y377930D01*
X8958Y378005D01*
X9005Y378076D01*
X9022Y378131D01*
X9049Y378183D01*
X9060Y378251D01*
X9090Y378347D01*
X9093Y378446D01*
X9104Y378514D01*
X9104Y380739D01*
X9849Y381483D01*
X21901Y381483D01*
X22646Y380739D01*
X22646Y369686D01*
X21901Y368942D01*
X9849Y368942D01*
X9104Y369686D01*
X9104Y370132D01*
X9100Y370161D01*
X9103Y370191D01*
X9080Y370301D01*
X9064Y370413D01*
X9052Y370440D01*
X9046Y370469D01*
X8994Y370570D01*
X8948Y370673D01*
X8929Y370695D01*
X8915Y370722D01*
X8838Y370803D01*
X8765Y370890D01*
X8740Y370906D01*
X8719Y370928D01*
X8622Y370985D01*
X8528Y371047D01*
X8500Y371056D01*
X8474Y371071D01*
X8365Y371099D01*
X8257Y371133D01*
X8227Y371134D01*
X8198Y371141D01*
X8085Y371138D01*
X7973Y371140D01*
X7944Y371133D01*
X7914Y371132D01*
X7807Y371097D01*
X7698Y371069D01*
X7672Y371053D01*
X7644Y371044D01*
X7580Y370999D01*
X7453Y370923D01*
X7432Y370901D01*
X7429Y370899D01*
X7406Y370874D01*
X7371Y370849D01*
X7346Y370825D01*
X7294Y370755D01*
X7234Y370691D01*
X7209Y370642D01*
X7175Y370597D01*
X7144Y370516D01*
X7105Y370438D01*
X7097Y370390D01*
X7074Y370332D01*
X7062Y370185D01*
X7049Y370107D01*
X7049Y315286D01*
X7057Y315234D01*
X7056Y315208D01*
X7057Y315205D01*
X7056Y315170D01*
X7077Y315088D01*
X7089Y315004D01*
X7113Y314951D01*
X7128Y314895D01*
X7171Y314822D01*
X7205Y314745D01*
X7243Y314700D01*
X7273Y314650D01*
X7335Y314592D01*
X7389Y314528D01*
X7438Y314496D01*
X7480Y314456D01*
X7555Y314417D01*
X7626Y314370D01*
X7681Y314353D01*
X7733Y314326D01*
X7801Y314315D01*
X7897Y314285D01*
X7996Y314282D01*
X8064Y314271D01*
X21926Y314271D01*
X22671Y313526D01*
X22671Y302474D01*
X21926Y301729D01*
X20202Y301729D01*
X20144Y301721D01*
X20086Y301723D01*
X20004Y301701D01*
X19920Y301689D01*
X19867Y301666D01*
X19811Y301651D01*
X19738Y301608D01*
X19661Y301573D01*
X19616Y301535D01*
X19566Y301506D01*
X19508Y301444D01*
X19444Y301390D01*
X19412Y301341D01*
X19372Y301298D01*
X19333Y301223D01*
X19286Y301153D01*
X19269Y301097D01*
X19242Y301045D01*
X19231Y300977D01*
X19201Y300882D01*
X19198Y300782D01*
X19187Y300714D01*
X19187Y299886D01*
X19195Y299828D01*
X19193Y299770D01*
X19215Y299688D01*
X19227Y299604D01*
X19250Y299551D01*
X19265Y299495D01*
X19308Y299422D01*
X19343Y299345D01*
X19381Y299300D01*
X19410Y299250D01*
X19472Y299192D01*
X19526Y299128D01*
X19575Y299096D01*
X19618Y299056D01*
X19693Y299017D01*
X19763Y298970D01*
X19819Y298953D01*
X19871Y298926D01*
X19939Y298915D01*
X20034Y298885D01*
X20134Y298882D01*
X20202Y298871D01*
X22426Y298871D01*
X23171Y298126D01*
X23171Y286074D01*
X22426Y285329D01*
X20456Y285329D01*
X20398Y285321D01*
X20340Y285323D01*
X20258Y285301D01*
X20174Y285289D01*
X20121Y285266D01*
X20065Y285251D01*
X19992Y285208D01*
X19915Y285173D01*
X19870Y285135D01*
X19820Y285106D01*
X19762Y285044D01*
X19698Y284990D01*
X19666Y284941D01*
X19626Y284898D01*
X19587Y284823D01*
X19540Y284753D01*
X19523Y284697D01*
X19496Y284645D01*
X19485Y284577D01*
X19455Y284482D01*
X19452Y284382D01*
X19441Y284314D01*
X19441Y280698D01*
X19449Y280641D01*
X19447Y280582D01*
X19469Y280501D01*
X19481Y280417D01*
X19504Y280364D01*
X19519Y280307D01*
X19562Y280235D01*
X19597Y280158D01*
X19635Y280113D01*
X19664Y280063D01*
X19726Y280005D01*
X19780Y279941D01*
X19829Y279908D01*
X19872Y279868D01*
X19947Y279830D01*
X20017Y279783D01*
X20073Y279765D01*
X20125Y279739D01*
X20193Y279727D01*
X20288Y279697D01*
X20388Y279695D01*
X20456Y279683D01*
X34514Y279683D01*
X35258Y278939D01*
X35258Y274714D01*
X35266Y274657D01*
X35265Y274598D01*
X35286Y274517D01*
X35298Y274433D01*
X35322Y274380D01*
X35337Y274323D01*
X35380Y274251D01*
X35414Y274174D01*
X35452Y274129D01*
X35482Y274079D01*
X35544Y274021D01*
X35598Y273957D01*
X35647Y273924D01*
X35689Y273884D01*
X35764Y273846D01*
X35835Y273799D01*
X35890Y273781D01*
X35942Y273755D01*
X36010Y273743D01*
X36106Y273713D01*
X36205Y273711D01*
X36273Y273699D01*
X46038Y273699D01*
X46095Y273707D01*
G37*
G36*
X112533Y545097D02*
X112533Y545097D01*
X112620Y545100D01*
X112673Y545117D01*
X112728Y545125D01*
X112807Y545160D01*
X112891Y545187D01*
X112930Y545215D01*
X112987Y545241D01*
X113100Y545337D01*
X113164Y545382D01*
X116985Y549203D01*
X118127Y549203D01*
X118184Y549211D01*
X118243Y549210D01*
X118324Y549231D01*
X118408Y549243D01*
X118461Y549267D01*
X118518Y549282D01*
X118590Y549325D01*
X118667Y549359D01*
X118712Y549397D01*
X118762Y549427D01*
X118820Y549489D01*
X118884Y549543D01*
X118917Y549592D01*
X118957Y549634D01*
X118995Y549709D01*
X119042Y549780D01*
X119060Y549835D01*
X119086Y549887D01*
X119098Y549955D01*
X119128Y550051D01*
X119130Y550150D01*
X119142Y550218D01*
X119142Y552689D01*
X119886Y553433D01*
X130939Y553433D01*
X131683Y552689D01*
X131683Y546100D01*
X131691Y546042D01*
X131690Y545984D01*
X131711Y545902D01*
X131723Y545819D01*
X131747Y545765D01*
X131762Y545709D01*
X131805Y545636D01*
X131839Y545559D01*
X131877Y545514D01*
X131907Y545464D01*
X131969Y545406D01*
X132023Y545342D01*
X132072Y545310D01*
X132114Y545270D01*
X132189Y545231D01*
X132260Y545185D01*
X132315Y545167D01*
X132367Y545140D01*
X132435Y545129D01*
X132531Y545099D01*
X132630Y545096D01*
X132698Y545085D01*
X136618Y545085D01*
X136704Y545097D01*
X136792Y545100D01*
X136844Y545117D01*
X136899Y545125D01*
X136979Y545160D01*
X137062Y545187D01*
X137102Y545215D01*
X137159Y545241D01*
X137272Y545337D01*
X137336Y545382D01*
X140340Y548387D01*
X156522Y548387D01*
X159400Y545509D01*
X159470Y545457D01*
X159534Y545397D01*
X159583Y545371D01*
X159627Y545338D01*
X159709Y545307D01*
X159787Y545267D01*
X159834Y545259D01*
X159893Y545237D01*
X160040Y545225D01*
X160118Y545212D01*
X193548Y545212D01*
X193606Y545220D01*
X193664Y545218D01*
X193746Y545240D01*
X193830Y545252D01*
X193883Y545275D01*
X193939Y545290D01*
X194012Y545333D01*
X194089Y545368D01*
X194134Y545406D01*
X194184Y545435D01*
X194242Y545497D01*
X194306Y545551D01*
X194338Y545600D01*
X194378Y545643D01*
X194417Y545718D01*
X194464Y545788D01*
X194481Y545844D01*
X194508Y545896D01*
X194519Y545964D01*
X194549Y546059D01*
X194552Y546159D01*
X194563Y546227D01*
X194563Y576263D01*
X194555Y576320D01*
X194557Y576379D01*
X194535Y576460D01*
X194523Y576544D01*
X194500Y576597D01*
X194485Y576654D01*
X194442Y576726D01*
X194407Y576803D01*
X194369Y576848D01*
X194340Y576898D01*
X194278Y576956D01*
X194224Y577020D01*
X194175Y577053D01*
X194132Y577093D01*
X194057Y577131D01*
X193987Y577178D01*
X193931Y577196D01*
X193879Y577222D01*
X193811Y577234D01*
X193716Y577264D01*
X193616Y577266D01*
X193548Y577278D01*
X145478Y577278D01*
X145478Y678434D01*
X145470Y678492D01*
X145471Y678550D01*
X145450Y678632D01*
X145438Y678716D01*
X145414Y678769D01*
X145399Y678825D01*
X145356Y678898D01*
X145322Y678975D01*
X145284Y679020D01*
X145254Y679070D01*
X145192Y679128D01*
X145138Y679192D01*
X145089Y679224D01*
X145047Y679264D01*
X144972Y679303D01*
X144901Y679350D01*
X144846Y679367D01*
X144794Y679394D01*
X144726Y679405D01*
X144630Y679435D01*
X144531Y679438D01*
X144463Y679449D01*
X103188Y679449D01*
X103130Y679441D01*
X103071Y679443D01*
X102990Y679421D01*
X102906Y679409D01*
X102853Y679386D01*
X102796Y679371D01*
X102724Y679328D01*
X102647Y679293D01*
X102602Y679255D01*
X102552Y679226D01*
X102494Y679164D01*
X102430Y679110D01*
X102397Y679061D01*
X102357Y679018D01*
X102319Y678943D01*
X102272Y678873D01*
X102254Y678817D01*
X102228Y678765D01*
X102216Y678697D01*
X102186Y678602D01*
X102184Y678502D01*
X102172Y678434D01*
X102172Y562386D01*
X102180Y562328D01*
X102179Y562270D01*
X102200Y562188D01*
X102212Y562104D01*
X102236Y562051D01*
X102251Y561995D01*
X102294Y561922D01*
X102328Y561845D01*
X102366Y561800D01*
X102396Y561750D01*
X102458Y561692D01*
X102512Y561628D01*
X102561Y561596D01*
X102603Y561556D01*
X102678Y561517D01*
X102749Y561470D01*
X102804Y561453D01*
X102856Y561426D01*
X102924Y561415D01*
X103020Y561385D01*
X103119Y561382D01*
X103188Y561371D01*
X110301Y561371D01*
X111046Y560626D01*
X111046Y548574D01*
X110301Y547829D01*
X103188Y547829D01*
X103130Y547821D01*
X103071Y547823D01*
X102990Y547801D01*
X102906Y547789D01*
X102853Y547766D01*
X102796Y547751D01*
X102724Y547708D01*
X102647Y547673D01*
X102602Y547635D01*
X102552Y547606D01*
X102494Y547544D01*
X102430Y547490D01*
X102397Y547441D01*
X102357Y547398D01*
X102319Y547323D01*
X102272Y547253D01*
X102254Y547197D01*
X102228Y547145D01*
X102216Y547077D01*
X102186Y546982D01*
X102184Y546882D01*
X102172Y546814D01*
X102172Y546100D01*
X102180Y546042D01*
X102179Y545984D01*
X102200Y545902D01*
X102212Y545819D01*
X102236Y545765D01*
X102251Y545709D01*
X102294Y545636D01*
X102328Y545559D01*
X102366Y545514D01*
X102396Y545464D01*
X102458Y545406D01*
X102512Y545342D01*
X102561Y545310D01*
X102603Y545270D01*
X102678Y545231D01*
X102749Y545185D01*
X102804Y545167D01*
X102856Y545140D01*
X102924Y545129D01*
X103020Y545099D01*
X103119Y545096D01*
X103188Y545085D01*
X112446Y545085D01*
X112533Y545097D01*
G37*
G36*
X116034Y154568D02*
X116034Y154568D01*
X116093Y154566D01*
X116174Y154588D01*
X116258Y154600D01*
X116311Y154624D01*
X116368Y154638D01*
X116440Y154681D01*
X116517Y154716D01*
X116562Y154754D01*
X116612Y154784D01*
X116670Y154845D01*
X116734Y154900D01*
X116767Y154948D01*
X116807Y154991D01*
X116845Y155066D01*
X116892Y155136D01*
X116910Y155192D01*
X116936Y155244D01*
X116948Y155312D01*
X116978Y155407D01*
X116980Y155507D01*
X116992Y155575D01*
X116992Y160519D01*
X116984Y160577D01*
X116985Y160635D01*
X116964Y160717D01*
X116952Y160801D01*
X116928Y160854D01*
X116913Y160910D01*
X116870Y160983D01*
X116836Y161060D01*
X116798Y161105D01*
X116768Y161155D01*
X116706Y161213D01*
X116652Y161277D01*
X116603Y161309D01*
X116561Y161349D01*
X116486Y161388D01*
X116415Y161435D01*
X116360Y161452D01*
X116308Y161479D01*
X116240Y161490D01*
X116144Y161520D01*
X116045Y161523D01*
X115977Y161534D01*
X114148Y161534D01*
X114091Y161526D01*
X114032Y161528D01*
X113951Y161506D01*
X113867Y161494D01*
X113814Y161471D01*
X113757Y161456D01*
X113685Y161413D01*
X113608Y161378D01*
X113563Y161340D01*
X113513Y161311D01*
X113455Y161249D01*
X113391Y161195D01*
X113358Y161146D01*
X113318Y161103D01*
X113280Y161028D01*
X113233Y160958D01*
X113215Y160902D01*
X113189Y160850D01*
X113177Y160782D01*
X113147Y160687D01*
X113145Y160587D01*
X113133Y160519D01*
X113133Y158549D01*
X112389Y157804D01*
X100336Y157804D01*
X99592Y158549D01*
X99592Y169601D01*
X100336Y170346D01*
X112389Y170346D01*
X113133Y169601D01*
X113133Y167631D01*
X113141Y167573D01*
X113140Y167515D01*
X113161Y167433D01*
X113173Y167349D01*
X113197Y167296D01*
X113212Y167240D01*
X113255Y167167D01*
X113289Y167090D01*
X113327Y167045D01*
X113357Y166995D01*
X113419Y166937D01*
X113473Y166873D01*
X113522Y166841D01*
X113564Y166801D01*
X113639Y166762D01*
X113710Y166715D01*
X113765Y166698D01*
X113817Y166671D01*
X113885Y166660D01*
X113981Y166630D01*
X114080Y166627D01*
X114148Y166616D01*
X116823Y166616D01*
X116910Y166628D01*
X116997Y166631D01*
X117050Y166648D01*
X117105Y166656D01*
X117184Y166691D01*
X117268Y166718D01*
X117307Y166746D01*
X117364Y166772D01*
X117477Y166868D01*
X117541Y166913D01*
X117736Y167108D01*
X119231Y167108D01*
X119260Y167112D01*
X119289Y167110D01*
X119401Y167132D01*
X119513Y167148D01*
X119539Y167160D01*
X119568Y167166D01*
X119669Y167218D01*
X119772Y167264D01*
X119794Y167283D01*
X119821Y167297D01*
X119903Y167375D01*
X119989Y167448D01*
X120005Y167472D01*
X120027Y167493D01*
X120084Y167590D01*
X120147Y167685D01*
X120156Y167713D01*
X120170Y167738D01*
X120198Y167848D01*
X120232Y167956D01*
X120233Y167985D01*
X120240Y168013D01*
X120237Y168126D01*
X120240Y168240D01*
X120232Y168268D01*
X120231Y168298D01*
X120196Y168406D01*
X120168Y168515D01*
X120153Y168540D01*
X120144Y168568D01*
X120098Y168632D01*
X120023Y168759D01*
X119977Y168802D01*
X119949Y168841D01*
X119579Y169211D01*
X119579Y179264D01*
X120324Y180008D01*
X127376Y180008D01*
X128121Y179264D01*
X128121Y169211D01*
X127751Y168841D01*
X127733Y168818D01*
X127711Y168799D01*
X127648Y168705D01*
X127580Y168614D01*
X127570Y168587D01*
X127553Y168562D01*
X127519Y168454D01*
X127479Y168349D01*
X127476Y168319D01*
X127468Y168291D01*
X127465Y168178D01*
X127455Y168065D01*
X127461Y168037D01*
X127460Y168007D01*
X127489Y167898D01*
X127511Y167786D01*
X127525Y167760D01*
X127532Y167732D01*
X127590Y167635D01*
X127642Y167534D01*
X127662Y167513D01*
X127677Y167488D01*
X127760Y167410D01*
X127838Y167328D01*
X127863Y167313D01*
X127885Y167293D01*
X127986Y167242D01*
X128083Y167184D01*
X128112Y167177D01*
X128138Y167164D01*
X128215Y167151D01*
X128359Y167114D01*
X128421Y167116D01*
X128469Y167108D01*
X128789Y167108D01*
X129533Y166364D01*
X129533Y155575D01*
X129541Y155517D01*
X129540Y155459D01*
X129561Y155377D01*
X129573Y155294D01*
X129597Y155240D01*
X129612Y155184D01*
X129655Y155111D01*
X129689Y155034D01*
X129727Y154989D01*
X129757Y154939D01*
X129819Y154881D01*
X129873Y154817D01*
X129922Y154785D01*
X129964Y154745D01*
X130039Y154706D01*
X130110Y154660D01*
X130165Y154642D01*
X130217Y154615D01*
X130285Y154604D01*
X130381Y154574D01*
X130480Y154571D01*
X130548Y154560D01*
X139700Y154560D01*
X139758Y154568D01*
X139816Y154566D01*
X139898Y154588D01*
X139982Y154600D01*
X140035Y154624D01*
X140091Y154638D01*
X140164Y154681D01*
X140241Y154716D01*
X140286Y154754D01*
X140336Y154784D01*
X140394Y154845D01*
X140458Y154900D01*
X140490Y154948D01*
X140530Y154991D01*
X140569Y155066D01*
X140616Y155136D01*
X140633Y155192D01*
X140660Y155244D01*
X140671Y155312D01*
X140701Y155407D01*
X140704Y155507D01*
X140715Y155575D01*
X140715Y165100D01*
X140707Y165158D01*
X140709Y165216D01*
X140687Y165298D01*
X140675Y165382D01*
X140652Y165435D01*
X140637Y165491D01*
X140594Y165564D01*
X140559Y165641D01*
X140521Y165686D01*
X140492Y165736D01*
X140430Y165794D01*
X140376Y165858D01*
X140327Y165890D01*
X140284Y165930D01*
X140209Y165969D01*
X140139Y166016D01*
X140083Y166033D01*
X140031Y166060D01*
X139963Y166071D01*
X139868Y166101D01*
X139768Y166104D01*
X139700Y166115D01*
X135953Y166115D01*
X135953Y190452D01*
X135945Y190509D01*
X135946Y190568D01*
X135925Y190649D01*
X135913Y190733D01*
X135889Y190786D01*
X135874Y190843D01*
X135831Y190915D01*
X135797Y190992D01*
X135759Y191037D01*
X135729Y191087D01*
X135667Y191145D01*
X135613Y191209D01*
X135564Y191242D01*
X135522Y191282D01*
X135447Y191320D01*
X135376Y191367D01*
X135321Y191385D01*
X135269Y191411D01*
X135201Y191423D01*
X135105Y191453D01*
X135006Y191455D01*
X134938Y191467D01*
X129644Y191467D01*
X129638Y191468D01*
X129580Y191490D01*
X129432Y191502D01*
X129355Y191515D01*
X127845Y191515D01*
X127759Y191503D01*
X127671Y191500D01*
X127618Y191483D01*
X127564Y191475D01*
X127544Y191467D01*
X120144Y191467D01*
X120138Y191468D01*
X120080Y191490D01*
X119932Y191502D01*
X119855Y191515D01*
X117483Y191515D01*
X117454Y191511D01*
X117425Y191514D01*
X117314Y191491D01*
X117201Y191475D01*
X117175Y191463D01*
X117146Y191458D01*
X117045Y191406D01*
X116942Y191359D01*
X116920Y191340D01*
X116894Y191327D01*
X116811Y191249D01*
X116725Y191176D01*
X116709Y191151D01*
X116687Y191131D01*
X116630Y191033D01*
X116567Y190939D01*
X116558Y190911D01*
X116544Y190886D01*
X116516Y190776D01*
X116482Y190668D01*
X116481Y190638D01*
X116474Y190610D01*
X116477Y190497D01*
X116474Y190384D01*
X116482Y190355D01*
X116483Y190326D01*
X116518Y190218D01*
X116546Y190109D01*
X116561Y190083D01*
X116570Y190055D01*
X116616Y189992D01*
X116691Y189864D01*
X116737Y189821D01*
X116765Y189782D01*
X116871Y189676D01*
X116871Y178624D01*
X116126Y177879D01*
X104074Y177879D01*
X103329Y178624D01*
X103329Y189676D01*
X103435Y189782D01*
X103453Y189806D01*
X103475Y189825D01*
X103538Y189919D01*
X103606Y190009D01*
X103616Y190037D01*
X103633Y190061D01*
X103667Y190169D01*
X103707Y190275D01*
X103710Y190304D01*
X103718Y190332D01*
X103721Y190446D01*
X103731Y190558D01*
X103725Y190587D01*
X103726Y190616D01*
X103697Y190726D01*
X103675Y190837D01*
X103661Y190863D01*
X103654Y190891D01*
X103596Y190989D01*
X103544Y191089D01*
X103524Y191111D01*
X103509Y191136D01*
X103426Y191213D01*
X103348Y191295D01*
X103323Y191310D01*
X103301Y191330D01*
X103200Y191382D01*
X103103Y191439D01*
X103074Y191446D01*
X103048Y191460D01*
X102971Y191473D01*
X102827Y191509D01*
X102765Y191507D01*
X102717Y191515D01*
X100483Y191515D01*
X100454Y191511D01*
X100425Y191514D01*
X100314Y191491D01*
X100201Y191475D01*
X100175Y191463D01*
X100146Y191458D01*
X100045Y191406D01*
X99942Y191359D01*
X99920Y191340D01*
X99894Y191327D01*
X99811Y191249D01*
X99725Y191176D01*
X99709Y191151D01*
X99687Y191131D01*
X99630Y191033D01*
X99567Y190939D01*
X99558Y190911D01*
X99544Y190886D01*
X99516Y190776D01*
X99482Y190668D01*
X99481Y190638D01*
X99474Y190610D01*
X99477Y190497D01*
X99474Y190384D01*
X99482Y190355D01*
X99483Y190326D01*
X99518Y190218D01*
X99546Y190109D01*
X99561Y190083D01*
X99570Y190055D01*
X99616Y189992D01*
X99691Y189864D01*
X99737Y189821D01*
X99765Y189782D01*
X99871Y189676D01*
X99871Y178624D01*
X99126Y177879D01*
X87074Y177879D01*
X86329Y178624D01*
X86329Y189676D01*
X86435Y189782D01*
X86453Y189806D01*
X86475Y189825D01*
X86538Y189919D01*
X86606Y190009D01*
X86616Y190037D01*
X86633Y190061D01*
X86667Y190169D01*
X86707Y190275D01*
X86710Y190304D01*
X86718Y190332D01*
X86721Y190446D01*
X86731Y190558D01*
X86725Y190587D01*
X86726Y190616D01*
X86697Y190726D01*
X86675Y190837D01*
X86661Y190863D01*
X86654Y190891D01*
X86596Y190989D01*
X86544Y191089D01*
X86524Y191111D01*
X86509Y191136D01*
X86426Y191213D01*
X86348Y191295D01*
X86323Y191310D01*
X86301Y191330D01*
X86200Y191382D01*
X86103Y191439D01*
X86074Y191446D01*
X86048Y191460D01*
X85971Y191473D01*
X85827Y191509D01*
X85765Y191507D01*
X85717Y191515D01*
X39115Y191515D01*
X39115Y195089D01*
X39107Y195147D01*
X39109Y195205D01*
X39087Y195287D01*
X39075Y195371D01*
X39052Y195424D01*
X39037Y195480D01*
X38994Y195553D01*
X38959Y195630D01*
X38921Y195675D01*
X38892Y195725D01*
X38830Y195783D01*
X38776Y195847D01*
X38727Y195879D01*
X38684Y195919D01*
X38609Y195958D01*
X38539Y196005D01*
X38483Y196022D01*
X38431Y196049D01*
X38363Y196060D01*
X38268Y196090D01*
X38168Y196093D01*
X38100Y196104D01*
X35636Y196104D01*
X34892Y196849D01*
X34892Y215900D01*
X34884Y215958D01*
X34885Y216016D01*
X34864Y216098D01*
X34852Y216182D01*
X34828Y216235D01*
X34813Y216291D01*
X34770Y216364D01*
X34736Y216441D01*
X34698Y216486D01*
X34668Y216536D01*
X34606Y216594D01*
X34552Y216658D01*
X34503Y216690D01*
X34461Y216730D01*
X34386Y216769D01*
X34315Y216816D01*
X34260Y216833D01*
X34208Y216860D01*
X34140Y216871D01*
X34044Y216901D01*
X33945Y216904D01*
X33877Y216915D01*
X8064Y216915D01*
X8007Y216907D01*
X7948Y216909D01*
X7867Y216887D01*
X7783Y216875D01*
X7730Y216852D01*
X7673Y216837D01*
X7601Y216794D01*
X7524Y216759D01*
X7479Y216721D01*
X7429Y216692D01*
X7371Y216630D01*
X7307Y216576D01*
X7274Y216527D01*
X7234Y216484D01*
X7196Y216409D01*
X7149Y216339D01*
X7131Y216283D01*
X7105Y216231D01*
X7093Y216163D01*
X7063Y216068D01*
X7061Y215968D01*
X7049Y215900D01*
X7049Y155575D01*
X7057Y155517D01*
X7056Y155459D01*
X7077Y155377D01*
X7089Y155294D01*
X7113Y155240D01*
X7128Y155184D01*
X7171Y155111D01*
X7205Y155034D01*
X7243Y154989D01*
X7273Y154939D01*
X7335Y154881D01*
X7389Y154817D01*
X7438Y154785D01*
X7480Y154745D01*
X7555Y154706D01*
X7626Y154660D01*
X7681Y154642D01*
X7733Y154615D01*
X7801Y154604D01*
X7897Y154574D01*
X7996Y154571D01*
X8064Y154560D01*
X115977Y154560D01*
X116034Y154568D01*
G37*
G36*
X190558Y92655D02*
X190558Y92655D01*
X190616Y92654D01*
X190698Y92675D01*
X190782Y92687D01*
X190835Y92711D01*
X190891Y92726D01*
X190964Y92769D01*
X191041Y92803D01*
X191086Y92841D01*
X191136Y92871D01*
X191194Y92933D01*
X191258Y92987D01*
X191290Y93036D01*
X191330Y93078D01*
X191369Y93153D01*
X191416Y93224D01*
X191433Y93279D01*
X191460Y93331D01*
X191471Y93399D01*
X191501Y93495D01*
X191504Y93594D01*
X191515Y93663D01*
X191515Y139700D01*
X191507Y139758D01*
X191509Y139816D01*
X191487Y139898D01*
X191475Y139982D01*
X191452Y140035D01*
X191437Y140091D01*
X191394Y140164D01*
X191359Y140241D01*
X191321Y140286D01*
X191292Y140336D01*
X191230Y140394D01*
X191176Y140458D01*
X191127Y140490D01*
X191084Y140530D01*
X191009Y140569D01*
X190939Y140616D01*
X190883Y140633D01*
X190831Y140660D01*
X190763Y140671D01*
X190668Y140701D01*
X190568Y140704D01*
X190500Y140715D01*
X150723Y140715D01*
X150666Y140707D01*
X150607Y140709D01*
X150526Y140687D01*
X150442Y140675D01*
X150389Y140652D01*
X150332Y140637D01*
X150260Y140594D01*
X150183Y140559D01*
X150138Y140521D01*
X150088Y140492D01*
X150030Y140430D01*
X149966Y140376D01*
X149933Y140327D01*
X149893Y140284D01*
X149855Y140209D01*
X149808Y140139D01*
X149790Y140083D01*
X149764Y140031D01*
X149752Y139963D01*
X149722Y139868D01*
X149720Y139768D01*
X149708Y139700D01*
X149708Y133674D01*
X148964Y132929D01*
X137911Y132929D01*
X137167Y133674D01*
X137167Y139700D01*
X137159Y139758D01*
X137160Y139816D01*
X137139Y139898D01*
X137127Y139982D01*
X137103Y140035D01*
X137088Y140091D01*
X137045Y140164D01*
X137011Y140241D01*
X136973Y140286D01*
X136943Y140336D01*
X136881Y140394D01*
X136827Y140458D01*
X136778Y140490D01*
X136736Y140530D01*
X136661Y140569D01*
X136590Y140616D01*
X136535Y140633D01*
X136483Y140660D01*
X136415Y140671D01*
X136319Y140701D01*
X136220Y140704D01*
X136152Y140715D01*
X133723Y140715D01*
X133666Y140707D01*
X133607Y140709D01*
X133526Y140687D01*
X133442Y140675D01*
X133389Y140652D01*
X133332Y140637D01*
X133260Y140594D01*
X133183Y140559D01*
X133138Y140521D01*
X133088Y140492D01*
X133030Y140430D01*
X132966Y140376D01*
X132933Y140327D01*
X132893Y140284D01*
X132855Y140209D01*
X132808Y140139D01*
X132790Y140083D01*
X132764Y140031D01*
X132752Y139963D01*
X132722Y139868D01*
X132720Y139768D01*
X132708Y139700D01*
X132708Y133674D01*
X131964Y132929D01*
X120911Y132929D01*
X120167Y133674D01*
X120167Y136398D01*
X120159Y136456D01*
X120160Y136514D01*
X120139Y136596D01*
X120127Y136680D01*
X120103Y136733D01*
X120088Y136789D01*
X120045Y136862D01*
X120011Y136939D01*
X119973Y136984D01*
X119943Y137034D01*
X119881Y137092D01*
X119827Y137156D01*
X119778Y137188D01*
X119736Y137228D01*
X119661Y137267D01*
X119590Y137314D01*
X119535Y137331D01*
X119483Y137358D01*
X119415Y137369D01*
X119319Y137399D01*
X119220Y137402D01*
X119152Y137413D01*
X118843Y137413D01*
X118756Y137401D01*
X118669Y137398D01*
X118616Y137381D01*
X118561Y137373D01*
X118481Y137338D01*
X118398Y137311D01*
X118359Y137283D01*
X118302Y137257D01*
X118189Y137161D01*
X118125Y137116D01*
X111995Y130986D01*
X111942Y130916D01*
X111882Y130852D01*
X111857Y130803D01*
X111824Y130758D01*
X111793Y130677D01*
X111753Y130599D01*
X111745Y130551D01*
X111723Y130493D01*
X111714Y130387D01*
X111711Y130379D01*
X111710Y130347D01*
X111710Y130345D01*
X111697Y130268D01*
X111697Y93663D01*
X111705Y93605D01*
X111704Y93546D01*
X111725Y93465D01*
X111737Y93381D01*
X111761Y93328D01*
X111776Y93271D01*
X111819Y93199D01*
X111853Y93122D01*
X111891Y93077D01*
X111921Y93027D01*
X111983Y92969D01*
X112037Y92905D01*
X112086Y92872D01*
X112128Y92832D01*
X112203Y92794D01*
X112274Y92747D01*
X112329Y92729D01*
X112381Y92703D01*
X112449Y92691D01*
X112545Y92661D01*
X112644Y92659D01*
X112713Y92647D01*
X190500Y92647D01*
X190558Y92655D01*
G37*
G36*
X87370Y59318D02*
X87370Y59318D01*
X87429Y59316D01*
X87510Y59338D01*
X87594Y59350D01*
X87647Y59374D01*
X87704Y59388D01*
X87776Y59431D01*
X87853Y59466D01*
X87898Y59504D01*
X87948Y59534D01*
X88006Y59595D01*
X88070Y59650D01*
X88103Y59698D01*
X88143Y59741D01*
X88181Y59816D01*
X88228Y59886D01*
X88246Y59942D01*
X88272Y59994D01*
X88284Y60062D01*
X88314Y60157D01*
X88316Y60257D01*
X88328Y60325D01*
X88328Y149225D01*
X88320Y149283D01*
X88321Y149341D01*
X88300Y149423D01*
X88288Y149507D01*
X88264Y149560D01*
X88249Y149616D01*
X88206Y149689D01*
X88172Y149766D01*
X88134Y149811D01*
X88104Y149861D01*
X88042Y149919D01*
X87988Y149983D01*
X87939Y150015D01*
X87897Y150055D01*
X87822Y150094D01*
X87751Y150141D01*
X87696Y150158D01*
X87644Y150185D01*
X87576Y150196D01*
X87480Y150226D01*
X87381Y150229D01*
X87313Y150240D01*
X53975Y150240D01*
X53917Y150232D01*
X53859Y150234D01*
X53777Y150212D01*
X53694Y150200D01*
X53640Y150177D01*
X53584Y150162D01*
X53511Y150119D01*
X53434Y150084D01*
X53389Y150046D01*
X53339Y150017D01*
X53281Y149955D01*
X53217Y149901D01*
X53185Y149852D01*
X53145Y149809D01*
X53106Y149734D01*
X53060Y149664D01*
X53042Y149608D01*
X53015Y149556D01*
X53004Y149488D01*
X52974Y149393D01*
X52971Y149293D01*
X52960Y149225D01*
X52960Y60325D01*
X52968Y60267D01*
X52966Y60209D01*
X52988Y60127D01*
X53000Y60044D01*
X53024Y59990D01*
X53038Y59934D01*
X53081Y59861D01*
X53116Y59784D01*
X53154Y59739D01*
X53184Y59689D01*
X53245Y59631D01*
X53300Y59567D01*
X53348Y59535D01*
X53391Y59495D01*
X53466Y59456D01*
X53536Y59410D01*
X53592Y59392D01*
X53644Y59365D01*
X53712Y59354D01*
X53807Y59324D01*
X53907Y59321D01*
X53975Y59310D01*
X87313Y59310D01*
X87370Y59318D01*
G37*
G36*
X114291Y307349D02*
X114291Y307349D01*
X114349Y307351D01*
X114429Y307377D01*
X114512Y307393D01*
X114564Y307420D01*
X114620Y307438D01*
X114676Y307478D01*
X114764Y307524D01*
X114837Y307593D01*
X114839Y307595D01*
X114873Y307595D01*
X114931Y307603D01*
X114989Y307601D01*
X115071Y307623D01*
X115155Y307635D01*
X115208Y307658D01*
X115264Y307673D01*
X115337Y307716D01*
X115414Y307751D01*
X115459Y307789D01*
X115509Y307818D01*
X115567Y307880D01*
X115631Y307934D01*
X115663Y307983D01*
X115703Y308026D01*
X115742Y308101D01*
X115789Y308171D01*
X115806Y308227D01*
X115833Y308279D01*
X115844Y308347D01*
X115874Y308442D01*
X115877Y308542D01*
X115888Y308610D01*
X115888Y309622D01*
X119653Y313387D01*
X119706Y313457D01*
X119766Y313521D01*
X119791Y313570D01*
X119824Y313615D01*
X119855Y313696D01*
X119895Y313774D01*
X119903Y313822D01*
X119926Y313880D01*
X119938Y314028D01*
X119951Y314105D01*
X119951Y320035D01*
X138703Y338787D01*
X138756Y338857D01*
X138816Y338921D01*
X138841Y338970D01*
X138874Y339015D01*
X138905Y339096D01*
X138945Y339174D01*
X138953Y339222D01*
X138976Y339280D01*
X138988Y339428D01*
X139001Y339505D01*
X139001Y351785D01*
X142513Y355297D01*
X142566Y355367D01*
X142626Y355431D01*
X142651Y355480D01*
X142684Y355525D01*
X142715Y355606D01*
X142755Y355684D01*
X142763Y355732D01*
X142786Y355790D01*
X142794Y355890D01*
X142797Y355900D01*
X142798Y355937D01*
X142798Y355938D01*
X142811Y356015D01*
X142811Y359187D01*
X145638Y362014D01*
X149637Y362014D01*
X152464Y359187D01*
X152464Y355188D01*
X150419Y353143D01*
X150384Y353096D01*
X150341Y353056D01*
X150299Y352983D01*
X150248Y352916D01*
X150227Y352861D01*
X150198Y352811D01*
X150177Y352729D01*
X150147Y352650D01*
X150142Y352592D01*
X150128Y352535D01*
X150130Y352451D01*
X150123Y352367D01*
X150135Y352309D01*
X150137Y352251D01*
X150163Y352171D01*
X150179Y352088D01*
X150206Y352036D01*
X150224Y351980D01*
X150264Y351924D01*
X150310Y351836D01*
X150379Y351763D01*
X150419Y351707D01*
X152464Y349662D01*
X152464Y345663D01*
X150222Y343421D01*
X150169Y343351D01*
X150109Y343287D01*
X150084Y343237D01*
X150051Y343193D01*
X150020Y343112D01*
X149980Y343034D01*
X149972Y342986D01*
X149949Y342928D01*
X149937Y342780D01*
X149924Y342703D01*
X149924Y337190D01*
X148287Y335553D01*
X132031Y319297D01*
X132014Y319274D01*
X131991Y319255D01*
X131928Y319161D01*
X131860Y319070D01*
X131850Y319043D01*
X131834Y319018D01*
X131799Y318910D01*
X131759Y318805D01*
X131757Y318775D01*
X131748Y318747D01*
X131745Y318634D01*
X131736Y318521D01*
X131741Y318493D01*
X131741Y318463D01*
X131769Y318354D01*
X131791Y318242D01*
X131805Y318216D01*
X131812Y318188D01*
X131870Y318091D01*
X131922Y317990D01*
X131943Y317969D01*
X131958Y317944D01*
X132040Y317866D01*
X132118Y317784D01*
X132144Y317769D01*
X132165Y317749D01*
X132266Y317698D01*
X132364Y317640D01*
X132392Y317633D01*
X132418Y317620D01*
X132495Y317607D01*
X132639Y317570D01*
X132702Y317572D01*
X132749Y317564D01*
X135349Y317564D01*
X138177Y314737D01*
X138177Y310549D01*
X138181Y310520D01*
X138178Y310491D01*
X138201Y310380D01*
X138217Y310268D01*
X138229Y310241D01*
X138234Y310212D01*
X138286Y310112D01*
X138333Y310008D01*
X138352Y309986D01*
X138365Y309960D01*
X138443Y309878D01*
X138516Y309791D01*
X138541Y309775D01*
X138561Y309754D01*
X138659Y309697D01*
X138753Y309634D01*
X138781Y309625D01*
X138806Y309610D01*
X138916Y309582D01*
X139024Y309548D01*
X139054Y309547D01*
X139082Y309540D01*
X139195Y309544D01*
X139308Y309541D01*
X139337Y309548D01*
X139366Y309549D01*
X139474Y309584D01*
X139583Y309612D01*
X139609Y309627D01*
X139637Y309636D01*
X139700Y309682D01*
X139828Y309758D01*
X139871Y309803D01*
X139910Y309831D01*
X143466Y313387D01*
X145103Y315024D01*
X161285Y315024D01*
X163747Y312562D01*
X163771Y312544D01*
X163790Y312522D01*
X163884Y312459D01*
X163974Y312391D01*
X164002Y312380D01*
X164026Y312364D01*
X164134Y312330D01*
X164240Y312290D01*
X164269Y312287D01*
X164297Y312278D01*
X164411Y312275D01*
X164523Y312266D01*
X164552Y312272D01*
X164581Y312271D01*
X164691Y312300D01*
X164802Y312322D01*
X164828Y312336D01*
X164856Y312343D01*
X164954Y312401D01*
X165054Y312453D01*
X165076Y312473D01*
X165101Y312488D01*
X165178Y312571D01*
X165260Y312649D01*
X165275Y312674D01*
X165295Y312695D01*
X165347Y312796D01*
X165404Y312894D01*
X165411Y312922D01*
X165425Y312949D01*
X165438Y313026D01*
X165474Y313170D01*
X165472Y313232D01*
X165480Y313280D01*
X165480Y318232D01*
X165520Y318269D01*
X165562Y318342D01*
X165613Y318409D01*
X165634Y318464D01*
X165663Y318514D01*
X165684Y318596D01*
X165714Y318675D01*
X165719Y318733D01*
X165733Y318790D01*
X165731Y318874D01*
X165738Y318958D01*
X165726Y319016D01*
X165724Y319074D01*
X165698Y319154D01*
X165682Y319237D01*
X165655Y319289D01*
X165637Y319345D01*
X165597Y319401D01*
X165551Y319489D01*
X165482Y319562D01*
X165480Y319564D01*
X165480Y326220D01*
X165818Y326558D01*
X165870Y326628D01*
X165930Y326692D01*
X165956Y326741D01*
X165989Y326785D01*
X166020Y326867D01*
X166060Y326945D01*
X166068Y326992D01*
X166090Y327051D01*
X166102Y327199D01*
X166115Y327276D01*
X166115Y334524D01*
X166103Y334611D01*
X166100Y334698D01*
X166083Y334751D01*
X166075Y334806D01*
X166040Y334885D01*
X166013Y334969D01*
X165985Y335008D01*
X165959Y335065D01*
X165863Y335178D01*
X165818Y335242D01*
X165480Y335580D01*
X165480Y342220D01*
X165818Y342558D01*
X165870Y342628D01*
X165930Y342692D01*
X165956Y342741D01*
X165989Y342785D01*
X166020Y342867D01*
X166060Y342945D01*
X166068Y342992D01*
X166090Y343051D01*
X166102Y343199D01*
X166115Y343276D01*
X166115Y350524D01*
X166103Y350611D01*
X166100Y350698D01*
X166083Y350751D01*
X166075Y350806D01*
X166040Y350885D01*
X166013Y350969D01*
X165985Y351008D01*
X165959Y351065D01*
X165863Y351178D01*
X165818Y351242D01*
X165480Y351580D01*
X165480Y358232D01*
X165520Y358269D01*
X165562Y358342D01*
X165613Y358409D01*
X165634Y358464D01*
X165663Y358514D01*
X165684Y358596D01*
X165714Y358675D01*
X165719Y358733D01*
X165733Y358790D01*
X165731Y358874D01*
X165738Y358958D01*
X165726Y359016D01*
X165724Y359074D01*
X165698Y359154D01*
X165682Y359237D01*
X165655Y359289D01*
X165637Y359345D01*
X165597Y359401D01*
X165551Y359489D01*
X165482Y359562D01*
X165480Y359564D01*
X165480Y366232D01*
X165520Y366269D01*
X165562Y366342D01*
X165613Y366409D01*
X165634Y366464D01*
X165663Y366514D01*
X165684Y366596D01*
X165714Y366675D01*
X165719Y366733D01*
X165733Y366790D01*
X165731Y366874D01*
X165738Y366958D01*
X165726Y367016D01*
X165724Y367074D01*
X165698Y367154D01*
X165682Y367237D01*
X165655Y367289D01*
X165637Y367345D01*
X165597Y367401D01*
X165551Y367489D01*
X165482Y367562D01*
X165480Y367564D01*
X165480Y374220D01*
X165818Y374558D01*
X165870Y374628D01*
X165930Y374692D01*
X165956Y374741D01*
X165989Y374785D01*
X166020Y374867D01*
X166060Y374945D01*
X166068Y374992D01*
X166090Y375051D01*
X166102Y375199D01*
X166115Y375276D01*
X166115Y377825D01*
X166107Y377883D01*
X166109Y377941D01*
X166087Y378023D01*
X166075Y378107D01*
X166052Y378160D01*
X166037Y378216D01*
X165994Y378289D01*
X165959Y378366D01*
X165921Y378411D01*
X165892Y378461D01*
X165830Y378519D01*
X165776Y378583D01*
X165727Y378615D01*
X165684Y378655D01*
X165609Y378694D01*
X165539Y378741D01*
X165483Y378758D01*
X165431Y378785D01*
X165363Y378796D01*
X165268Y378826D01*
X165168Y378829D01*
X165100Y378840D01*
X162551Y378840D01*
X162464Y378828D01*
X162377Y378825D01*
X162324Y378808D01*
X162269Y378800D01*
X162190Y378765D01*
X162106Y378738D01*
X162067Y378710D01*
X162010Y378684D01*
X161897Y378588D01*
X161833Y378543D01*
X161495Y378205D01*
X154843Y378205D01*
X154806Y378245D01*
X154733Y378287D01*
X154666Y378338D01*
X154611Y378359D01*
X154561Y378388D01*
X154479Y378409D01*
X154400Y378439D01*
X154342Y378444D01*
X154285Y378458D01*
X154201Y378456D01*
X154117Y378463D01*
X154059Y378451D01*
X154001Y378449D01*
X153921Y378423D01*
X153838Y378407D01*
X153786Y378380D01*
X153730Y378362D01*
X153674Y378322D01*
X153586Y378276D01*
X153513Y378207D01*
X153511Y378205D01*
X146843Y378205D01*
X146806Y378245D01*
X146733Y378287D01*
X146666Y378338D01*
X146611Y378359D01*
X146561Y378388D01*
X146479Y378409D01*
X146400Y378439D01*
X146342Y378444D01*
X146285Y378458D01*
X146201Y378456D01*
X146117Y378463D01*
X146059Y378451D01*
X146001Y378449D01*
X145921Y378423D01*
X145838Y378407D01*
X145786Y378380D01*
X145730Y378362D01*
X145674Y378322D01*
X145586Y378276D01*
X145513Y378207D01*
X145511Y378205D01*
X138843Y378205D01*
X138806Y378245D01*
X138733Y378287D01*
X138666Y378338D01*
X138611Y378359D01*
X138561Y378388D01*
X138479Y378409D01*
X138400Y378439D01*
X138342Y378444D01*
X138285Y378458D01*
X138201Y378456D01*
X138117Y378463D01*
X138059Y378451D01*
X138001Y378449D01*
X137921Y378423D01*
X137838Y378407D01*
X137786Y378380D01*
X137730Y378362D01*
X137674Y378322D01*
X137586Y378276D01*
X137513Y378207D01*
X137511Y378205D01*
X130843Y378205D01*
X130806Y378245D01*
X130733Y378287D01*
X130666Y378338D01*
X130611Y378359D01*
X130561Y378388D01*
X130479Y378409D01*
X130400Y378439D01*
X130342Y378444D01*
X130285Y378458D01*
X130201Y378456D01*
X130117Y378463D01*
X130059Y378451D01*
X130001Y378449D01*
X129921Y378423D01*
X129838Y378407D01*
X129786Y378380D01*
X129730Y378362D01*
X129674Y378322D01*
X129586Y378276D01*
X129513Y378207D01*
X129511Y378205D01*
X122843Y378205D01*
X122806Y378245D01*
X122733Y378287D01*
X122666Y378338D01*
X122611Y378359D01*
X122561Y378388D01*
X122479Y378409D01*
X122400Y378439D01*
X122342Y378444D01*
X122285Y378458D01*
X122201Y378456D01*
X122117Y378463D01*
X122059Y378451D01*
X122001Y378449D01*
X121921Y378423D01*
X121838Y378407D01*
X121786Y378380D01*
X121730Y378362D01*
X121674Y378322D01*
X121586Y378276D01*
X121513Y378207D01*
X121511Y378205D01*
X114843Y378205D01*
X114806Y378245D01*
X114733Y378287D01*
X114666Y378338D01*
X114611Y378359D01*
X114561Y378388D01*
X114479Y378409D01*
X114400Y378439D01*
X114342Y378444D01*
X114285Y378458D01*
X114201Y378456D01*
X114117Y378463D01*
X114059Y378451D01*
X114001Y378449D01*
X113921Y378423D01*
X113838Y378407D01*
X113786Y378380D01*
X113730Y378362D01*
X113674Y378322D01*
X113586Y378276D01*
X113513Y378207D01*
X113511Y378205D01*
X113477Y378205D01*
X113419Y378197D01*
X113361Y378199D01*
X113279Y378177D01*
X113195Y378165D01*
X113142Y378142D01*
X113086Y378127D01*
X113013Y378084D01*
X112936Y378049D01*
X112891Y378011D01*
X112841Y377982D01*
X112783Y377920D01*
X112719Y377866D01*
X112687Y377817D01*
X112647Y377774D01*
X112608Y377699D01*
X112561Y377629D01*
X112544Y377573D01*
X112517Y377521D01*
X112506Y377453D01*
X112476Y377358D01*
X112473Y377258D01*
X112462Y377190D01*
X112462Y372205D01*
X112474Y372119D01*
X112477Y372031D01*
X112494Y371979D01*
X112502Y371924D01*
X112537Y371844D01*
X112564Y371761D01*
X112592Y371721D01*
X112618Y371664D01*
X112714Y371551D01*
X112759Y371487D01*
X114999Y369247D01*
X114999Y338335D01*
X115011Y338248D01*
X115014Y338161D01*
X115031Y338108D01*
X115039Y338053D01*
X115075Y337974D01*
X115102Y337890D01*
X115130Y337851D01*
X115155Y337794D01*
X115251Y337681D01*
X115297Y337617D01*
X117539Y335374D01*
X117539Y331376D01*
X114712Y328548D01*
X110713Y328548D01*
X110382Y328879D01*
X110359Y328897D01*
X110340Y328919D01*
X110246Y328982D01*
X110155Y329050D01*
X110128Y329060D01*
X110103Y329077D01*
X109995Y329111D01*
X109890Y329151D01*
X109860Y329154D01*
X109832Y329163D01*
X109719Y329165D01*
X109606Y329175D01*
X109578Y329169D01*
X109548Y329170D01*
X109439Y329141D01*
X109327Y329119D01*
X109301Y329105D01*
X109273Y329098D01*
X109176Y329040D01*
X109075Y328988D01*
X109054Y328968D01*
X109029Y328953D01*
X108951Y328870D01*
X108869Y328792D01*
X108854Y328767D01*
X108834Y328745D01*
X108783Y328644D01*
X108725Y328547D01*
X108718Y328518D01*
X108705Y328492D01*
X108692Y328415D01*
X108655Y328271D01*
X108657Y328209D01*
X108649Y328161D01*
X108649Y326078D01*
X101009Y318438D01*
X100957Y318368D01*
X100897Y318304D01*
X100871Y318255D01*
X100838Y318210D01*
X100807Y318129D01*
X100767Y318051D01*
X100759Y318003D01*
X100737Y317945D01*
X100725Y317797D01*
X100712Y317720D01*
X100712Y310203D01*
X99837Y309328D01*
X99819Y309304D01*
X99797Y309285D01*
X99734Y309191D01*
X99666Y309101D01*
X99655Y309073D01*
X99639Y309049D01*
X99605Y308941D01*
X99565Y308835D01*
X99562Y308806D01*
X99553Y308778D01*
X99550Y308664D01*
X99541Y308552D01*
X99547Y308523D01*
X99546Y308494D01*
X99575Y308384D01*
X99597Y308273D01*
X99611Y308247D01*
X99618Y308219D01*
X99676Y308121D01*
X99728Y308021D01*
X99748Y307999D01*
X99763Y307974D01*
X99846Y307897D01*
X99924Y307815D01*
X99949Y307800D01*
X99970Y307780D01*
X100071Y307728D01*
X100169Y307671D01*
X100197Y307664D01*
X100224Y307650D01*
X100301Y307637D01*
X100445Y307601D01*
X100507Y307603D01*
X100555Y307595D01*
X105507Y307595D01*
X105544Y307555D01*
X105617Y307513D01*
X105684Y307462D01*
X105739Y307441D01*
X105789Y307412D01*
X105871Y307391D01*
X105950Y307361D01*
X106008Y307356D01*
X106065Y307342D01*
X106149Y307344D01*
X106233Y307337D01*
X106291Y307349D01*
X106349Y307351D01*
X106429Y307377D01*
X106512Y307393D01*
X106564Y307420D01*
X106620Y307438D01*
X106676Y307478D01*
X106764Y307524D01*
X106837Y307593D01*
X106839Y307595D01*
X113507Y307595D01*
X113544Y307555D01*
X113617Y307513D01*
X113684Y307462D01*
X113739Y307441D01*
X113789Y307412D01*
X113871Y307391D01*
X113950Y307361D01*
X114008Y307356D01*
X114065Y307342D01*
X114149Y307344D01*
X114233Y307337D01*
X114291Y307349D01*
G37*
G36*
X188970Y154568D02*
X188970Y154568D01*
X189029Y154566D01*
X189110Y154588D01*
X189194Y154600D01*
X189247Y154624D01*
X189304Y154638D01*
X189376Y154681D01*
X189453Y154716D01*
X189498Y154754D01*
X189548Y154784D01*
X189606Y154845D01*
X189670Y154900D01*
X189703Y154948D01*
X189743Y154991D01*
X189781Y155066D01*
X189828Y155136D01*
X189846Y155192D01*
X189872Y155244D01*
X189884Y155312D01*
X189914Y155407D01*
X189916Y155507D01*
X189928Y155575D01*
X189928Y177800D01*
X189920Y177858D01*
X189921Y177916D01*
X189900Y177998D01*
X189888Y178082D01*
X189864Y178135D01*
X189849Y178191D01*
X189806Y178264D01*
X189772Y178341D01*
X189734Y178386D01*
X189704Y178436D01*
X189642Y178494D01*
X189588Y178558D01*
X189539Y178590D01*
X189497Y178630D01*
X189422Y178669D01*
X189351Y178716D01*
X189296Y178733D01*
X189244Y178760D01*
X189176Y178771D01*
X189080Y178801D01*
X188981Y178804D01*
X188913Y178815D01*
X166115Y178815D01*
X166115Y190500D01*
X166107Y190558D01*
X166109Y190616D01*
X166087Y190698D01*
X166075Y190782D01*
X166052Y190835D01*
X166037Y190891D01*
X165994Y190964D01*
X165959Y191041D01*
X165921Y191086D01*
X165892Y191136D01*
X165830Y191194D01*
X165776Y191258D01*
X165727Y191290D01*
X165684Y191330D01*
X165609Y191369D01*
X165539Y191416D01*
X165483Y191433D01*
X165431Y191460D01*
X165363Y191471D01*
X165268Y191501D01*
X165168Y191504D01*
X165100Y191515D01*
X146845Y191515D01*
X146759Y191503D01*
X146671Y191500D01*
X146618Y191483D01*
X146564Y191475D01*
X146544Y191467D01*
X141288Y191467D01*
X141230Y191459D01*
X141171Y191460D01*
X141090Y191439D01*
X141006Y191427D01*
X140953Y191403D01*
X140896Y191388D01*
X140824Y191345D01*
X140747Y191311D01*
X140702Y191273D01*
X140652Y191243D01*
X140594Y191181D01*
X140530Y191127D01*
X140497Y191078D01*
X140457Y191036D01*
X140419Y190961D01*
X140372Y190890D01*
X140354Y190835D01*
X140328Y190783D01*
X140316Y190715D01*
X140286Y190619D01*
X140284Y190520D01*
X140272Y190452D01*
X140272Y169863D01*
X140280Y169805D01*
X140279Y169746D01*
X140300Y169665D01*
X140312Y169581D01*
X140336Y169528D01*
X140351Y169471D01*
X140394Y169399D01*
X140428Y169322D01*
X140466Y169277D01*
X140496Y169227D01*
X140558Y169169D01*
X140612Y169105D01*
X140661Y169072D01*
X140703Y169032D01*
X140778Y168994D01*
X140849Y168947D01*
X140904Y168929D01*
X140956Y168903D01*
X141024Y168891D01*
X141120Y168861D01*
X141219Y168859D01*
X141288Y168847D01*
X148210Y168847D01*
X148210Y155575D01*
X148218Y155517D01*
X148216Y155459D01*
X148238Y155377D01*
X148250Y155294D01*
X148274Y155240D01*
X148288Y155184D01*
X148331Y155111D01*
X148366Y155034D01*
X148404Y154989D01*
X148434Y154939D01*
X148495Y154881D01*
X148550Y154817D01*
X148598Y154785D01*
X148641Y154745D01*
X148716Y154706D01*
X148786Y154660D01*
X148842Y154642D01*
X148894Y154615D01*
X148962Y154604D01*
X149057Y154574D01*
X149157Y154571D01*
X149225Y154560D01*
X188913Y154560D01*
X188970Y154568D01*
G37*
%LPC*%
G36*
X197930Y235584D02*
X197930Y235584D01*
X192722Y240792D01*
X192722Y248158D01*
X197930Y253366D01*
X203674Y253366D01*
X203760Y253378D01*
X203848Y253381D01*
X203900Y253398D01*
X203955Y253406D01*
X204035Y253441D01*
X204118Y253468D01*
X204158Y253496D01*
X204215Y253522D01*
X204328Y253618D01*
X204392Y253663D01*
X211778Y261049D01*
X217378Y261049D01*
X217407Y261053D01*
X217436Y261051D01*
X217547Y261073D01*
X217659Y261089D01*
X217686Y261101D01*
X217715Y261107D01*
X217815Y261159D01*
X217919Y261205D01*
X217941Y261224D01*
X217967Y261238D01*
X218049Y261316D01*
X218136Y261389D01*
X218152Y261413D01*
X218173Y261434D01*
X218230Y261531D01*
X218293Y261626D01*
X218302Y261654D01*
X218317Y261679D01*
X218345Y261789D01*
X218379Y261897D01*
X218380Y261926D01*
X218387Y261954D01*
X218383Y262068D01*
X218386Y262181D01*
X218379Y262209D01*
X218378Y262239D01*
X218343Y262347D01*
X218314Y262456D01*
X218299Y262481D01*
X218290Y262509D01*
X218245Y262573D01*
X218169Y262700D01*
X218124Y262743D01*
X218096Y262782D01*
X218004Y262874D01*
X218004Y272926D01*
X218749Y273671D01*
X225801Y273671D01*
X226307Y273165D01*
X226354Y273130D01*
X226394Y273087D01*
X226467Y273045D01*
X226534Y272994D01*
X226589Y272973D01*
X226639Y272944D01*
X226721Y272923D01*
X226800Y272893D01*
X226858Y272888D01*
X226915Y272874D01*
X226999Y272876D01*
X227083Y272869D01*
X227141Y272881D01*
X227199Y272883D01*
X227279Y272909D01*
X227362Y272925D01*
X227414Y272952D01*
X227470Y272970D01*
X227526Y273010D01*
X227614Y273056D01*
X227687Y273125D01*
X227743Y273165D01*
X228249Y273671D01*
X235301Y273671D01*
X236046Y272926D01*
X236046Y262874D01*
X235233Y262061D01*
X235194Y262051D01*
X235121Y262008D01*
X235044Y261973D01*
X234999Y261935D01*
X234949Y261906D01*
X234891Y261844D01*
X234827Y261790D01*
X234795Y261741D01*
X234755Y261698D01*
X234716Y261623D01*
X234669Y261553D01*
X234652Y261497D01*
X234625Y261445D01*
X234614Y261377D01*
X234584Y261282D01*
X234581Y261182D01*
X234570Y261114D01*
X234570Y260716D01*
X234576Y260672D01*
X234574Y260628D01*
X234596Y260532D01*
X234610Y260435D01*
X234628Y260394D01*
X234638Y260351D01*
X234664Y260307D01*
X234573Y259249D01*
X234576Y259201D01*
X234570Y259163D01*
X234570Y258113D01*
X234564Y258105D01*
X234548Y258064D01*
X234525Y258026D01*
X234512Y257977D01*
X233700Y257293D01*
X233668Y257257D01*
X233637Y257234D01*
X232894Y256492D01*
X232885Y256490D01*
X232844Y256472D01*
X232801Y256462D01*
X232735Y256424D01*
X232625Y256374D01*
X232563Y256322D01*
X232512Y256291D01*
X228819Y253180D01*
X228732Y253083D01*
X228643Y252988D01*
X228638Y252977D01*
X228630Y252968D01*
X228573Y252851D01*
X228514Y252735D01*
X228512Y252724D01*
X228506Y252712D01*
X228459Y252432D01*
X228460Y252416D01*
X228458Y252403D01*
X228458Y245299D01*
X227714Y244554D01*
X215661Y244554D01*
X214917Y245299D01*
X214917Y255269D01*
X214913Y255298D01*
X214915Y255328D01*
X214910Y255354D01*
X214910Y255369D01*
X214896Y255425D01*
X214893Y255439D01*
X214877Y255551D01*
X214865Y255578D01*
X214859Y255606D01*
X214807Y255707D01*
X214761Y255810D01*
X214742Y255833D01*
X214728Y255859D01*
X214650Y255941D01*
X214577Y256027D01*
X214553Y256044D01*
X214532Y256065D01*
X214435Y256122D01*
X214340Y256185D01*
X214312Y256194D01*
X214287Y256208D01*
X214178Y256236D01*
X214069Y256271D01*
X214040Y256271D01*
X214012Y256279D01*
X213899Y256275D01*
X213785Y256278D01*
X213757Y256270D01*
X213727Y256270D01*
X213620Y256235D01*
X213510Y256206D01*
X213485Y256191D01*
X213457Y256182D01*
X213393Y256137D01*
X213376Y256126D01*
X213344Y256112D01*
X213326Y256097D01*
X213266Y256061D01*
X213223Y256015D01*
X213184Y255987D01*
X208647Y251450D01*
X208611Y251403D01*
X208569Y251363D01*
X208526Y251290D01*
X208476Y251223D01*
X208455Y251168D01*
X208425Y251118D01*
X208404Y251036D01*
X208374Y250957D01*
X208370Y250899D01*
X208355Y250842D01*
X208358Y250758D01*
X208351Y250674D01*
X208362Y250617D01*
X208364Y250558D01*
X208390Y250478D01*
X208407Y250395D01*
X208434Y250343D01*
X208452Y250288D01*
X208492Y250231D01*
X208538Y250143D01*
X208606Y250071D01*
X208647Y250014D01*
X210503Y248158D01*
X210503Y240792D01*
X205295Y235584D01*
X197930Y235584D01*
G37*
%LPD*%
%LPC*%
G36*
X112996Y598252D02*
X112996Y598252D01*
X112252Y598996D01*
X112252Y621004D01*
X112996Y621748D01*
X135004Y621748D01*
X135748Y621004D01*
X135748Y598996D01*
X135004Y598252D01*
X112996Y598252D01*
G37*
%LPD*%
%LPC*%
G36*
X79699Y210192D02*
X79699Y210192D01*
X78954Y210936D01*
X78954Y221989D01*
X79699Y222733D01*
X91751Y222733D01*
X92496Y221989D01*
X92496Y220780D01*
X92504Y220723D01*
X92502Y220664D01*
X92524Y220583D01*
X92536Y220499D01*
X92559Y220446D01*
X92574Y220389D01*
X92617Y220317D01*
X92652Y220240D01*
X92690Y220195D01*
X92719Y220145D01*
X92781Y220087D01*
X92835Y220023D01*
X92884Y219990D01*
X92927Y219950D01*
X93002Y219912D01*
X93072Y219865D01*
X93128Y219847D01*
X93180Y219821D01*
X93248Y219809D01*
X93343Y219779D01*
X93443Y219777D01*
X93511Y219765D01*
X96989Y219765D01*
X97047Y219773D01*
X97105Y219772D01*
X97187Y219793D01*
X97271Y219805D01*
X97324Y219829D01*
X97380Y219844D01*
X97453Y219887D01*
X97530Y219921D01*
X97575Y219959D01*
X97625Y219989D01*
X97683Y220051D01*
X97747Y220105D01*
X97779Y220154D01*
X97819Y220196D01*
X97858Y220271D01*
X97905Y220342D01*
X97922Y220397D01*
X97949Y220449D01*
X97960Y220517D01*
X97990Y220613D01*
X97993Y220712D01*
X98004Y220780D01*
X98004Y221989D01*
X98749Y222733D01*
X110801Y222733D01*
X111546Y221989D01*
X111546Y210936D01*
X110801Y210192D01*
X98749Y210192D01*
X98004Y210936D01*
X98004Y212145D01*
X97996Y212202D01*
X97998Y212261D01*
X97976Y212342D01*
X97964Y212426D01*
X97941Y212479D01*
X97926Y212536D01*
X97883Y212608D01*
X97848Y212685D01*
X97810Y212730D01*
X97781Y212780D01*
X97719Y212838D01*
X97665Y212902D01*
X97616Y212935D01*
X97573Y212975D01*
X97498Y213013D01*
X97428Y213060D01*
X97372Y213078D01*
X97320Y213104D01*
X97252Y213116D01*
X97157Y213146D01*
X97057Y213148D01*
X96989Y213160D01*
X93511Y213160D01*
X93453Y213152D01*
X93395Y213153D01*
X93313Y213132D01*
X93229Y213120D01*
X93176Y213096D01*
X93120Y213081D01*
X93047Y213038D01*
X92970Y213004D01*
X92925Y212966D01*
X92875Y212936D01*
X92817Y212874D01*
X92753Y212820D01*
X92721Y212771D01*
X92681Y212729D01*
X92642Y212654D01*
X92595Y212583D01*
X92578Y212528D01*
X92551Y212476D01*
X92540Y212408D01*
X92510Y212312D01*
X92507Y212213D01*
X92496Y212145D01*
X92496Y210936D01*
X91751Y210192D01*
X79699Y210192D01*
G37*
%LPD*%
%LPC*%
G36*
X215661Y203279D02*
X215661Y203279D01*
X214917Y204024D01*
X214917Y206248D01*
X214909Y206306D01*
X214910Y206364D01*
X214889Y206446D01*
X214877Y206530D01*
X214853Y206583D01*
X214838Y206639D01*
X214795Y206712D01*
X214761Y206789D01*
X214723Y206834D01*
X214693Y206884D01*
X214631Y206942D01*
X214577Y207006D01*
X214528Y207038D01*
X214486Y207078D01*
X214411Y207117D01*
X214340Y207164D01*
X214285Y207181D01*
X214233Y207208D01*
X214165Y207219D01*
X214069Y207249D01*
X213970Y207252D01*
X213902Y207263D01*
X209747Y207263D01*
X209661Y207251D01*
X209573Y207248D01*
X209521Y207231D01*
X209466Y207223D01*
X209386Y207188D01*
X209303Y207161D01*
X209264Y207133D01*
X209206Y207107D01*
X209093Y207011D01*
X209029Y206966D01*
X206787Y204723D01*
X202788Y204723D01*
X199961Y207551D01*
X199961Y211549D01*
X202788Y214377D01*
X206787Y214377D01*
X209029Y212134D01*
X209099Y212082D01*
X209163Y212022D01*
X209213Y211996D01*
X209257Y211963D01*
X209338Y211932D01*
X209416Y211892D01*
X209464Y211884D01*
X209522Y211862D01*
X209670Y211850D01*
X209747Y211837D01*
X213902Y211837D01*
X213959Y211845D01*
X214018Y211843D01*
X214099Y211865D01*
X214183Y211877D01*
X214236Y211900D01*
X214293Y211915D01*
X214365Y211958D01*
X214442Y211993D01*
X214487Y212031D01*
X214537Y212060D01*
X214595Y212122D01*
X214659Y212176D01*
X214692Y212225D01*
X214732Y212268D01*
X214770Y212343D01*
X214817Y212413D01*
X214835Y212469D01*
X214861Y212521D01*
X214873Y212589D01*
X214903Y212684D01*
X214905Y212784D01*
X214917Y212852D01*
X214917Y215076D01*
X215661Y215821D01*
X227714Y215821D01*
X228458Y215076D01*
X228458Y204024D01*
X227714Y203279D01*
X215661Y203279D01*
G37*
%LPD*%
%LPC*%
G36*
X172530Y235584D02*
X172530Y235584D01*
X167322Y240792D01*
X167322Y248158D01*
X172530Y253366D01*
X179895Y253366D01*
X185103Y248158D01*
X185103Y240792D01*
X179895Y235584D01*
X172530Y235584D01*
G37*
%LPD*%
%LPC*%
G36*
X96330Y235584D02*
X96330Y235584D01*
X91122Y240792D01*
X91122Y248158D01*
X96330Y253366D01*
X103695Y253366D01*
X108903Y248158D01*
X108903Y240792D01*
X103695Y235584D01*
X96330Y235584D01*
G37*
%LPD*%
%LPC*%
G36*
X70930Y235584D02*
X70930Y235584D01*
X65722Y240792D01*
X65722Y248158D01*
X70930Y253366D01*
X78295Y253366D01*
X83503Y248158D01*
X83503Y240792D01*
X78295Y235584D01*
X70930Y235584D01*
G37*
%LPD*%
%LPC*%
G36*
X216161Y223417D02*
X216161Y223417D01*
X215417Y224161D01*
X215417Y236214D01*
X216161Y236958D01*
X227214Y236958D01*
X227958Y236214D01*
X227958Y224161D01*
X227214Y223417D01*
X216161Y223417D01*
G37*
%LPD*%
D10*
X32313Y452438D03*
X15313Y452438D03*
X156600Y430213D03*
X173600Y430213D03*
D11*
X84138Y533963D03*
X84138Y516963D03*
D10*
X79938Y387350D03*
X62938Y387350D03*
D11*
X125413Y546663D03*
X125413Y529663D03*
D12*
X58738Y287450D03*
X49238Y309450D03*
X68238Y309450D03*
D11*
X45013Y407988D03*
X28013Y407988D03*
X64063Y533400D03*
X47063Y533400D03*
X15313Y473075D03*
X32313Y473075D03*
X32775Y387350D03*
X49775Y387350D03*
X118038Y512763D03*
X101038Y512763D03*
D10*
X158750Y494275D03*
X158750Y477275D03*
X158750Y464113D03*
X158750Y447113D03*
D11*
X42300Y512763D03*
X59300Y512763D03*
X33900Y341313D03*
X16900Y341313D03*
D10*
X15875Y358213D03*
X15875Y375213D03*
D11*
X16900Y292100D03*
X33900Y292100D03*
X148200Y512763D03*
X131200Y512763D03*
D10*
X147638Y554600D03*
X147638Y537600D03*
D11*
X179950Y512763D03*
X162950Y512763D03*
D13*
X52324Y478850D03*
X52324Y470850D03*
X52324Y462850D03*
X52324Y454850D03*
X52324Y446850D03*
X52324Y438850D03*
X52324Y430850D03*
X52324Y422850D03*
D14*
X67250Y407924D03*
X75250Y407924D03*
X83250Y407924D03*
X91250Y407924D03*
X99250Y407924D03*
X107250Y407924D03*
X115250Y407924D03*
X123250Y407924D03*
D13*
X138176Y422850D03*
X138176Y430850D03*
X138176Y438850D03*
X138176Y446850D03*
X138176Y454850D03*
X138176Y462850D03*
X138176Y470850D03*
X138176Y478850D03*
D14*
X123250Y493776D03*
X115250Y493776D03*
X107250Y493776D03*
X99250Y493776D03*
X91250Y493776D03*
X83250Y493776D03*
X75250Y493776D03*
X67250Y493776D03*
D11*
X184150Y400613D03*
X184150Y383613D03*
D10*
X208988Y417513D03*
X225988Y417513D03*
D11*
X212725Y341875D03*
X212725Y324875D03*
X18488Y431800D03*
X35488Y431800D03*
X31750Y373625D03*
X31750Y356625D03*
D10*
X51825Y325438D03*
X68825Y325438D03*
D15*
X36400Y317500D03*
X14400Y308000D03*
X14400Y327000D03*
D11*
X200588Y447675D03*
X183588Y447675D03*
D16*
X216513Y438150D03*
X237513Y438150D03*
D11*
X200588Y469900D03*
X183588Y469900D03*
D16*
X216513Y469900D03*
X237513Y469900D03*
D11*
X143438Y139700D03*
X126438Y139700D03*
D10*
X68825Y346075D03*
X51825Y346075D03*
D11*
X192088Y324875D03*
X192088Y341875D03*
D17*
X25400Y182225D03*
X25400Y141525D03*
D10*
X46038Y223275D03*
X46038Y240275D03*
D16*
X61913Y221638D03*
X61913Y200638D03*
D18*
X119688Y111125D03*
X86688Y111125D03*
D11*
X158750Y183588D03*
X158750Y200588D03*
X121675Y214313D03*
X138675Y214313D03*
D10*
X104775Y199463D03*
X104775Y216463D03*
D11*
X104775Y537600D03*
X104775Y554600D03*
D13*
X173101Y314900D03*
X173101Y322900D03*
X173101Y330900D03*
X173101Y338900D03*
X173101Y346900D03*
X173101Y354900D03*
X173101Y362900D03*
X173101Y370900D03*
D14*
X158175Y385826D03*
X150175Y385826D03*
X142175Y385826D03*
X134175Y385826D03*
X126175Y385826D03*
X118175Y385826D03*
X110175Y385826D03*
X102175Y385826D03*
D13*
X87249Y370900D03*
X87249Y362900D03*
X87249Y354900D03*
X87249Y346900D03*
X87249Y338900D03*
X87249Y330900D03*
X87249Y322900D03*
X87249Y314900D03*
D14*
X102175Y299974D03*
X110175Y299974D03*
X118175Y299974D03*
X126175Y299974D03*
X134175Y299974D03*
X142175Y299974D03*
X150175Y299974D03*
X158175Y299974D03*
D19*
X26670Y568325D02*
X11430Y568325D01*
X11430Y542925D02*
X26670Y542925D01*
X26670Y517525D02*
X11430Y517525D01*
D20*
X222275Y267900D03*
X231775Y267900D03*
X241275Y267900D03*
X241275Y290900D03*
X231775Y290900D03*
X222275Y290900D03*
D11*
X238688Y307975D03*
X221688Y307975D03*
D10*
X233363Y364100D03*
X233363Y347100D03*
X221688Y250825D03*
X238688Y250825D03*
X43888Y366713D03*
X60888Y366713D03*
D19*
X220980Y568325D02*
X236220Y568325D01*
X236220Y542925D02*
X220980Y542925D01*
X220980Y517525D02*
X236220Y517525D01*
X236220Y492125D02*
X220980Y492125D01*
D11*
X221688Y230188D03*
X238688Y230188D03*
D10*
X221688Y209550D03*
X238688Y209550D03*
D20*
X142850Y197238D03*
X133350Y197238D03*
X123850Y197238D03*
X123850Y174238D03*
X133350Y174238D03*
X142850Y174238D03*
D11*
X140263Y160338D03*
X123263Y160338D03*
D21*
X203313Y383613D03*
X225313Y383613D03*
X225313Y400613D03*
X203313Y400613D03*
D22*
X184175Y114300D03*
X203175Y114300D03*
D23*
X44163Y206375D03*
X16163Y206375D03*
D24*
X163513Y131225D03*
X163513Y167225D03*
D25*
X65088Y180588D03*
X65088Y140088D03*
D26*
X177800Y553925D03*
X187300Y531925D03*
X168300Y531925D03*
D27*
X74613Y244475D03*
X74613Y269875D03*
X100013Y244475D03*
X100013Y269875D03*
X125413Y244475D03*
X125413Y269875D03*
X150813Y244475D03*
X150813Y269875D03*
X176213Y244475D03*
X176213Y269875D03*
X201613Y244475D03*
X201613Y269875D03*
D10*
X106363Y164075D03*
X106363Y147075D03*
X85725Y216463D03*
X85725Y199463D03*
X110100Y184150D03*
X93100Y184150D03*
D28*
X218525Y166688D03*
X181525Y166688D03*
D29*
X26988Y271413D03*
X26988Y233413D03*
D30*
X33338Y496888D03*
X93663Y481013D03*
D31*
X99250Y486600D02*
X99250Y493776D01*
X99250Y486600D02*
X93663Y481013D01*
X91250Y483425D02*
X91250Y493776D01*
X91250Y483425D02*
X93663Y481013D01*
D32*
X84138Y533963D02*
X84138Y544513D01*
D30*
X84138Y544513D03*
D33*
X173600Y430213D02*
X174625Y430213D01*
D30*
X174625Y430213D03*
X184150Y401638D03*
X198438Y417513D03*
X52388Y325438D03*
X58738Y309563D03*
X133350Y104775D03*
X133350Y111125D03*
X155575Y111125D03*
X155575Y104775D03*
X133350Y117475D03*
X46038Y209550D03*
D34*
X133350Y208988D02*
X138675Y214313D01*
D30*
X139700Y214313D03*
D35*
X138675Y214313D01*
D30*
X46038Y203200D03*
D32*
X198438Y417513D02*
X208988Y417513D01*
X184150Y401638D02*
X184150Y400613D01*
D30*
X20638Y138113D03*
X20638Y146050D03*
X30163Y146050D03*
X104775Y527050D03*
D33*
X104775Y537600D01*
D30*
X180975Y512763D03*
D31*
X179950Y512763D01*
D33*
X88074Y339725D02*
X87249Y338900D01*
D30*
X33338Y341313D03*
X192088Y312738D03*
X204788Y312738D03*
X160338Y330200D03*
X160338Y346075D03*
D33*
X160338Y330900D02*
X173101Y330900D01*
X160338Y330900D02*
X160338Y330200D01*
X160338Y346900D02*
X173101Y346900D01*
X160338Y346900D02*
X160338Y346075D01*
X192088Y324875D02*
X192088Y312738D01*
X204788Y312738D02*
X212725Y324875D01*
D30*
X182563Y447675D03*
X182563Y469900D03*
D32*
X182563Y447675D02*
X183588Y447675D01*
X183588Y469900D02*
X182563Y469900D01*
D33*
X231775Y267900D02*
X231775Y259325D01*
X221688Y250825D01*
D30*
X222250Y290513D03*
D31*
X222250Y290875D01*
X222275Y290900D01*
D32*
X125413Y546663D02*
X118038Y546663D01*
X115888Y544513D01*
X115888Y539750D01*
X113738Y537600D02*
X104775Y537600D01*
X113738Y537600D02*
X115888Y539750D01*
D30*
X36513Y306388D03*
X52388Y346075D03*
X31750Y374650D03*
X25400Y496888D03*
X33338Y488950D03*
X25400Y488950D03*
X23813Y420688D03*
X30163Y420688D03*
X204788Y209550D03*
D31*
X221688Y209550D01*
D34*
X133350Y208988D02*
X133350Y197238D01*
D31*
X198438Y405488D02*
X198438Y417513D01*
X198438Y405488D02*
X203313Y400613D01*
D30*
X239713Y384175D03*
X220663Y250825D03*
D31*
X225875Y384175D02*
X239713Y384175D01*
X225875Y384175D02*
X225313Y383613D01*
D30*
X30163Y138113D03*
X155575Y117475D03*
D36*
X61000Y17000D03*
D30*
X187325Y531813D03*
X46038Y241300D03*
D31*
X46038Y240275D01*
X220663Y250825D02*
X221688Y250825D01*
D30*
X42863Y366713D03*
X128588Y349250D03*
X128588Y342900D03*
X134938Y349250D03*
X134938Y342900D03*
X30163Y306388D03*
X106363Y146050D03*
D34*
X106363Y147075D01*
D31*
X25400Y141525D02*
X20638Y138113D01*
D30*
X26988Y236538D03*
X26988Y230188D03*
X119063Y439738D03*
D33*
X64263Y446850D02*
X52324Y446850D01*
X64263Y446850D02*
X68263Y442913D01*
D30*
X68263Y442913D03*
D33*
X138176Y430850D02*
X153913Y430850D01*
X156600Y430213D01*
X138176Y438850D02*
X129288Y438850D01*
X119063Y439738D01*
X129538Y430850D02*
X138176Y430850D01*
X129538Y430850D02*
X119063Y439738D01*
X52324Y446850D02*
X37900Y446850D01*
X32313Y452438D01*
D30*
X74613Y366713D03*
D33*
X173101Y338900D02*
X191888Y338900D01*
X192088Y341875D01*
X212725Y341875D01*
X188025Y354900D02*
X173101Y354900D01*
X188025Y354900D02*
X192088Y350838D01*
X192088Y341875D01*
X74613Y366713D02*
X60888Y366713D01*
X78425Y362900D02*
X87249Y362900D01*
X78425Y362900D02*
X74613Y366713D01*
D31*
X197225Y364100D02*
X233363Y364100D01*
X197225Y364100D02*
X188025Y354900D01*
D36*
X187000Y72000D03*
D31*
X18488Y431800D02*
X18488Y440763D01*
X20638Y442913D01*
X30163Y442913D01*
X31750Y444500D01*
X31750Y451875D01*
X32313Y452438D01*
D32*
X16900Y292100D02*
X15875Y292100D01*
D34*
X93100Y195825D02*
X93100Y184150D01*
X93100Y195825D02*
X92075Y196850D01*
D31*
X16900Y292100D02*
X16900Y305500D01*
X14400Y308000D01*
D32*
X20613Y258788D02*
X52363Y258788D01*
X16900Y262500D02*
X16900Y292100D01*
X16900Y262500D02*
X20613Y258788D01*
D30*
X61913Y182563D03*
X68263Y182563D03*
X68263Y176213D03*
X61913Y176213D03*
X82550Y506413D03*
D34*
X83250Y505713D02*
X83250Y493776D01*
X83250Y505713D02*
X82550Y506413D01*
X82550Y515375D01*
X84138Y516963D01*
D36*
X124000Y610000D03*
D31*
X117475Y139700D02*
X102825Y125050D01*
X117475Y139700D02*
X126438Y139700D01*
D36*
X103000Y72000D03*
D31*
X102825Y72175D02*
X102825Y125050D01*
X102825Y72175D02*
X103000Y72000D01*
X52388Y407988D02*
X45013Y407988D01*
X52388Y407988D02*
X63500Y419100D01*
X90488Y419100D01*
X93663Y422275D01*
X93663Y428625D01*
X87313Y434975D01*
X87313Y457200D01*
D30*
X87313Y457200D03*
D31*
X108775Y446850D02*
X138176Y446850D01*
X108775Y446850D02*
X98425Y457200D01*
X87313Y457200D01*
X138113Y525463D02*
X138113Y542925D01*
X141288Y546100D01*
X155575Y546100D01*
X158750Y542925D01*
X196850Y542925D01*
X196850Y600075D01*
D30*
X138113Y525463D03*
D31*
X222250Y517525D02*
X228600Y517525D01*
X222250Y517525D02*
X196850Y542925D01*
D36*
X166000Y610000D03*
D31*
X186925Y610000D01*
X196850Y600075D01*
D30*
X68263Y546100D03*
D31*
X67250Y545088D02*
X67250Y536575D01*
X67250Y545088D02*
X68263Y546100D01*
X64075Y533400D02*
X64063Y533400D01*
X64075Y533400D02*
X67250Y536575D01*
X67250Y502225D02*
X67250Y493776D01*
X67250Y502225D02*
X69850Y504825D01*
X69850Y527613D01*
X64063Y533400D01*
D36*
X166000Y665000D03*
D31*
X130175Y485775D02*
X117475Y473075D01*
X79375Y473075D01*
X75250Y477200D01*
X75250Y493776D01*
X75250Y551500D01*
D34*
X157725Y495863D02*
X158750Y494275D01*
X158750Y495300D02*
X157725Y495863D01*
D31*
X150250Y485775D02*
X130175Y485775D01*
X150250Y485775D02*
X158750Y494275D01*
X47625Y568325D02*
X19050Y568325D01*
X47625Y568325D02*
X57150Y558800D01*
X76200Y558800D01*
X79375Y555625D01*
X75250Y551500D01*
X79375Y555625D02*
X103750Y555625D01*
X104775Y554600D01*
X58738Y579438D02*
X58738Y601663D01*
X58738Y579438D02*
X47625Y568325D01*
D36*
X82000Y610000D03*
D31*
X67075Y610000D01*
X58738Y601663D01*
X148200Y512763D02*
X162950Y512763D01*
X163513Y512763D01*
X165100Y511175D01*
X165100Y528725D01*
X168300Y531925D01*
X87249Y314900D02*
X79950Y314900D01*
X74500Y309450D01*
X42863Y292100D02*
X33900Y292100D01*
X42863Y292100D02*
X52388Y301625D01*
X60413Y301625D01*
X68238Y309450D01*
X74500Y309450D01*
X81600Y322900D02*
X87249Y322900D01*
X81600Y322900D02*
X76200Y317500D01*
X36400Y317500D01*
X15875Y343463D02*
X15875Y358213D01*
X15875Y343463D02*
X16900Y341313D01*
X26988Y317500D02*
X36400Y317500D01*
X26988Y317500D02*
X25400Y319088D01*
X25400Y332813D01*
X16900Y341313D01*
X43500Y470850D02*
X52324Y470850D01*
X43500Y470850D02*
X41275Y473075D01*
X41275Y511175D01*
X42300Y512763D01*
X41275Y512763D01*
X42863Y514350D01*
X44450Y514350D01*
X44450Y533400D01*
X47063Y533400D01*
X44450Y533400D02*
X44450Y536575D01*
X38100Y542925D01*
X19050Y542925D01*
D36*
X82000Y665000D03*
D31*
X52324Y462850D02*
X42538Y462850D01*
X32313Y473075D01*
X32775Y394725D02*
X32775Y387350D01*
X32775Y394725D02*
X34925Y396875D01*
X73025Y396875D01*
X75250Y399100D01*
X75250Y407924D01*
X83250Y407924D02*
X83250Y388800D01*
X79938Y387350D01*
X62938Y387350D02*
X49775Y387350D01*
X48200Y422850D02*
X52324Y422850D01*
X48200Y422850D02*
X42863Y417513D01*
X37538Y417513D01*
X28013Y407988D01*
X107250Y493776D02*
X107250Y506550D01*
X101038Y512763D01*
X59300Y486800D02*
X77788Y468313D01*
X158750Y464113D02*
X158750Y477275D01*
X155900Y462850D02*
X138176Y462850D01*
X155900Y462850D02*
X158750Y464113D01*
X114300Y468313D02*
X77788Y468313D01*
X114300Y468313D02*
X119763Y462850D01*
X138176Y462850D01*
X59300Y486800D02*
X59300Y512763D01*
X138176Y454850D02*
X151013Y454850D01*
X158750Y447113D01*
X115250Y493776D02*
X115250Y509975D01*
X118038Y512763D01*
X118038Y522288D01*
X125413Y529663D01*
X134175Y311975D02*
X134175Y299974D01*
X134175Y311975D02*
X133350Y312738D01*
D30*
X133350Y312738D03*
X87313Y425450D03*
D31*
X53025Y430850D02*
X52324Y430850D01*
X53025Y430850D02*
X53975Y431800D01*
X80963Y431800D01*
X87313Y425450D01*
X52324Y430850D02*
X36438Y430850D01*
X35488Y431800D01*
D30*
X147638Y525463D03*
X109538Y461963D03*
D31*
X80963Y446088D02*
X71438Y436563D01*
X80963Y446088D02*
X80963Y460375D01*
X84138Y463550D01*
X107950Y463550D01*
X109538Y461963D01*
X71438Y436563D02*
X63500Y436563D01*
X61913Y438150D01*
X53024Y438150D01*
X52324Y438850D01*
X147638Y525463D02*
X147638Y537600D01*
D30*
X177800Y550863D03*
D36*
X124000Y665000D03*
D31*
X173101Y370900D02*
X183575Y370900D01*
X185738Y373063D01*
X201613Y373063D01*
X203313Y374763D01*
X203313Y383613D01*
X184150Y383613D01*
X181925Y362900D02*
X173101Y362900D01*
X181925Y362900D02*
X187325Y368300D01*
X206375Y368300D01*
X214313Y376238D01*
X214313Y396875D01*
X215900Y398463D01*
X223163Y398463D01*
X225313Y400613D01*
X225313Y416838D01*
X225988Y417513D01*
D30*
X74613Y449263D03*
D31*
X69025Y454850D02*
X52324Y454850D01*
X69025Y454850D02*
X74613Y449263D01*
D30*
X96838Y449263D03*
X133350Y500063D03*
D31*
X133350Y510613D01*
X131200Y512763D01*
X96838Y449263D02*
X133350Y412750D01*
X133350Y406400D01*
D30*
X133350Y406400D03*
X150813Y400050D03*
D31*
X150813Y386776D01*
X150175Y385826D01*
X110175Y385826D02*
X110175Y394338D01*
X115250Y399413D02*
X115250Y407924D01*
X115250Y399413D02*
X110175Y394338D01*
X110175Y385826D02*
X110175Y370838D01*
X112713Y368300D01*
X112713Y333375D01*
D30*
X112713Y333375D03*
D31*
X102175Y385826D02*
X102175Y394275D01*
X107250Y399350D01*
X107250Y407924D01*
X98425Y311150D02*
X85725Y298450D01*
X98425Y311150D02*
X98425Y319088D01*
X106363Y327025D01*
X106363Y368300D01*
X102175Y372488D02*
X102175Y385826D01*
X102175Y372488D02*
X106363Y368300D01*
D37*
X85725Y298450D03*
D31*
X138176Y422850D02*
X139000Y422850D01*
X118175Y392813D02*
X118175Y385826D01*
X118175Y392813D02*
X122238Y396875D01*
X133350Y396875D01*
X139764Y403289D01*
X139764Y422850D02*
X138176Y422850D01*
X139764Y422850D02*
X139764Y403289D01*
X99250Y399288D02*
X99250Y407924D01*
X99250Y399288D02*
X95250Y395288D01*
D30*
X100013Y347663D03*
D31*
X87249Y370900D02*
X87824Y371475D01*
X100013Y368300D02*
X100013Y347663D01*
X95250Y377825D02*
X95250Y395288D01*
X96838Y371475D02*
X87824Y371475D01*
X96838Y371475D02*
X100013Y368300D01*
X96838Y376238D02*
X95250Y377825D01*
X96838Y376238D02*
X96838Y371475D01*
D30*
X125413Y469900D03*
D31*
X126050Y470850D02*
X138176Y470850D01*
X126050Y470850D02*
X125413Y469900D01*
D30*
X100013Y330200D03*
D31*
X99313Y330900D02*
X87249Y330900D01*
X99313Y330900D02*
X100013Y330200D01*
X87249Y330900D02*
X75875Y330900D01*
X68825Y325438D01*
X87313Y377825D02*
X90488Y381000D01*
X90488Y407162D01*
X91250Y407924D01*
X87313Y377825D02*
X55563Y377825D01*
X52388Y374650D01*
X52388Y360363D01*
X78488Y354900D02*
X87249Y354900D01*
X78488Y354900D02*
X74613Y358775D01*
X53975Y358775D01*
X52388Y360363D01*
X33338Y357188D02*
X31750Y356625D01*
X33338Y357188D02*
X33338Y358775D01*
X50800Y358775D01*
X52388Y360363D01*
X200588Y447675D02*
X206988Y447675D01*
X216513Y438150D01*
X216513Y469900D02*
X200588Y469900D01*
X158175Y397888D02*
X158175Y385826D01*
X158175Y397888D02*
X171450Y411163D01*
X179388Y411163D01*
X195263Y427038D01*
X226400Y427038D01*
X237513Y438150D01*
X165100Y415925D02*
X157163Y407988D01*
X165100Y415925D02*
X165100Y438150D01*
X174625Y447675D01*
X174625Y476250D01*
X177800Y479425D01*
X227988Y479425D01*
X142175Y397763D02*
X142175Y385826D01*
X142175Y397763D02*
X144463Y400050D01*
X144463Y403225D01*
X149225Y407988D01*
X157163Y407988D01*
X227988Y479425D02*
X237513Y469900D01*
D30*
X144463Y139700D03*
D31*
X143438Y139700D01*
X102175Y289938D02*
X102175Y299974D01*
X99575Y287338D02*
X74613Y287338D01*
X99575Y287338D02*
X102175Y289938D01*
X99575Y287338D02*
X105925Y281425D01*
X112713Y274638D01*
X112713Y265113D01*
X120650Y257175D01*
X138113Y257175D01*
X150813Y244475D01*
X58688Y271413D02*
X26988Y271413D01*
X58688Y271413D02*
X74613Y287338D01*
D36*
X61000Y72000D03*
D31*
X15875Y375213D02*
X8500Y375213D01*
X4763Y371475D01*
X4763Y134938D01*
X12700Y127000D01*
X57150Y127000D01*
D36*
X145000Y17000D03*
D31*
X153988Y287338D02*
X184150Y287338D01*
X153988Y287338D02*
X150175Y291150D01*
X150175Y299974D01*
X184150Y287338D02*
X201613Y269875D01*
D30*
X179388Y293688D03*
D36*
X103000Y17000D03*
D31*
X142175Y299974D02*
X142175Y308863D01*
X146050Y312738D01*
X160338Y312738D01*
X179388Y293688D01*
D32*
X61913Y223275D02*
X46038Y223275D01*
X61913Y223275D02*
X61913Y221638D01*
D34*
X142850Y197238D02*
X158575Y197238D01*
X158750Y200588D01*
X123850Y199463D02*
X123850Y215313D01*
X121675Y214313D01*
X123850Y199463D02*
X104775Y199463D01*
X110100Y194138D02*
X110100Y184150D01*
X110100Y194138D02*
X104775Y199463D01*
D36*
X145000Y72000D03*
D31*
X222275Y260375D02*
X222275Y267900D01*
X222275Y260375D02*
X220663Y258763D01*
X212725Y258763D01*
X201613Y247650D01*
X201613Y244475D01*
X230188Y292488D02*
X230188Y343925D01*
X233363Y347100D01*
D30*
X209550Y354013D03*
D31*
X219075Y354013D01*
X225988Y347100D01*
X233363Y347100D01*
D30*
X147638Y347663D03*
D31*
X147638Y338138D02*
X126175Y316675D01*
X147638Y338138D02*
X147638Y347663D01*
X230188Y292488D02*
X231775Y290900D01*
X126175Y299974D02*
X126175Y316675D01*
X126175Y299974D02*
X126175Y291338D01*
X130175Y287338D01*
X139700Y287338D01*
X144463Y282575D01*
X163513Y282575D01*
X176213Y269875D01*
X238100Y307388D02*
X238688Y307975D01*
X238100Y307388D02*
X238100Y334938D01*
X242888Y339725D01*
X242888Y352425D01*
X239713Y355600D01*
X223838Y355600D01*
X219075Y360363D01*
X203200Y360363D01*
X200025Y357188D01*
D30*
X200025Y357188D03*
D31*
X118175Y308675D02*
X118175Y299974D01*
X118175Y308675D02*
X122238Y312738D01*
X122238Y319088D01*
X141288Y338138D01*
X141288Y350838D01*
X147638Y357188D01*
D30*
X147638Y357188D03*
D31*
X118175Y299974D02*
X118175Y289813D01*
X241275Y290900D02*
X241275Y305388D01*
X238688Y307975D01*
X125413Y282575D02*
X118175Y289813D01*
X125413Y282575D02*
X138113Y282575D01*
X150813Y269875D01*
D33*
X87249Y346900D02*
X69650Y346900D01*
X68825Y346075D01*
D31*
X242888Y209550D02*
X242888Y96838D01*
X242888Y209550D02*
X242888Y224863D01*
X238688Y230188D01*
D36*
X187000Y17000D03*
D31*
X187000Y40950D02*
X242888Y96838D01*
X187000Y40950D02*
X187000Y17000D01*
D32*
X238688Y209550D02*
X242888Y209550D01*
D30*
X184150Y307975D03*
X220663Y230188D03*
D31*
X221688Y230188D01*
X181988Y314900D02*
X173101Y314900D01*
X181988Y314900D02*
X184150Y312738D01*
X184150Y307975D01*
X123850Y174238D02*
X123850Y161338D01*
X123263Y160338D01*
D32*
X119525Y164075D02*
X106363Y164075D01*
X119525Y164075D02*
X123263Y160338D01*
D34*
X104775Y216463D02*
X85725Y216463D01*
M02*
