M48
;GenerationSoftware,Autodesk,EAGLE,9.6.1*%
;CreationDate,2021-02-03T15:33:22Z*%
FMAT,2
ICI,OFF
METRIC,TZ,000.000
T5C0.254
T4C0.305
T3C1.016
T2C1.397
T1C3.200
%
G90
M71
T1
X3000Y64000
X22000Y4000
X22000Y64000
X3000Y4000
T2
X18700Y7200
X6100Y1700
X12400Y66500
X12400Y61000
X10300Y7200
X16600Y61000
X16600Y66500
X8200Y61000
X8200Y66500
X6100Y7200
X14500Y1700
X10300Y1700
X14500Y7200
X18700Y1700
T3
X22860Y56832
X1905Y56832
X1905Y54292
X1905Y51752
X22860Y54292
X22860Y51752
X22860Y49212
X7461Y24447
X7461Y26987
X10001Y24447
X10001Y26987
X12541Y24447
X12541Y26987
X15081Y24447
X15081Y26987
X17621Y24447
X17621Y26987
X20161Y24447
X20161Y26987
T4
X2540Y48895
X2381Y42069
X3016Y42069
X20479Y20955
X23971Y38418
X22066Y25082
X3016Y13811
X15557Y11747
X18733Y53181
X4604Y24130
X4286Y36671
X12859Y34925
X13494Y34925
X13494Y34290
X3016Y30639
X10636Y14605
X2699Y23654
X2699Y23019
X11906Y43974
X6826Y44291
X7461Y36671
X6191Y18256
X6826Y18256
X6826Y17621
X6191Y17621
X4604Y20320
X3334Y49689
X9366Y48101
X8731Y45720
X13811Y52546
X8414Y54451
X6826Y54610
X17463Y43021
X18415Y40164
X19844Y41751
X13335Y31274
X8731Y42545
X14764Y52546
X10954Y46196
X17780Y55086
X8255Y50641
X7461Y44926
X9684Y44926
X13335Y50006
X13335Y40640
X15081Y40005
X11271Y33338
X10001Y34766
X12541Y46990
X10001Y33020
X14446Y13970
X5239Y32544
X5874Y30956
X17939Y29369
X13335Y10478
X13335Y11112
X20955Y35401
X14764Y34766
X20003Y35719
X14764Y35719
X15557Y11112
X18415Y30797
X22066Y23019
X15557Y10478
X13335Y11747
X4604Y20955
X13970Y21431
X2064Y13811
X2064Y14605
X3016Y14605
X12859Y34290
X10478Y52705
X18098Y51276
X3334Y34131
X19209Y31274
X20479Y31274
X16034Y33020
X16034Y34608
X18256Y44767
X18256Y46990
X22225Y29051
X3651Y30639
X5239Y34608
X3175Y37465
X2540Y49689
X3334Y48895
T5
X8573Y29845
M30