G04 EAGLE Gerber RS-274X export*
G75*
%MOMM*%
%FSLAX34Y34*%
%LPD*%
%INSilkscreen Bottom*%
%IPPOS*%
%AMOC8*
5,1,8,0,0,1.08239X$1,22.5*%
G01*
%ADD10C,0.330200*%
%ADD11C,0.101600*%
%ADD12C,0.177800*%
%ADD13C,0.203200*%


D10*
X237945Y420751D02*
X237945Y459392D01*
X218624Y459392D01*
X212184Y452952D01*
X212184Y446512D01*
X218624Y440072D01*
X212184Y433631D01*
X212184Y427191D01*
X218624Y420751D01*
X237945Y420751D01*
X237945Y440072D02*
X218624Y440072D01*
X199354Y459392D02*
X199354Y420751D01*
X173594Y420751D01*
X141444Y420751D02*
X141444Y459392D01*
X160764Y440072D01*
X135004Y440072D01*
X122174Y427191D02*
X115734Y420751D01*
X102854Y420751D01*
X96413Y427191D01*
X96413Y452952D01*
X102854Y459392D01*
X115734Y459392D01*
X122174Y452952D01*
X122174Y446512D01*
X115734Y440072D01*
X96413Y440072D01*
X83584Y420751D02*
X64263Y420751D01*
X57823Y427191D01*
X64263Y433631D01*
X77144Y433631D01*
X83584Y440072D01*
X77144Y446512D01*
X57823Y446512D01*
X44994Y446512D02*
X44994Y407871D01*
X44994Y446512D02*
X25673Y446512D01*
X19233Y440072D01*
X19233Y427191D01*
X25673Y420751D01*
X44994Y420751D01*
D11*
X54483Y558868D02*
X54483Y562766D01*
X54483Y560817D02*
X66177Y560817D01*
X66177Y558868D02*
X66177Y562766D01*
X62279Y566664D02*
X54483Y566664D01*
X62279Y566664D02*
X66177Y570562D01*
X62279Y574460D01*
X54483Y574460D01*
X60330Y574460D02*
X60330Y566664D01*
X123830Y539378D02*
X123830Y531582D01*
X127728Y535480D02*
X119932Y535480D01*
X125779Y543276D02*
X129677Y547174D01*
X117983Y547174D01*
X117983Y543276D02*
X117983Y551072D01*
X117983Y554970D02*
X117983Y562766D01*
X117983Y554970D02*
X125779Y562766D01*
X127728Y562766D01*
X129677Y560817D01*
X129677Y556919D01*
X127728Y554970D01*
X129677Y566664D02*
X121881Y566664D01*
X117983Y570562D01*
X121881Y574460D01*
X129677Y574460D01*
X187833Y562766D02*
X187833Y558868D01*
X187833Y560817D02*
X199527Y560817D01*
X199527Y558868D02*
X199527Y562766D01*
X199527Y566664D02*
X187833Y566664D01*
X199527Y566664D02*
X199527Y572511D01*
X197578Y574460D01*
X193680Y574460D01*
X191731Y572511D01*
X191731Y566664D01*
X86814Y554970D02*
X77069Y554970D01*
X75121Y556919D01*
X75121Y560817D01*
X77069Y562766D01*
X86814Y562766D01*
X86814Y566664D02*
X75121Y566664D01*
X75121Y574460D02*
X86814Y566664D01*
X86814Y574460D02*
X75121Y574460D01*
X137033Y519888D02*
X148727Y519888D01*
X142880Y519888D02*
X142880Y527684D01*
X148727Y527684D02*
X137033Y527684D01*
X148727Y531582D02*
X148727Y539378D01*
X148727Y531582D02*
X137033Y531582D01*
X137033Y539378D01*
X142880Y535480D02*
X142880Y531582D01*
X144829Y543276D02*
X137033Y543276D01*
X144829Y543276D02*
X148727Y547174D01*
X144829Y551072D01*
X137033Y551072D01*
X142880Y551072D02*
X142880Y543276D01*
X137033Y558868D02*
X148727Y558868D01*
X148727Y554970D02*
X148727Y562766D01*
X142880Y566664D02*
X142880Y574460D01*
X164743Y554970D02*
X172539Y554970D01*
X164743Y554970D02*
X160846Y558868D01*
X164743Y562766D01*
X172539Y562766D01*
X172539Y566664D02*
X160846Y566664D01*
X168641Y570562D02*
X172539Y566664D01*
X168641Y570562D02*
X172539Y574460D01*
X160846Y574460D01*
D12*
X222894Y394589D02*
X229928Y394589D01*
X222894Y394589D02*
X219378Y398106D01*
X219378Y405139D01*
X222894Y408656D01*
X229928Y408656D01*
X233444Y405139D01*
X233444Y398106D01*
X229928Y394589D01*
X208878Y394589D02*
X201845Y394589D01*
X208878Y394589D02*
X212395Y398106D01*
X212395Y405139D01*
X208878Y408656D01*
X201845Y408656D01*
X198328Y405139D01*
X198328Y401622D01*
X212395Y401622D01*
X191346Y415689D02*
X187829Y415689D01*
X187829Y394589D01*
X184313Y394589D02*
X191346Y394589D01*
X177313Y387556D02*
X177313Y408656D01*
X166763Y408656D01*
X163246Y405139D01*
X163246Y398106D01*
X166763Y394589D01*
X177313Y394589D01*
X156264Y394589D02*
X156264Y408656D01*
X149231Y408656D02*
X156264Y401622D01*
X149231Y408656D02*
X145714Y408656D01*
X138723Y408656D02*
X135206Y408656D01*
X135206Y394589D01*
X131690Y394589D02*
X138723Y394589D01*
X135206Y415689D02*
X135206Y419206D01*
X124690Y408656D02*
X124690Y394589D01*
X124690Y408656D02*
X114140Y408656D01*
X110623Y405139D01*
X110623Y394589D01*
X103641Y408656D02*
X89574Y408656D01*
X103641Y394589D01*
X89574Y394589D01*
X82592Y394589D02*
X82592Y398106D01*
X79075Y398106D01*
X79075Y394589D01*
X82592Y394589D01*
X68551Y394589D02*
X61517Y394589D01*
X58001Y398106D01*
X58001Y405139D01*
X61517Y408656D01*
X68551Y408656D01*
X72067Y405139D01*
X72067Y398106D01*
X68551Y394589D01*
X51018Y394589D02*
X51018Y408656D01*
X43985Y408656D02*
X51018Y401622D01*
X43985Y408656D02*
X40468Y408656D01*
X26444Y387556D02*
X22927Y387556D01*
X19410Y391072D01*
X19410Y408656D01*
X29960Y408656D01*
X33477Y405139D01*
X33477Y398106D01*
X29960Y394589D01*
X19410Y394589D01*
D11*
X160846Y99656D02*
X172539Y99656D01*
X172539Y95758D02*
X172539Y103554D01*
X172539Y107452D02*
X160846Y115248D01*
X160846Y107452D02*
X172539Y115248D01*
X172539Y119146D02*
X160846Y119146D01*
X160846Y124993D01*
X162794Y126942D01*
X170590Y126942D01*
X172539Y124993D01*
X172539Y119146D01*
X129677Y95758D02*
X117983Y95758D01*
X129677Y95758D02*
X129677Y101605D01*
X127728Y103554D01*
X123830Y103554D01*
X121881Y101605D01*
X121881Y95758D01*
X121881Y99656D02*
X117983Y103554D01*
X117983Y115248D02*
X129677Y107452D01*
X129677Y115248D02*
X117983Y107452D01*
X117983Y119146D02*
X129677Y119146D01*
X117983Y119146D02*
X117983Y124993D01*
X119932Y126942D01*
X127728Y126942D01*
X129677Y124993D01*
X129677Y119146D01*
X88402Y101605D02*
X86453Y103554D01*
X88402Y101605D02*
X88402Y97707D01*
X86453Y95758D01*
X78657Y95758D01*
X76708Y97707D01*
X76708Y101605D01*
X78657Y103554D01*
X82555Y103554D01*
X82555Y99656D01*
X76708Y107452D02*
X88402Y107452D01*
X76708Y115248D01*
X88402Y115248D01*
X88402Y119146D02*
X76708Y119146D01*
X76708Y124993D01*
X78657Y126942D01*
X86453Y126942D01*
X88402Y124993D01*
X88402Y119146D01*
X150314Y101605D02*
X150314Y97707D01*
X148365Y95758D01*
X140569Y95758D01*
X138621Y97707D01*
X138621Y101605D01*
X140569Y103554D01*
X148365Y103554D01*
X150314Y101605D01*
X150314Y107452D02*
X140569Y107452D01*
X138621Y109401D01*
X138621Y113299D01*
X140569Y115248D01*
X150314Y115248D01*
X150314Y123044D02*
X138621Y123044D01*
X150314Y119146D02*
X150314Y126942D01*
X97346Y99656D02*
X97346Y95758D01*
X97346Y97707D02*
X109039Y97707D01*
X109039Y95758D02*
X109039Y99656D01*
X109039Y103554D02*
X97346Y103554D01*
X97346Y111350D02*
X109039Y103554D01*
X109039Y111350D02*
X97346Y111350D01*
X60330Y103554D02*
X60330Y95758D01*
X64228Y99656D02*
X56432Y99656D01*
X56432Y107452D02*
X66177Y107452D01*
X56432Y107452D02*
X54483Y109401D01*
X54483Y113299D01*
X56432Y115248D01*
X66177Y115248D01*
X66177Y119146D02*
X54483Y119146D01*
X66177Y119146D02*
X66177Y124993D01*
X64228Y126942D01*
X62279Y126942D01*
X60330Y124993D01*
X58381Y126942D01*
X56432Y126942D01*
X54483Y124993D01*
X54483Y119146D01*
X60330Y119146D02*
X60330Y124993D01*
X187330Y103554D02*
X187330Y95758D01*
X191228Y99656D02*
X183432Y99656D01*
X193177Y107452D02*
X193177Y115248D01*
X193177Y107452D02*
X187330Y107452D01*
X189279Y111350D01*
X189279Y113299D01*
X187330Y115248D01*
X183432Y115248D01*
X181483Y113299D01*
X181483Y109401D01*
X183432Y107452D01*
X185381Y119146D02*
X193177Y119146D01*
X185381Y119146D02*
X181483Y123044D01*
X185381Y126942D01*
X193177Y126942D01*
D13*
X82550Y92075D02*
X82550Y38100D01*
X73025Y28575D01*
X60325Y85725D02*
X60325Y92075D01*
X103188Y92075D02*
X103188Y85725D01*
X123825Y92075D02*
X123825Y38100D01*
X114300Y28575D01*
X144463Y85725D02*
X144463Y92075D01*
X166688Y92075D02*
X166688Y38100D01*
X157163Y28575D01*
X187325Y85725D02*
X187325Y92075D01*
X60325Y581025D02*
X60325Y644525D01*
X69850Y654050D01*
X123825Y596900D02*
X123825Y581025D01*
X142875Y581025D02*
X142875Y647700D01*
X136525Y654050D01*
X193675Y638175D02*
X193675Y581025D01*
X193675Y638175D02*
X177800Y654050D01*
X80963Y596900D02*
X80963Y581025D01*
X166688Y581025D02*
X166688Y596900D01*
D11*
X202121Y95758D02*
X213814Y95758D01*
X213814Y101605D01*
X211865Y103554D01*
X207967Y103554D01*
X206018Y101605D01*
X206018Y95758D01*
X202121Y107452D02*
X213814Y107452D01*
X206018Y111350D02*
X202121Y107452D01*
X206018Y111350D02*
X202121Y115248D01*
X213814Y115248D01*
X213814Y119146D02*
X202121Y119146D01*
X209916Y123044D02*
X213814Y119146D01*
X209916Y123044D02*
X213814Y126942D01*
X202121Y126942D01*
D13*
X207963Y38100D02*
X198438Y28575D01*
X207963Y38100D02*
X207963Y92075D01*
D11*
X80464Y187818D02*
X68771Y187818D01*
X76566Y191716D02*
X80464Y187818D01*
X76566Y191716D02*
X80464Y195614D01*
X68771Y195614D01*
X68771Y199512D02*
X68771Y203409D01*
X68771Y201460D02*
X80464Y201460D01*
X80464Y199512D02*
X80464Y203409D01*
X80464Y213154D02*
X78515Y215103D01*
X80464Y213154D02*
X80464Y209256D01*
X78515Y207307D01*
X76566Y207307D01*
X74617Y209256D01*
X74617Y213154D01*
X72668Y215103D01*
X70719Y215103D01*
X68771Y213154D01*
X68771Y209256D01*
X70719Y207307D01*
X80464Y220950D02*
X80464Y224848D01*
X80464Y220950D02*
X78515Y219001D01*
X70719Y219001D01*
X68771Y220950D01*
X68771Y224848D01*
X70719Y226797D01*
X78515Y226797D01*
X80464Y224848D01*
X103915Y203410D02*
X105864Y201461D01*
X105864Y197563D01*
X103915Y195614D01*
X101966Y195614D01*
X100017Y197563D01*
X100017Y201461D01*
X98068Y203410D01*
X96119Y203410D01*
X94171Y201461D01*
X94171Y197563D01*
X96119Y195614D01*
X105864Y213154D02*
X103915Y215103D01*
X105864Y213154D02*
X105864Y209256D01*
X103915Y207308D01*
X96119Y207308D01*
X94171Y209256D01*
X94171Y213154D01*
X96119Y215103D01*
X94171Y219001D02*
X105864Y219001D01*
X98068Y219001D02*
X105864Y226797D01*
X100017Y220950D02*
X94171Y226797D01*
X133287Y230188D02*
X133287Y195106D01*
X131264Y195614D02*
X119571Y195614D01*
X131264Y195614D02*
X131264Y201461D01*
X129315Y203410D01*
X125417Y203410D01*
X123468Y201461D01*
X123468Y195614D01*
X123468Y199512D02*
X119571Y203410D01*
X129315Y215103D02*
X131264Y213154D01*
X131264Y209256D01*
X129315Y207308D01*
X127366Y207308D01*
X125417Y209256D01*
X125417Y213154D01*
X123468Y215103D01*
X121519Y215103D01*
X119571Y213154D01*
X119571Y209256D01*
X121519Y207308D01*
X119571Y222899D02*
X131264Y222899D01*
X131264Y219001D02*
X131264Y226797D01*
X144971Y195614D02*
X156664Y195614D01*
X156664Y201461D01*
X154715Y203410D01*
X150817Y203410D01*
X148868Y201461D01*
X148868Y195614D01*
X156664Y213154D02*
X154715Y215103D01*
X156664Y213154D02*
X156664Y209256D01*
X154715Y207308D01*
X146919Y207308D01*
X144971Y209256D01*
X144971Y213154D01*
X146919Y215103D01*
X144971Y219001D02*
X144971Y226797D01*
X152766Y226797D02*
X144971Y219001D01*
X152766Y226797D02*
X154715Y226797D01*
X156664Y224848D01*
X156664Y220950D01*
X154715Y219001D01*
X170371Y195614D02*
X182064Y195614D01*
X182064Y201461D01*
X180115Y203410D01*
X176217Y203410D01*
X174268Y201461D01*
X174268Y195614D01*
X174268Y199512D02*
X170371Y203410D01*
X170371Y215103D02*
X182064Y207308D01*
X182064Y215103D02*
X170371Y207308D01*
X170371Y219001D02*
X182064Y219001D01*
X170371Y219001D02*
X170371Y224848D01*
X172319Y226797D01*
X180115Y226797D01*
X182064Y224848D01*
X182064Y219001D01*
X207464Y201461D02*
X207464Y197563D01*
X205515Y195614D01*
X197719Y195614D01*
X195771Y197563D01*
X195771Y201461D01*
X197719Y203410D01*
X205515Y203410D01*
X207464Y201461D01*
X207464Y207308D02*
X197719Y207308D01*
X195771Y209256D01*
X195771Y213154D01*
X197719Y215103D01*
X207464Y215103D01*
X207464Y222899D02*
X195771Y222899D01*
X207464Y219001D02*
X207464Y226797D01*
X74617Y284671D02*
X74617Y292466D01*
X78515Y288568D02*
X70719Y288568D01*
X80464Y296364D02*
X80464Y304160D01*
X80464Y296364D02*
X74617Y296364D01*
X76566Y300262D01*
X76566Y302211D01*
X74617Y304160D01*
X70719Y304160D01*
X68771Y302211D01*
X68771Y298313D01*
X70719Y296364D01*
X72668Y308058D02*
X80464Y308058D01*
X72668Y308058D02*
X68771Y311956D01*
X72668Y315854D01*
X80464Y315854D01*
X94171Y284671D02*
X105864Y284671D01*
X101966Y288568D01*
X105864Y292466D01*
X94171Y292466D01*
X105864Y298313D02*
X105864Y302211D01*
X105864Y298313D02*
X103915Y296364D01*
X96119Y296364D01*
X94171Y298313D01*
X94171Y302211D01*
X96119Y304160D01*
X103915Y304160D01*
X105864Y302211D01*
X105864Y313905D02*
X103915Y315854D01*
X105864Y313905D02*
X105864Y310007D01*
X103915Y308058D01*
X101966Y308058D01*
X100017Y310007D01*
X100017Y313905D01*
X98068Y315854D01*
X96119Y315854D01*
X94171Y313905D01*
X94171Y310007D01*
X96119Y308058D01*
X94171Y319752D02*
X94171Y323650D01*
X94171Y321701D02*
X105864Y321701D01*
X105864Y319752D02*
X105864Y323650D01*
X129315Y292466D02*
X131264Y290517D01*
X131264Y286619D01*
X129315Y284671D01*
X121519Y284671D01*
X119571Y286619D01*
X119571Y290517D01*
X121519Y292466D01*
X125417Y292466D01*
X125417Y288568D01*
X119571Y296364D02*
X131264Y296364D01*
X119571Y304160D01*
X131264Y304160D01*
X131264Y308058D02*
X119571Y308058D01*
X119571Y313905D01*
X121519Y315854D01*
X129315Y315854D01*
X131264Y313905D01*
X131264Y308058D01*
X154715Y292466D02*
X156664Y290517D01*
X156664Y286619D01*
X154715Y284671D01*
X152766Y284671D01*
X150817Y286619D01*
X150817Y290517D01*
X148868Y292466D01*
X146919Y292466D01*
X144971Y290517D01*
X144971Y286619D01*
X146919Y284671D01*
X144971Y296364D02*
X156664Y296364D01*
X144971Y296364D02*
X144971Y302211D01*
X146919Y304160D01*
X154715Y304160D01*
X156664Y302211D01*
X156664Y296364D01*
X152766Y308058D02*
X144971Y308058D01*
X152766Y308058D02*
X156664Y311956D01*
X152766Y315854D01*
X144971Y315854D01*
X150817Y315854D02*
X150817Y308058D01*
X180115Y292466D02*
X182064Y290517D01*
X182064Y286619D01*
X180115Y284671D01*
X178166Y284671D01*
X176217Y286619D01*
X176217Y290517D01*
X174268Y292466D01*
X172319Y292466D01*
X170371Y290517D01*
X170371Y286619D01*
X172319Y284671D01*
X182064Y302211D02*
X180115Y304160D01*
X182064Y302211D02*
X182064Y298313D01*
X180115Y296364D01*
X172319Y296364D01*
X170371Y298313D01*
X170371Y302211D01*
X172319Y304160D01*
X170371Y308058D02*
X182064Y308058D01*
X170371Y308058D02*
X170371Y315854D01*
X195771Y288568D02*
X207464Y288568D01*
X207464Y284671D02*
X207464Y292466D01*
X207464Y296364D02*
X195771Y304160D01*
X195771Y296364D02*
X207464Y304160D01*
X207464Y308058D02*
X195771Y308058D01*
X195771Y313905D01*
X197719Y315854D01*
X205515Y315854D01*
X207464Y313905D01*
X207464Y308058D01*
M02*
