G04 EAGLE Gerber RS-274X export*
G75*
%MOMM*%
%FSLAX34Y34*%
%LPD*%
%INSoldermask Top*%
%IPPOS*%
%AMOC8*
5,1,8,0,0,1.08239X$1,22.5*%
G01*
%ADD10C,3.403200*%
%ADD11R,1.303200X1.203200*%
%ADD12R,1.203200X1.303200*%
%ADD13R,0.903200X1.203200*%
%ADD14R,1.473200X0.762000*%
%ADD15R,0.762000X1.473200*%
%ADD16R,1.603200X1.203200*%
%ADD17R,1.403200X1.403200*%
%ADD18R,2.363200X1.983200*%
%ADD19R,1.403200X3.003200*%
%ADD20C,1.727200*%
%ADD21R,0.803200X1.103200*%
%ADD22R,1.603200X1.403200*%
%ADD23R,1.503200X1.703200*%
%ADD24R,1.803200X2.003200*%
%ADD25R,2.303200X1.703200*%
%ADD26R,2.603200X2.003200*%
%ADD27R,1.203200X1.603200*%
%ADD28P,1.869504X8X22.500000*%
%ADD29R,1.703200X2.703200*%
%ADD30R,1.603200X1.603200*%
%ADD31C,0.914400*%
%ADD32R,2.298700X2.298700*%
%ADD33C,0.863600*%


D10*
X30000Y40000D03*
X220000Y40000D03*
X220000Y640000D03*
X30000Y640000D03*
D11*
X32313Y452438D03*
X15313Y452438D03*
X156600Y430213D03*
X173600Y430213D03*
D12*
X84138Y533963D03*
X84138Y516963D03*
D11*
X79938Y387350D03*
X62938Y387350D03*
D12*
X125413Y546663D03*
X125413Y529663D03*
D13*
X58738Y287450D03*
X49238Y309450D03*
X68238Y309450D03*
D12*
X45013Y407988D03*
X28013Y407988D03*
X64063Y533400D03*
X47063Y533400D03*
X15313Y473075D03*
X32313Y473075D03*
X32775Y387350D03*
X49775Y387350D03*
X118038Y512763D03*
X101038Y512763D03*
D11*
X158750Y494275D03*
X158750Y477275D03*
X158750Y464113D03*
X158750Y447113D03*
D12*
X42300Y512763D03*
X59300Y512763D03*
X33900Y341313D03*
X16900Y341313D03*
D11*
X15875Y358213D03*
X15875Y375213D03*
D12*
X16900Y292100D03*
X33900Y292100D03*
X148200Y512763D03*
X131200Y512763D03*
D11*
X147638Y554600D03*
X147638Y537600D03*
D12*
X179950Y512763D03*
X162950Y512763D03*
D14*
X52324Y478850D03*
X52324Y470850D03*
X52324Y462850D03*
X52324Y454850D03*
X52324Y446850D03*
X52324Y438850D03*
X52324Y430850D03*
X52324Y422850D03*
D15*
X67250Y407924D03*
X75250Y407924D03*
X83250Y407924D03*
X91250Y407924D03*
X99250Y407924D03*
X107250Y407924D03*
X115250Y407924D03*
X123250Y407924D03*
D14*
X138176Y422850D03*
X138176Y430850D03*
X138176Y438850D03*
X138176Y446850D03*
X138176Y454850D03*
X138176Y462850D03*
X138176Y470850D03*
X138176Y478850D03*
D15*
X123250Y493776D03*
X115250Y493776D03*
X107250Y493776D03*
X99250Y493776D03*
X91250Y493776D03*
X83250Y493776D03*
X75250Y493776D03*
X67250Y493776D03*
D12*
X184150Y400613D03*
X184150Y383613D03*
D11*
X208988Y417513D03*
X225988Y417513D03*
D12*
X212725Y341875D03*
X212725Y324875D03*
X18488Y431800D03*
X35488Y431800D03*
X31750Y373625D03*
X31750Y356625D03*
D11*
X51825Y325438D03*
X68825Y325438D03*
D16*
X36400Y317500D03*
X14400Y308000D03*
X14400Y327000D03*
D12*
X200588Y447675D03*
X183588Y447675D03*
D17*
X216513Y438150D03*
X237513Y438150D03*
D12*
X200588Y469900D03*
X183588Y469900D03*
D17*
X216513Y469900D03*
X237513Y469900D03*
D12*
X143438Y139700D03*
X126438Y139700D03*
D11*
X68825Y346075D03*
X51825Y346075D03*
D12*
X192088Y324875D03*
X192088Y341875D03*
D18*
X25400Y182225D03*
X25400Y141525D03*
D11*
X46038Y223275D03*
X46038Y240275D03*
D17*
X61913Y221638D03*
X61913Y200638D03*
D19*
X119688Y111125D03*
X86688Y111125D03*
D12*
X158750Y183588D03*
X158750Y200588D03*
X121675Y214313D03*
X138675Y214313D03*
D11*
X104775Y199463D03*
X104775Y216463D03*
D12*
X104775Y537600D03*
X104775Y554600D03*
D14*
X173101Y314900D03*
X173101Y322900D03*
X173101Y330900D03*
X173101Y338900D03*
X173101Y346900D03*
X173101Y354900D03*
X173101Y362900D03*
X173101Y370900D03*
D15*
X158175Y385826D03*
X150175Y385826D03*
X142175Y385826D03*
X134175Y385826D03*
X126175Y385826D03*
X118175Y385826D03*
X110175Y385826D03*
X102175Y385826D03*
D14*
X87249Y370900D03*
X87249Y362900D03*
X87249Y354900D03*
X87249Y346900D03*
X87249Y338900D03*
X87249Y330900D03*
X87249Y322900D03*
X87249Y314900D03*
D15*
X102175Y299974D03*
X110175Y299974D03*
X118175Y299974D03*
X126175Y299974D03*
X134175Y299974D03*
X142175Y299974D03*
X150175Y299974D03*
X158175Y299974D03*
D20*
X26670Y568325D02*
X11430Y568325D01*
X11430Y542925D02*
X26670Y542925D01*
X26670Y517525D02*
X11430Y517525D01*
D21*
X222275Y267900D03*
X231775Y267900D03*
X241275Y267900D03*
X241275Y290900D03*
X231775Y290900D03*
X222275Y290900D03*
D12*
X238688Y307975D03*
X221688Y307975D03*
D11*
X233363Y364100D03*
X233363Y347100D03*
X221688Y250825D03*
X238688Y250825D03*
X43888Y366713D03*
X60888Y366713D03*
D20*
X220980Y568325D02*
X236220Y568325D01*
X236220Y542925D02*
X220980Y542925D01*
X220980Y517525D02*
X236220Y517525D01*
X236220Y492125D02*
X220980Y492125D01*
D12*
X221688Y230188D03*
X238688Y230188D03*
D11*
X221688Y209550D03*
X238688Y209550D03*
D21*
X142850Y197238D03*
X133350Y197238D03*
X123850Y197238D03*
X123850Y174238D03*
X133350Y174238D03*
X142850Y174238D03*
D12*
X140263Y160338D03*
X123263Y160338D03*
D22*
X203313Y383613D03*
X225313Y383613D03*
X225313Y400613D03*
X203313Y400613D03*
D23*
X184175Y114300D03*
X203175Y114300D03*
D24*
X44163Y206375D03*
X16163Y206375D03*
D25*
X163513Y131225D03*
X163513Y167225D03*
D26*
X65088Y180588D03*
X65088Y140088D03*
D27*
X177800Y553925D03*
X187300Y531925D03*
X168300Y531925D03*
D28*
X74613Y244475D03*
X74613Y269875D03*
X100013Y244475D03*
X100013Y269875D03*
X125413Y244475D03*
X125413Y269875D03*
X150813Y244475D03*
X150813Y269875D03*
X176213Y244475D03*
X176213Y269875D03*
X201613Y244475D03*
X201613Y269875D03*
D11*
X106363Y164075D03*
X106363Y147075D03*
X85725Y216463D03*
X85725Y199463D03*
X110100Y184150D03*
X93100Y184150D03*
D29*
X218525Y166688D03*
X181525Y166688D03*
D30*
X26988Y271413D03*
X26988Y233413D03*
D31*
X33338Y496888D03*
X93663Y481013D03*
X84138Y544513D03*
X174625Y430213D03*
X184150Y401638D03*
X198438Y417513D03*
X52388Y325438D03*
X58738Y309563D03*
X133350Y104775D03*
X133350Y111125D03*
X155575Y111125D03*
X155575Y104775D03*
X133350Y117475D03*
X46038Y209550D03*
X139700Y214313D03*
X46038Y203200D03*
X20638Y138113D03*
X20638Y146050D03*
X30163Y146050D03*
X104775Y527050D03*
X180975Y512763D03*
X33338Y341313D03*
X192088Y312738D03*
X204788Y312738D03*
X160338Y330200D03*
X160338Y346075D03*
X182563Y447675D03*
X182563Y469900D03*
X222250Y290513D03*
X36513Y306388D03*
X52388Y346075D03*
X31750Y374650D03*
X25400Y496888D03*
X33338Y488950D03*
X25400Y488950D03*
X23813Y420688D03*
X30163Y420688D03*
X204788Y209550D03*
X239713Y384175D03*
X220663Y250825D03*
X30163Y138113D03*
X155575Y117475D03*
D32*
X61000Y17000D03*
D31*
X187325Y531813D03*
X46038Y241300D03*
X42863Y366713D03*
X128588Y349250D03*
X128588Y342900D03*
X134938Y349250D03*
X134938Y342900D03*
X30163Y306388D03*
X106363Y146050D03*
X26988Y236538D03*
X26988Y230188D03*
X119063Y439738D03*
X68263Y442913D03*
X74613Y366713D03*
D32*
X187000Y72000D03*
D31*
X61913Y182563D03*
X68263Y182563D03*
X68263Y176213D03*
X61913Y176213D03*
X82550Y506413D03*
D32*
X124000Y610000D03*
X103000Y72000D03*
D31*
X87313Y457200D03*
X138113Y525463D03*
D32*
X166000Y610000D03*
D31*
X68263Y546100D03*
D32*
X166000Y665000D03*
X82000Y610000D03*
X82000Y665000D03*
D31*
X133350Y312738D03*
X87313Y425450D03*
X147638Y525463D03*
X109538Y461963D03*
X177800Y550863D03*
D32*
X124000Y665000D03*
D31*
X74613Y449263D03*
X96838Y449263D03*
X133350Y500063D03*
X133350Y406400D03*
X150813Y400050D03*
X112713Y333375D03*
D33*
X85725Y298450D03*
D31*
X100013Y347663D03*
X125413Y469900D03*
X100013Y330200D03*
X144463Y139700D03*
D32*
X61000Y72000D03*
X145000Y17000D03*
D31*
X160338Y312738D03*
D32*
X103000Y17000D03*
X145000Y72000D03*
D31*
X209550Y354013D03*
X147638Y347663D03*
X200025Y357188D03*
X147638Y357188D03*
D32*
X187000Y17000D03*
D31*
X184150Y307975D03*
X220663Y230188D03*
M02*
