G04 EAGLE Gerber RS-274X export*
G75*
%MOMM*%
%FSLAX34Y34*%
%LPD*%
%INSolderpaste Top*%
%IPPOS*%
%AMOC8*
5,1,8,0,0,1.08239X$1,22.5*%
G01*
%ADD10R,1.100000X1.000000*%
%ADD11R,1.000000X1.100000*%
%ADD12R,0.700000X1.000000*%
%ADD13R,1.270000X0.558800*%
%ADD14R,0.558800X1.270000*%
%ADD15R,1.400000X1.000000*%
%ADD16R,1.200000X1.200000*%
%ADD17R,2.160000X1.780000*%
%ADD18R,1.200000X2.800000*%
%ADD19R,0.600000X0.900000*%
%ADD20R,1.400000X1.200000*%
%ADD21R,1.300000X1.500000*%
%ADD22R,1.600000X1.800000*%
%ADD23R,2.100000X1.500000*%
%ADD24R,2.400000X1.800000*%
%ADD25R,1.000000X1.400000*%
%ADD26R,1.500000X2.500000*%
%ADD27R,1.400000X1.400000*%


D10*
X32313Y452438D03*
X15313Y452438D03*
X156600Y430213D03*
X173600Y430213D03*
D11*
X84138Y533963D03*
X84138Y516963D03*
D10*
X79938Y387350D03*
X62938Y387350D03*
D11*
X125413Y546663D03*
X125413Y529663D03*
D12*
X58738Y287450D03*
X49238Y309450D03*
X68238Y309450D03*
D11*
X45013Y407988D03*
X28013Y407988D03*
X64063Y533400D03*
X47063Y533400D03*
X15313Y473075D03*
X32313Y473075D03*
X32775Y387350D03*
X49775Y387350D03*
X118038Y512763D03*
X101038Y512763D03*
D10*
X158750Y494275D03*
X158750Y477275D03*
X158750Y464113D03*
X158750Y447113D03*
D11*
X42300Y512763D03*
X59300Y512763D03*
X33900Y341313D03*
X16900Y341313D03*
D10*
X15875Y358213D03*
X15875Y375213D03*
D11*
X16900Y292100D03*
X33900Y292100D03*
X148200Y512763D03*
X131200Y512763D03*
D10*
X147638Y554600D03*
X147638Y537600D03*
D11*
X179950Y512763D03*
X162950Y512763D03*
D13*
X52324Y478850D03*
X52324Y470850D03*
X52324Y462850D03*
X52324Y454850D03*
X52324Y446850D03*
X52324Y438850D03*
X52324Y430850D03*
X52324Y422850D03*
D14*
X67250Y407924D03*
X75250Y407924D03*
X83250Y407924D03*
X91250Y407924D03*
X99250Y407924D03*
X107250Y407924D03*
X115250Y407924D03*
X123250Y407924D03*
D13*
X138176Y422850D03*
X138176Y430850D03*
X138176Y438850D03*
X138176Y446850D03*
X138176Y454850D03*
X138176Y462850D03*
X138176Y470850D03*
X138176Y478850D03*
D14*
X123250Y493776D03*
X115250Y493776D03*
X107250Y493776D03*
X99250Y493776D03*
X91250Y493776D03*
X83250Y493776D03*
X75250Y493776D03*
X67250Y493776D03*
D11*
X184150Y400613D03*
X184150Y383613D03*
D10*
X208988Y417513D03*
X225988Y417513D03*
D11*
X212725Y341875D03*
X212725Y324875D03*
X18488Y431800D03*
X35488Y431800D03*
X31750Y373625D03*
X31750Y356625D03*
D10*
X51825Y325438D03*
X68825Y325438D03*
D15*
X36400Y317500D03*
X14400Y308000D03*
X14400Y327000D03*
D11*
X200588Y447675D03*
X183588Y447675D03*
D16*
X216513Y438150D03*
X237513Y438150D03*
D11*
X200588Y469900D03*
X183588Y469900D03*
D16*
X216513Y469900D03*
X237513Y469900D03*
D11*
X143438Y139700D03*
X126438Y139700D03*
D10*
X68825Y346075D03*
X51825Y346075D03*
D11*
X192088Y324875D03*
X192088Y341875D03*
D17*
X25400Y182225D03*
X25400Y141525D03*
D10*
X46038Y223275D03*
X46038Y240275D03*
D16*
X61913Y221638D03*
X61913Y200638D03*
D18*
X119688Y111125D03*
X86688Y111125D03*
D11*
X158750Y183588D03*
X158750Y200588D03*
X121675Y214313D03*
X138675Y214313D03*
D10*
X104775Y199463D03*
X104775Y216463D03*
D11*
X104775Y537600D03*
X104775Y554600D03*
D13*
X173101Y314900D03*
X173101Y322900D03*
X173101Y330900D03*
X173101Y338900D03*
X173101Y346900D03*
X173101Y354900D03*
X173101Y362900D03*
X173101Y370900D03*
D14*
X158175Y385826D03*
X150175Y385826D03*
X142175Y385826D03*
X134175Y385826D03*
X126175Y385826D03*
X118175Y385826D03*
X110175Y385826D03*
X102175Y385826D03*
D13*
X87249Y370900D03*
X87249Y362900D03*
X87249Y354900D03*
X87249Y346900D03*
X87249Y338900D03*
X87249Y330900D03*
X87249Y322900D03*
X87249Y314900D03*
D14*
X102175Y299974D03*
X110175Y299974D03*
X118175Y299974D03*
X126175Y299974D03*
X134175Y299974D03*
X142175Y299974D03*
X150175Y299974D03*
X158175Y299974D03*
D19*
X222275Y267900D03*
X231775Y267900D03*
X241275Y267900D03*
X241275Y290900D03*
X231775Y290900D03*
X222275Y290900D03*
D11*
X238688Y307975D03*
X221688Y307975D03*
D10*
X233363Y364100D03*
X233363Y347100D03*
X221688Y250825D03*
X238688Y250825D03*
X43888Y366713D03*
X60888Y366713D03*
D11*
X221688Y230188D03*
X238688Y230188D03*
D10*
X221688Y209550D03*
X238688Y209550D03*
D19*
X142850Y197238D03*
X133350Y197238D03*
X123850Y197238D03*
X123850Y174238D03*
X133350Y174238D03*
X142850Y174238D03*
D11*
X140263Y160338D03*
X123263Y160338D03*
D20*
X203313Y383613D03*
X225313Y383613D03*
X225313Y400613D03*
X203313Y400613D03*
D21*
X184175Y114300D03*
X203175Y114300D03*
D22*
X44163Y206375D03*
X16163Y206375D03*
D23*
X163513Y131225D03*
X163513Y167225D03*
D24*
X65088Y180588D03*
X65088Y140088D03*
D25*
X177800Y553925D03*
X187300Y531925D03*
X168300Y531925D03*
D10*
X106363Y164075D03*
X106363Y147075D03*
X85725Y216463D03*
X85725Y199463D03*
X110100Y184150D03*
X93100Y184150D03*
D26*
X218525Y166688D03*
X181525Y166688D03*
D27*
X26988Y271413D03*
X26988Y233413D03*
M02*
