G04 EAGLE Gerber RS-274X export*
G75*
%MOMM*%
%FSLAX34Y34*%
%LPD*%
%INSilkscreen Top*%
%IPPOS*%
%AMOC8*
5,1,8,0,0,1.08239X$1,22.5*%
G01*
%ADD10C,0.101600*%
%ADD11C,0.152400*%
%ADD12C,0.076200*%
%ADD13C,0.063400*%
%ADD14C,0.250000*%
%ADD15R,3.810000X0.635000*%
%ADD16C,0.127000*%
%ADD17C,0.200000*%
%ADD18C,0.100000*%
%ADD19C,0.203200*%
%ADD20R,2.450000X0.675000*%


D10*
X-8310Y443640D02*
X-10259Y445589D01*
X-14157Y445589D01*
X-16105Y443640D01*
X-16105Y435844D01*
X-14157Y433896D01*
X-10259Y433896D01*
X-8310Y435844D01*
X-4412Y441691D02*
X-514Y445589D01*
X-514Y433896D01*
X-4412Y433896D02*
X3384Y433896D01*
X7282Y435844D02*
X7282Y443640D01*
X9231Y445589D01*
X13129Y445589D01*
X15078Y443640D01*
X15078Y435844D01*
X13129Y433896D01*
X9231Y433896D01*
X7282Y435844D01*
X15078Y443640D01*
X18976Y445589D02*
X26772Y445589D01*
X26772Y443640D01*
X18976Y435844D01*
X18976Y433896D01*
X165105Y448764D02*
X167054Y446815D01*
X165105Y448764D02*
X161207Y448764D01*
X159258Y446815D01*
X159258Y439019D01*
X161207Y437071D01*
X165105Y437071D01*
X167054Y439019D01*
X170952Y444866D02*
X174850Y448764D01*
X174850Y437071D01*
X170952Y437071D02*
X178748Y437071D01*
X186544Y446815D02*
X190442Y448764D01*
X186544Y446815D02*
X182646Y442917D01*
X182646Y439019D01*
X184595Y437071D01*
X188493Y437071D01*
X190442Y439019D01*
X190442Y440968D01*
X188493Y442917D01*
X182646Y442917D01*
X92935Y505035D02*
X90986Y503086D01*
X90986Y499188D01*
X92935Y497239D01*
X100731Y497239D01*
X102680Y499188D01*
X102680Y503086D01*
X100731Y505035D01*
X102680Y508933D02*
X102680Y516728D01*
X102680Y508933D02*
X94884Y516728D01*
X92935Y516728D01*
X90986Y514779D01*
X90986Y510881D01*
X92935Y508933D01*
X90986Y520626D02*
X90986Y528422D01*
X90986Y520626D02*
X96833Y520626D01*
X94884Y524524D01*
X94884Y526473D01*
X96833Y528422D01*
X100731Y528422D01*
X102680Y526473D01*
X102680Y522575D01*
X100731Y520626D01*
X49061Y380502D02*
X51010Y378553D01*
X49061Y380502D02*
X45163Y380502D01*
X43214Y378553D01*
X43214Y370757D01*
X45163Y368808D01*
X49061Y368808D01*
X51010Y370757D01*
X58805Y378553D02*
X62703Y380502D01*
X58805Y378553D02*
X54908Y374655D01*
X54908Y370757D01*
X56856Y368808D01*
X60754Y368808D01*
X62703Y370757D01*
X62703Y372706D01*
X60754Y374655D01*
X54908Y374655D01*
X66601Y380502D02*
X74397Y380502D01*
X66601Y380502D02*
X66601Y374655D01*
X70499Y376604D01*
X72448Y376604D01*
X74397Y374655D01*
X74397Y370757D01*
X72448Y368808D01*
X68550Y368808D01*
X66601Y370757D01*
X132261Y515786D02*
X134210Y517735D01*
X132261Y515786D02*
X132261Y511888D01*
X134210Y509939D01*
X142006Y509939D01*
X143955Y511888D01*
X143955Y515786D01*
X142006Y517735D01*
X134210Y525530D02*
X132261Y529428D01*
X134210Y525530D02*
X138108Y521633D01*
X142006Y521633D01*
X143955Y523581D01*
X143955Y527479D01*
X142006Y529428D01*
X140057Y529428D01*
X138108Y527479D01*
X138108Y521633D01*
X134210Y537224D02*
X132261Y541122D01*
X134210Y537224D02*
X138108Y533326D01*
X142006Y533326D01*
X143955Y535275D01*
X143955Y539173D01*
X142006Y541122D01*
X140057Y541122D01*
X138108Y539173D01*
X138108Y533326D01*
X88392Y296208D02*
X76698Y296208D01*
X88392Y296208D02*
X88392Y302055D01*
X86443Y304004D01*
X78647Y304004D01*
X76698Y302055D01*
X76698Y296208D01*
X80596Y307902D02*
X76698Y311799D01*
X88392Y311799D01*
X88392Y307902D02*
X88392Y315697D01*
X-3405Y389446D02*
X-3405Y401139D01*
X2442Y401139D01*
X4391Y399190D01*
X4391Y395292D01*
X2442Y393343D01*
X-3405Y393343D01*
X493Y393343D02*
X4391Y389446D01*
X8289Y397241D02*
X12186Y401139D01*
X12186Y389446D01*
X8289Y389446D02*
X16084Y389446D01*
X19982Y391394D02*
X19982Y399190D01*
X21931Y401139D01*
X25829Y401139D01*
X27778Y399190D01*
X27778Y391394D01*
X25829Y389446D01*
X21931Y389446D01*
X19982Y391394D01*
X27778Y399190D01*
X31676Y389446D02*
X39472Y389446D01*
X39472Y397241D02*
X31676Y389446D01*
X39472Y397241D02*
X39472Y399190D01*
X37523Y401139D01*
X33625Y401139D01*
X31676Y399190D01*
X15645Y514858D02*
X15645Y526552D01*
X21492Y526552D01*
X23441Y524603D01*
X23441Y520705D01*
X21492Y518756D01*
X15645Y518756D01*
X19543Y518756D02*
X23441Y514858D01*
X27339Y522654D02*
X31236Y526552D01*
X31236Y514858D01*
X27339Y514858D02*
X35134Y514858D01*
X39032Y516807D02*
X39032Y524603D01*
X40981Y526552D01*
X44879Y526552D01*
X46828Y524603D01*
X46828Y516807D01*
X44879Y514858D01*
X40981Y514858D01*
X39032Y516807D01*
X46828Y524603D01*
X50726Y524603D02*
X52675Y526552D01*
X56573Y526552D01*
X58522Y524603D01*
X58522Y522654D01*
X56573Y520705D01*
X54624Y520705D01*
X56573Y520705D02*
X58522Y518756D01*
X58522Y516807D01*
X56573Y514858D01*
X52675Y514858D01*
X50726Y516807D01*
X17971Y491627D02*
X17971Y479933D01*
X17971Y491627D02*
X23817Y491627D01*
X25766Y489678D01*
X25766Y485780D01*
X23817Y483831D01*
X17971Y483831D01*
X21868Y483831D02*
X25766Y479933D01*
X29664Y487729D02*
X33562Y491627D01*
X33562Y479933D01*
X29664Y479933D02*
X37460Y479933D01*
X41358Y481882D02*
X41358Y489678D01*
X43307Y491627D01*
X47205Y491627D01*
X49154Y489678D01*
X49154Y481882D01*
X47205Y479933D01*
X43307Y479933D01*
X41358Y481882D01*
X49154Y489678D01*
X58899Y491627D02*
X58899Y479933D01*
X53052Y485780D02*
X58899Y491627D01*
X60848Y485780D02*
X53052Y485780D01*
X35433Y405902D02*
X35433Y394208D01*
X35433Y405902D02*
X41280Y405902D01*
X43229Y403953D01*
X43229Y400055D01*
X41280Y398106D01*
X35433Y398106D01*
X39331Y398106D02*
X43229Y394208D01*
X47127Y402004D02*
X51025Y405902D01*
X51025Y394208D01*
X47127Y394208D02*
X54923Y394208D01*
X58821Y396157D02*
X58821Y403953D01*
X60770Y405902D01*
X64668Y405902D01*
X66617Y403953D01*
X66617Y396157D01*
X64668Y394208D01*
X60770Y394208D01*
X58821Y396157D01*
X66617Y403953D01*
X70515Y405902D02*
X78311Y405902D01*
X70515Y405902D02*
X70515Y400055D01*
X74413Y402004D01*
X76362Y402004D01*
X78311Y400055D01*
X78311Y396157D01*
X76362Y394208D01*
X72464Y394208D01*
X70515Y396157D01*
X69620Y494221D02*
X69620Y505914D01*
X75467Y505914D01*
X77416Y503965D01*
X77416Y500067D01*
X75467Y498118D01*
X69620Y498118D01*
X73518Y498118D02*
X77416Y494221D01*
X81314Y502016D02*
X85211Y505914D01*
X85211Y494221D01*
X81314Y494221D02*
X89109Y494221D01*
X93007Y496169D02*
X93007Y503965D01*
X94956Y505914D01*
X98854Y505914D01*
X100803Y503965D01*
X100803Y496169D01*
X98854Y494221D01*
X94956Y494221D01*
X93007Y496169D01*
X100803Y503965D01*
X104701Y505914D02*
X112497Y505914D01*
X112497Y503965D01*
X104701Y496169D01*
X104701Y494221D01*
X165598Y445857D02*
X177292Y445857D01*
X165598Y445857D02*
X165598Y451704D01*
X167547Y453653D01*
X171445Y453653D01*
X173394Y451704D01*
X173394Y445857D01*
X173394Y449755D02*
X177292Y453653D01*
X169496Y457551D02*
X165598Y461449D01*
X177292Y461449D01*
X177292Y457551D02*
X177292Y465347D01*
X175343Y469245D02*
X167547Y469245D01*
X165598Y471194D01*
X165598Y475092D01*
X167547Y477041D01*
X175343Y477041D01*
X177292Y475092D01*
X177292Y471194D01*
X175343Y469245D01*
X167547Y477041D01*
X167547Y480939D02*
X165598Y482888D01*
X165598Y486786D01*
X167547Y488735D01*
X169496Y488735D01*
X171445Y486786D01*
X173394Y488735D01*
X175343Y488735D01*
X177292Y486786D01*
X177292Y482888D01*
X175343Y480939D01*
X173394Y480939D01*
X171445Y482888D01*
X169496Y480939D01*
X167547Y480939D01*
X171445Y482888D02*
X171445Y486786D01*
X177292Y415695D02*
X165598Y415695D01*
X165598Y421542D01*
X167547Y423491D01*
X171445Y423491D01*
X173394Y421542D01*
X173394Y415695D01*
X173394Y419593D02*
X177292Y423491D01*
X169496Y427389D02*
X165598Y431286D01*
X177292Y431286D01*
X177292Y427389D02*
X177292Y435184D01*
X175343Y439082D02*
X167547Y439082D01*
X165598Y441031D01*
X165598Y444929D01*
X167547Y446878D01*
X175343Y446878D01*
X177292Y444929D01*
X177292Y441031D01*
X175343Y439082D01*
X167547Y446878D01*
X175343Y450776D02*
X177292Y452725D01*
X177292Y456623D01*
X175343Y458572D01*
X167547Y458572D01*
X165598Y456623D01*
X165598Y452725D01*
X167547Y450776D01*
X169496Y450776D01*
X171445Y452725D01*
X171445Y458572D01*
X44958Y519621D02*
X44958Y531314D01*
X50805Y531314D01*
X52754Y529365D01*
X52754Y525467D01*
X50805Y523518D01*
X44958Y523518D01*
X48856Y523518D02*
X52754Y519621D01*
X56652Y527416D02*
X60550Y531314D01*
X60550Y519621D01*
X56652Y519621D02*
X64448Y519621D01*
X68346Y527416D02*
X72244Y531314D01*
X72244Y519621D01*
X68346Y519621D02*
X76142Y519621D01*
X80040Y521569D02*
X80040Y529365D01*
X81989Y531314D01*
X85887Y531314D01*
X87836Y529365D01*
X87836Y521569D01*
X85887Y519621D01*
X81989Y519621D01*
X80040Y521569D01*
X87836Y529365D01*
X16383Y355102D02*
X16383Y343408D01*
X16383Y355102D02*
X22230Y355102D01*
X24179Y353153D01*
X24179Y349255D01*
X22230Y347306D01*
X16383Y347306D01*
X20281Y347306D02*
X24179Y343408D01*
X28077Y355102D02*
X35873Y355102D01*
X35873Y353153D01*
X28077Y345357D01*
X28077Y343408D01*
X39771Y351204D02*
X43669Y355102D01*
X43669Y343408D01*
X39771Y343408D02*
X47567Y343408D01*
X9017Y376746D02*
X-2677Y376746D01*
X-2677Y382592D01*
X-728Y384541D01*
X3170Y384541D01*
X5119Y382592D01*
X5119Y376746D01*
X5119Y380643D02*
X9017Y384541D01*
X-2677Y388439D02*
X-2677Y396235D01*
X-728Y396235D01*
X7068Y388439D01*
X9017Y388439D01*
X9017Y400133D02*
X9017Y407929D01*
X9017Y400133D02*
X1221Y407929D01*
X-728Y407929D01*
X-2677Y405980D01*
X-2677Y402082D01*
X-728Y400133D01*
X-5999Y272552D02*
X-5999Y260858D01*
X-5999Y272552D02*
X-152Y272552D01*
X1797Y270603D01*
X1797Y266705D01*
X-152Y264756D01*
X-5999Y264756D01*
X-2101Y264756D02*
X1797Y260858D01*
X5695Y272552D02*
X13491Y272552D01*
X13491Y270603D01*
X5695Y262807D01*
X5695Y260858D01*
X17389Y270603D02*
X19338Y272552D01*
X23236Y272552D01*
X25185Y270603D01*
X25185Y268654D01*
X23236Y266705D01*
X21287Y266705D01*
X23236Y266705D02*
X25185Y264756D01*
X25185Y262807D01*
X23236Y260858D01*
X19338Y260858D01*
X17389Y262807D01*
X111476Y494221D02*
X111476Y505914D01*
X117323Y505914D01*
X119272Y503965D01*
X119272Y500067D01*
X117323Y498118D01*
X111476Y498118D01*
X115374Y498118D02*
X119272Y494221D01*
X123170Y505914D02*
X130966Y505914D01*
X130966Y503965D01*
X123170Y496169D01*
X123170Y494221D01*
X134864Y503965D02*
X136813Y505914D01*
X140711Y505914D01*
X142660Y503965D01*
X142660Y502016D01*
X140711Y500067D01*
X142660Y498118D01*
X142660Y496169D01*
X140711Y494221D01*
X136813Y494221D01*
X134864Y496169D01*
X134864Y498118D01*
X136813Y500067D01*
X134864Y502016D01*
X134864Y503965D01*
X136813Y500067D02*
X140711Y500067D01*
X154486Y517876D02*
X166180Y517876D01*
X154486Y517876D02*
X154486Y523723D01*
X156435Y525672D01*
X160333Y525672D01*
X162282Y523723D01*
X162282Y517876D01*
X162282Y521774D02*
X166180Y525672D01*
X154486Y529570D02*
X154486Y537366D01*
X156435Y537366D01*
X164231Y529570D01*
X166180Y529570D01*
X164231Y541264D02*
X166180Y543213D01*
X166180Y547111D01*
X164231Y549060D01*
X156435Y549060D01*
X154486Y547111D01*
X154486Y543213D01*
X156435Y541264D01*
X158384Y541264D01*
X160333Y543213D01*
X160333Y549060D01*
X143226Y505914D02*
X143226Y494221D01*
X143226Y505914D02*
X149073Y505914D01*
X151022Y503965D01*
X151022Y500067D01*
X149073Y498118D01*
X143226Y498118D01*
X147124Y498118D02*
X151022Y494221D01*
X154920Y503965D02*
X156869Y505914D01*
X160767Y505914D01*
X162716Y503965D01*
X162716Y502016D01*
X160767Y500067D01*
X162716Y498118D01*
X162716Y496169D01*
X160767Y494221D01*
X156869Y494221D01*
X154920Y496169D01*
X154920Y498118D01*
X156869Y500067D01*
X154920Y502016D01*
X154920Y503965D01*
X156869Y500067D02*
X160767Y500067D01*
X166614Y496169D02*
X166614Y503965D01*
X168563Y505914D01*
X172461Y505914D01*
X174410Y503965D01*
X174410Y496169D01*
X172461Y494221D01*
X168563Y494221D01*
X166614Y496169D01*
X174410Y503965D01*
D11*
X130300Y485900D02*
X130300Y415800D01*
X60200Y415800D01*
X60200Y482350D01*
X63750Y485900D02*
X130300Y485900D01*
X63750Y485900D02*
X60200Y482350D01*
X64226Y478282D02*
X64228Y478401D01*
X64234Y478521D01*
X64244Y478640D01*
X64258Y478758D01*
X64276Y478876D01*
X64297Y478994D01*
X64323Y479110D01*
X64352Y479226D01*
X64386Y479341D01*
X64423Y479454D01*
X64464Y479566D01*
X64508Y479677D01*
X64556Y479787D01*
X64608Y479894D01*
X64663Y480000D01*
X64722Y480104D01*
X64785Y480206D01*
X64850Y480305D01*
X64919Y480403D01*
X64991Y480498D01*
X65066Y480591D01*
X65145Y480681D01*
X65226Y480769D01*
X65310Y480853D01*
X65397Y480935D01*
X65486Y481014D01*
X65578Y481090D01*
X65673Y481163D01*
X65770Y481233D01*
X65869Y481299D01*
X65971Y481362D01*
X66074Y481422D01*
X66179Y481478D01*
X66286Y481531D01*
X66395Y481580D01*
X66506Y481626D01*
X66618Y481667D01*
X66731Y481705D01*
X66845Y481740D01*
X66961Y481770D01*
X67077Y481797D01*
X67194Y481819D01*
X67312Y481838D01*
X67431Y481853D01*
X67550Y481864D01*
X67669Y481871D01*
X67788Y481874D01*
X67908Y481873D01*
X68027Y481868D01*
X68146Y481859D01*
X68265Y481846D01*
X68383Y481829D01*
X68500Y481809D01*
X68617Y481784D01*
X68733Y481755D01*
X68848Y481723D01*
X68962Y481687D01*
X69075Y481647D01*
X69186Y481603D01*
X69295Y481556D01*
X69403Y481505D01*
X69510Y481451D01*
X69614Y481393D01*
X69716Y481331D01*
X69817Y481267D01*
X69915Y481198D01*
X70011Y481127D01*
X70104Y481053D01*
X70195Y480975D01*
X70283Y480895D01*
X70368Y480811D01*
X70451Y480725D01*
X70531Y480636D01*
X70608Y480545D01*
X70681Y480451D01*
X70752Y480354D01*
X70819Y480256D01*
X70883Y480155D01*
X70944Y480052D01*
X71001Y479947D01*
X71054Y479841D01*
X71104Y479732D01*
X71151Y479622D01*
X71193Y479511D01*
X71232Y479398D01*
X71268Y479284D01*
X71299Y479168D01*
X71326Y479052D01*
X71350Y478935D01*
X71370Y478817D01*
X71386Y478699D01*
X71398Y478580D01*
X71406Y478461D01*
X71410Y478342D01*
X71410Y478222D01*
X71406Y478103D01*
X71398Y477984D01*
X71386Y477865D01*
X71370Y477747D01*
X71350Y477629D01*
X71326Y477512D01*
X71299Y477396D01*
X71268Y477280D01*
X71232Y477166D01*
X71193Y477053D01*
X71151Y476942D01*
X71104Y476832D01*
X71054Y476723D01*
X71001Y476617D01*
X70944Y476512D01*
X70883Y476409D01*
X70819Y476308D01*
X70752Y476210D01*
X70681Y476113D01*
X70608Y476019D01*
X70531Y475928D01*
X70451Y475839D01*
X70368Y475753D01*
X70283Y475669D01*
X70195Y475589D01*
X70104Y475511D01*
X70011Y475437D01*
X69915Y475366D01*
X69817Y475297D01*
X69716Y475233D01*
X69614Y475171D01*
X69510Y475113D01*
X69403Y475059D01*
X69295Y475008D01*
X69186Y474961D01*
X69075Y474917D01*
X68962Y474877D01*
X68848Y474841D01*
X68733Y474809D01*
X68617Y474780D01*
X68500Y474755D01*
X68383Y474735D01*
X68265Y474718D01*
X68146Y474705D01*
X68027Y474696D01*
X67908Y474691D01*
X67788Y474690D01*
X67669Y474693D01*
X67550Y474700D01*
X67431Y474711D01*
X67312Y474726D01*
X67194Y474745D01*
X67077Y474767D01*
X66961Y474794D01*
X66845Y474824D01*
X66731Y474859D01*
X66618Y474897D01*
X66506Y474938D01*
X66395Y474984D01*
X66286Y475033D01*
X66179Y475086D01*
X66074Y475142D01*
X65971Y475202D01*
X65869Y475265D01*
X65770Y475331D01*
X65673Y475401D01*
X65578Y475474D01*
X65486Y475550D01*
X65397Y475629D01*
X65310Y475711D01*
X65226Y475795D01*
X65145Y475883D01*
X65066Y475973D01*
X64991Y476066D01*
X64919Y476161D01*
X64850Y476259D01*
X64785Y476358D01*
X64722Y476460D01*
X64663Y476564D01*
X64608Y476670D01*
X64556Y476777D01*
X64508Y476887D01*
X64464Y476998D01*
X64423Y477110D01*
X64386Y477223D01*
X64352Y477338D01*
X64323Y477454D01*
X64297Y477570D01*
X64276Y477688D01*
X64258Y477806D01*
X64244Y477924D01*
X64234Y478043D01*
X64228Y478163D01*
X64226Y478282D01*
D12*
X67945Y502031D02*
X70402Y502031D01*
X69174Y502031D02*
X69174Y509403D01*
X70402Y509403D02*
X67945Y509403D01*
X76621Y509403D02*
X77849Y508175D01*
X76621Y509403D02*
X74163Y509403D01*
X72934Y508175D01*
X72934Y503260D01*
X74163Y502031D01*
X76621Y502031D01*
X77849Y503260D01*
X80419Y508175D02*
X81647Y509403D01*
X84105Y509403D01*
X85333Y508175D01*
X85333Y506946D01*
X84105Y505717D01*
X82876Y505717D01*
X84105Y505717D02*
X85333Y504488D01*
X85333Y503260D01*
X84105Y502031D01*
X81647Y502031D01*
X80419Y503260D01*
D10*
X192947Y383379D02*
X190998Y381430D01*
X190998Y377532D01*
X192947Y375583D01*
X200743Y375583D01*
X202692Y377532D01*
X202692Y381430D01*
X200743Y383379D01*
X202692Y387277D02*
X202692Y395072D01*
X202692Y387277D02*
X194896Y395072D01*
X192947Y395072D01*
X190998Y393123D01*
X190998Y389225D01*
X192947Y387277D01*
X219441Y434115D02*
X217492Y436064D01*
X213594Y436064D01*
X211646Y434115D01*
X211646Y426319D01*
X213594Y424371D01*
X217492Y424371D01*
X219441Y426319D01*
X223339Y434115D02*
X225288Y436064D01*
X229186Y436064D01*
X231135Y434115D01*
X231135Y432166D01*
X229186Y430217D01*
X227237Y430217D01*
X229186Y430217D02*
X231135Y428268D01*
X231135Y426319D01*
X229186Y424371D01*
X225288Y424371D01*
X223339Y426319D01*
X221522Y312947D02*
X219573Y310998D01*
X219573Y307100D01*
X221522Y305151D01*
X229318Y305151D01*
X231267Y307100D01*
X231267Y310998D01*
X229318Y312947D01*
X231267Y316845D02*
X231267Y324641D01*
X231267Y316845D02*
X223471Y324641D01*
X221522Y324641D01*
X219573Y322692D01*
X219573Y318794D01*
X221522Y316845D01*
X221522Y332437D02*
X219573Y336335D01*
X221522Y332437D02*
X225420Y328539D01*
X229318Y328539D01*
X231267Y330488D01*
X231267Y334386D01*
X229318Y336335D01*
X227369Y336335D01*
X225420Y334386D01*
X225420Y328539D01*
X170214Y294777D02*
X170214Y283083D01*
X170214Y294777D02*
X176061Y294777D01*
X178010Y292828D01*
X178010Y288930D01*
X176061Y286981D01*
X170214Y286981D01*
X174112Y286981D02*
X178010Y283083D01*
X181908Y290879D02*
X185805Y294777D01*
X185805Y283083D01*
X181908Y283083D02*
X189703Y283083D01*
X193601Y290879D02*
X197499Y294777D01*
X197499Y283083D01*
X193601Y283083D02*
X201397Y283083D01*
X24179Y373790D02*
X22230Y375739D01*
X18332Y375739D01*
X16383Y373790D01*
X16383Y365994D01*
X18332Y364046D01*
X22230Y364046D01*
X24179Y365994D01*
X28077Y373790D02*
X30026Y375739D01*
X33924Y375739D01*
X35873Y373790D01*
X35873Y371841D01*
X33924Y369892D01*
X35873Y367943D01*
X35873Y365994D01*
X33924Y364046D01*
X30026Y364046D01*
X28077Y365994D01*
X28077Y367943D01*
X30026Y369892D01*
X28077Y371841D01*
X28077Y373790D01*
X30026Y369892D02*
X33924Y369892D01*
X39771Y364046D02*
X47567Y364046D01*
X47567Y371841D02*
X39771Y364046D01*
X47567Y371841D02*
X47567Y373790D01*
X45618Y375739D01*
X41720Y375739D01*
X39771Y373790D01*
X60330Y343989D02*
X62279Y342040D01*
X60330Y343989D02*
X56432Y343989D01*
X54483Y342040D01*
X54483Y334244D01*
X56432Y332296D01*
X60330Y332296D01*
X62279Y334244D01*
X72024Y332296D02*
X72024Y343989D01*
X66177Y338142D01*
X73973Y338142D01*
X77871Y343989D02*
X85667Y343989D01*
X77871Y343989D02*
X77871Y338142D01*
X81769Y340091D01*
X83718Y340091D01*
X85667Y338142D01*
X85667Y334244D01*
X83718Y332296D01*
X79820Y332296D01*
X77871Y334244D01*
D11*
X6414Y314579D02*
X6414Y306451D01*
X6414Y314579D02*
X12002Y314579D01*
X34862Y314579D02*
X34862Y306451D01*
X34862Y314579D02*
X29274Y314579D01*
D10*
X2096Y327533D02*
X2096Y339227D01*
X2096Y327533D02*
X7942Y327533D01*
X9891Y329482D01*
X9891Y337278D01*
X7942Y339227D01*
X2096Y339227D01*
X13789Y335329D02*
X17687Y339227D01*
X17687Y327533D01*
X13789Y327533D02*
X21585Y327533D01*
X25483Y339227D02*
X33279Y339227D01*
X25483Y339227D02*
X25483Y333380D01*
X29381Y335329D01*
X31330Y335329D01*
X33279Y333380D01*
X33279Y329482D01*
X31330Y327533D01*
X27432Y327533D01*
X25483Y329482D01*
X214821Y476758D02*
X214821Y488452D01*
X220667Y488452D01*
X222616Y486503D01*
X222616Y482605D01*
X220667Y480656D01*
X214821Y480656D01*
X218718Y480656D02*
X222616Y476758D01*
X226514Y488452D02*
X234310Y488452D01*
X226514Y488452D02*
X226514Y482605D01*
X230412Y484554D01*
X232361Y484554D01*
X234310Y482605D01*
X234310Y478707D01*
X232361Y476758D01*
X228463Y476758D01*
X226514Y478707D01*
X238208Y486503D02*
X240157Y488452D01*
X244055Y488452D01*
X246004Y486503D01*
X246004Y484554D01*
X244055Y482605D01*
X242106Y482605D01*
X244055Y482605D02*
X246004Y480656D01*
X246004Y478707D01*
X244055Y476758D01*
X240157Y476758D01*
X238208Y478707D01*
D13*
X189075Y470150D02*
X187325Y468400D01*
X185825Y469900D01*
X187575Y471650D01*
X189075Y470150D01*
D14*
X190075Y465900D03*
D10*
X156057Y459402D02*
X156057Y447708D01*
X163853Y447708D01*
X167751Y459402D02*
X175547Y459402D01*
X167751Y459402D02*
X167751Y447708D01*
X175547Y447708D01*
X171649Y453555D02*
X167751Y453555D01*
X179445Y459402D02*
X179445Y447708D01*
X185292Y447708D01*
X187241Y449657D01*
X187241Y457453D01*
X185292Y459402D01*
X179445Y459402D01*
X191139Y447708D02*
X198935Y447708D01*
X191139Y447708D02*
X198935Y455504D01*
X198935Y457453D01*
X196986Y459402D01*
X193088Y459402D01*
X191139Y457453D01*
X214821Y456121D02*
X214821Y467814D01*
X220667Y467814D01*
X222616Y465865D01*
X222616Y461967D01*
X220667Y460018D01*
X214821Y460018D01*
X218718Y460018D02*
X222616Y456121D01*
X226514Y467814D02*
X234310Y467814D01*
X226514Y467814D02*
X226514Y461967D01*
X230412Y463916D01*
X232361Y463916D01*
X234310Y461967D01*
X234310Y458069D01*
X232361Y456121D01*
X228463Y456121D01*
X226514Y458069D01*
X244055Y456121D02*
X244055Y467814D01*
X238208Y461967D01*
X246004Y461967D01*
D13*
X189075Y449513D02*
X187325Y447763D01*
X185825Y449263D01*
X187575Y451013D01*
X189075Y449513D01*
D14*
X190075Y445263D03*
D10*
X156057Y438764D02*
X156057Y427071D01*
X163853Y427071D01*
X167751Y438764D02*
X175547Y438764D01*
X167751Y438764D02*
X167751Y427071D01*
X175547Y427071D01*
X171649Y432917D02*
X167751Y432917D01*
X179445Y427071D02*
X179445Y438764D01*
X179445Y427071D02*
X185292Y427071D01*
X187241Y429019D01*
X187241Y436815D01*
X185292Y438764D01*
X179445Y438764D01*
X191139Y436815D02*
X193088Y438764D01*
X196986Y438764D01*
X198935Y436815D01*
X198935Y434866D01*
X196986Y432917D01*
X195037Y432917D01*
X196986Y432917D02*
X198935Y430968D01*
X198935Y429019D01*
X196986Y427071D01*
X193088Y427071D01*
X191139Y429019D01*
X97189Y132852D02*
X97189Y121158D01*
X97189Y132852D02*
X103036Y132852D01*
X104985Y130903D01*
X104985Y127005D01*
X103036Y125056D01*
X97189Y125056D01*
X101087Y125056D02*
X104985Y121158D01*
X112780Y130903D02*
X116678Y132852D01*
X112780Y130903D02*
X108883Y127005D01*
X108883Y123107D01*
X110831Y121158D01*
X114729Y121158D01*
X116678Y123107D01*
X116678Y125056D01*
X114729Y127005D01*
X108883Y127005D01*
X120576Y130903D02*
X122525Y132852D01*
X126423Y132852D01*
X128372Y130903D01*
X128372Y128954D01*
X126423Y127005D01*
X128372Y125056D01*
X128372Y123107D01*
X126423Y121158D01*
X122525Y121158D01*
X120576Y123107D01*
X120576Y125056D01*
X122525Y127005D01*
X120576Y128954D01*
X120576Y130903D01*
X122525Y127005D02*
X126423Y127005D01*
X39897Y337278D02*
X37948Y339227D01*
X34050Y339227D01*
X32101Y337278D01*
X32101Y329482D01*
X34050Y327533D01*
X37948Y327533D01*
X39897Y329482D01*
X43795Y335329D02*
X47693Y339227D01*
X47693Y327533D01*
X43795Y327533D02*
X51591Y327533D01*
X55489Y337278D02*
X57438Y339227D01*
X61336Y339227D01*
X63285Y337278D01*
X63285Y335329D01*
X61336Y333380D01*
X63285Y331431D01*
X63285Y329482D01*
X61336Y327533D01*
X57438Y327533D01*
X55489Y329482D01*
X55489Y331431D01*
X57438Y333380D01*
X55489Y335329D01*
X55489Y337278D01*
X57438Y333380D02*
X61336Y333380D01*
X173536Y333380D02*
X175485Y335329D01*
X173536Y333380D02*
X173536Y329482D01*
X175485Y327533D01*
X183281Y327533D01*
X185230Y329482D01*
X185230Y333380D01*
X183281Y335329D01*
X185230Y339227D02*
X185230Y347023D01*
X185230Y339227D02*
X177434Y347023D01*
X175485Y347023D01*
X173536Y345074D01*
X173536Y341176D01*
X175485Y339227D01*
X185230Y350921D02*
X185230Y358717D01*
X185230Y350921D02*
X177434Y358717D01*
X175485Y358717D01*
X173536Y356768D01*
X173536Y352870D01*
X175485Y350921D01*
X52392Y136027D02*
X54341Y134078D01*
X52392Y136027D02*
X48494Y136027D01*
X46546Y134078D01*
X46546Y126282D01*
X48494Y124333D01*
X52392Y124333D01*
X54341Y126282D01*
X58239Y132129D02*
X62137Y136027D01*
X62137Y124333D01*
X58239Y124333D02*
X66035Y124333D01*
X18900Y139525D02*
X18900Y184325D01*
X57300Y184325D02*
X57300Y139525D01*
D15*
X38100Y171450D03*
D16*
X38100Y168275D02*
X25400Y155575D01*
X50800Y155575D01*
X38100Y168275D01*
D10*
X63998Y158095D02*
X75692Y158095D01*
X75692Y163942D01*
X73743Y165891D01*
X65947Y165891D01*
X63998Y163942D01*
X63998Y158095D01*
X63998Y175636D02*
X75692Y175636D01*
X69845Y169789D02*
X63998Y175636D01*
X69845Y177585D02*
X69845Y169789D01*
X16383Y251333D02*
X16383Y263027D01*
X22230Y263027D01*
X24179Y261078D01*
X24179Y257180D01*
X22230Y255231D01*
X16383Y255231D01*
X20281Y255231D02*
X24179Y251333D01*
X28077Y259129D02*
X31975Y263027D01*
X31975Y251333D01*
X28077Y251333D02*
X35873Y251333D01*
D13*
X22225Y263438D02*
X20475Y261688D01*
X22225Y263438D02*
X23725Y261938D01*
X21975Y260188D01*
X20475Y261688D01*
D14*
X19475Y265938D03*
D10*
X7733Y272446D02*
X7733Y284139D01*
X7733Y272446D02*
X15529Y272446D01*
X19427Y284139D02*
X27223Y284139D01*
X19427Y284139D02*
X19427Y272446D01*
X27223Y272446D01*
X23325Y278292D02*
X19427Y278292D01*
X31121Y272446D02*
X31121Y284139D01*
X31121Y272446D02*
X36968Y272446D01*
X38917Y274394D01*
X38917Y282190D01*
X36968Y284139D01*
X31121Y284139D01*
X42815Y280241D02*
X46713Y284139D01*
X46713Y272446D01*
X42815Y272446D02*
X50611Y272446D01*
X88614Y95627D02*
X88614Y83933D01*
X88614Y95627D02*
X94461Y95627D01*
X96410Y93678D01*
X96410Y89780D01*
X94461Y87831D01*
X88614Y87831D01*
X92512Y87831D02*
X96410Y83933D01*
X100308Y83933D02*
X108103Y83933D01*
X100308Y83933D02*
X108103Y91729D01*
X108103Y93678D01*
X106154Y95627D01*
X102256Y95627D01*
X100308Y93678D01*
X112001Y93678D02*
X113950Y95627D01*
X117848Y95627D01*
X119797Y93678D01*
X119797Y91729D01*
X117848Y89780D01*
X115899Y89780D01*
X117848Y89780D02*
X119797Y87831D01*
X119797Y85882D01*
X117848Y83933D01*
X113950Y83933D01*
X112001Y85882D01*
X133848Y192092D02*
X135797Y194041D01*
X133848Y192092D02*
X133848Y188194D01*
X135797Y186246D01*
X143593Y186246D01*
X145542Y188194D01*
X145542Y192092D01*
X143593Y194041D01*
X145542Y203786D02*
X133848Y203786D01*
X139695Y197939D01*
X139695Y205735D01*
X135797Y213531D02*
X133848Y217429D01*
X135797Y213531D02*
X139695Y209633D01*
X143593Y209633D01*
X145542Y211582D01*
X145542Y215480D01*
X143593Y217429D01*
X141644Y217429D01*
X139695Y215480D01*
X139695Y209633D01*
X117983Y221171D02*
X117983Y232864D01*
X123830Y232864D01*
X125779Y230915D01*
X125779Y227017D01*
X123830Y225068D01*
X117983Y225068D01*
X121881Y225068D02*
X125779Y221171D01*
X129677Y232864D02*
X137473Y232864D01*
X129677Y232864D02*
X129677Y227017D01*
X133575Y228966D01*
X135524Y228966D01*
X137473Y227017D01*
X137473Y223119D01*
X135524Y221171D01*
X131626Y221171D01*
X129677Y223119D01*
X141371Y232864D02*
X149167Y232864D01*
X149167Y230915D01*
X141371Y223119D01*
X141371Y221171D01*
X91567Y202121D02*
X79873Y202121D01*
X79873Y207967D01*
X81822Y209916D01*
X85720Y209916D01*
X87669Y207967D01*
X87669Y202121D01*
X87669Y206018D02*
X91567Y209916D01*
X79873Y213814D02*
X79873Y221610D01*
X79873Y213814D02*
X85720Y213814D01*
X83771Y217712D01*
X83771Y219661D01*
X85720Y221610D01*
X89618Y221610D01*
X91567Y219661D01*
X91567Y215763D01*
X89618Y213814D01*
X81822Y225508D02*
X79873Y227457D01*
X79873Y231355D01*
X81822Y233304D01*
X83771Y233304D01*
X85720Y231355D01*
X87669Y233304D01*
X89618Y233304D01*
X91567Y231355D01*
X91567Y227457D01*
X89618Y225508D01*
X87669Y225508D01*
X85720Y227457D01*
X83771Y225508D01*
X81822Y225508D01*
X85720Y227457D02*
X85720Y231355D01*
X86223Y546105D02*
X88172Y548054D01*
X86223Y546105D02*
X86223Y542207D01*
X88172Y540258D01*
X95968Y540258D01*
X97917Y542207D01*
X97917Y546105D01*
X95968Y548054D01*
X88172Y551952D02*
X86223Y553901D01*
X86223Y557799D01*
X88172Y559748D01*
X90121Y559748D01*
X92070Y557799D01*
X94019Y559748D01*
X95968Y559748D01*
X97917Y557799D01*
X97917Y553901D01*
X95968Y551952D01*
X94019Y551952D01*
X92070Y553901D01*
X90121Y551952D01*
X88172Y551952D01*
X92070Y553901D02*
X92070Y557799D01*
D11*
X95125Y377950D02*
X95125Y307850D01*
X95125Y377950D02*
X165225Y377950D01*
X165225Y311400D01*
X161675Y307850D02*
X95125Y307850D01*
X161675Y307850D02*
X165225Y311400D01*
X154015Y315468D02*
X154017Y315587D01*
X154023Y315707D01*
X154033Y315826D01*
X154047Y315944D01*
X154065Y316062D01*
X154086Y316180D01*
X154112Y316296D01*
X154141Y316412D01*
X154175Y316527D01*
X154212Y316640D01*
X154253Y316752D01*
X154297Y316863D01*
X154345Y316973D01*
X154397Y317080D01*
X154452Y317186D01*
X154511Y317290D01*
X154574Y317392D01*
X154639Y317491D01*
X154708Y317589D01*
X154780Y317684D01*
X154855Y317777D01*
X154934Y317867D01*
X155015Y317955D01*
X155099Y318039D01*
X155186Y318121D01*
X155275Y318200D01*
X155367Y318276D01*
X155462Y318349D01*
X155559Y318419D01*
X155658Y318485D01*
X155760Y318548D01*
X155863Y318608D01*
X155968Y318664D01*
X156075Y318717D01*
X156184Y318766D01*
X156295Y318812D01*
X156407Y318853D01*
X156520Y318891D01*
X156634Y318926D01*
X156750Y318956D01*
X156866Y318983D01*
X156983Y319005D01*
X157101Y319024D01*
X157220Y319039D01*
X157339Y319050D01*
X157458Y319057D01*
X157577Y319060D01*
X157697Y319059D01*
X157816Y319054D01*
X157935Y319045D01*
X158054Y319032D01*
X158172Y319015D01*
X158289Y318995D01*
X158406Y318970D01*
X158522Y318941D01*
X158637Y318909D01*
X158751Y318873D01*
X158864Y318833D01*
X158975Y318789D01*
X159084Y318742D01*
X159192Y318691D01*
X159299Y318637D01*
X159403Y318579D01*
X159505Y318517D01*
X159606Y318453D01*
X159704Y318384D01*
X159800Y318313D01*
X159893Y318239D01*
X159984Y318161D01*
X160072Y318081D01*
X160157Y317997D01*
X160240Y317911D01*
X160320Y317822D01*
X160397Y317731D01*
X160470Y317637D01*
X160541Y317540D01*
X160608Y317442D01*
X160672Y317341D01*
X160733Y317238D01*
X160790Y317133D01*
X160843Y317027D01*
X160893Y316918D01*
X160940Y316808D01*
X160982Y316697D01*
X161021Y316584D01*
X161057Y316470D01*
X161088Y316354D01*
X161115Y316238D01*
X161139Y316121D01*
X161159Y316003D01*
X161175Y315885D01*
X161187Y315766D01*
X161195Y315647D01*
X161199Y315528D01*
X161199Y315408D01*
X161195Y315289D01*
X161187Y315170D01*
X161175Y315051D01*
X161159Y314933D01*
X161139Y314815D01*
X161115Y314698D01*
X161088Y314582D01*
X161057Y314466D01*
X161021Y314352D01*
X160982Y314239D01*
X160940Y314128D01*
X160893Y314018D01*
X160843Y313909D01*
X160790Y313803D01*
X160733Y313698D01*
X160672Y313595D01*
X160608Y313494D01*
X160541Y313396D01*
X160470Y313299D01*
X160397Y313205D01*
X160320Y313114D01*
X160240Y313025D01*
X160157Y312939D01*
X160072Y312855D01*
X159984Y312775D01*
X159893Y312697D01*
X159800Y312623D01*
X159704Y312552D01*
X159606Y312483D01*
X159505Y312419D01*
X159403Y312357D01*
X159299Y312299D01*
X159192Y312245D01*
X159084Y312194D01*
X158975Y312147D01*
X158864Y312103D01*
X158751Y312063D01*
X158637Y312027D01*
X158522Y311995D01*
X158406Y311966D01*
X158289Y311941D01*
X158172Y311921D01*
X158054Y311904D01*
X157935Y311891D01*
X157816Y311882D01*
X157697Y311877D01*
X157577Y311876D01*
X157458Y311879D01*
X157339Y311886D01*
X157220Y311897D01*
X157101Y311912D01*
X156983Y311931D01*
X156866Y311953D01*
X156750Y311980D01*
X156634Y312010D01*
X156520Y312045D01*
X156407Y312083D01*
X156295Y312124D01*
X156184Y312170D01*
X156075Y312219D01*
X155968Y312272D01*
X155863Y312328D01*
X155760Y312388D01*
X155658Y312451D01*
X155559Y312517D01*
X155462Y312587D01*
X155367Y312660D01*
X155275Y312736D01*
X155186Y312815D01*
X155099Y312897D01*
X155015Y312981D01*
X154934Y313069D01*
X154855Y313159D01*
X154780Y313252D01*
X154708Y313347D01*
X154639Y313445D01*
X154574Y313544D01*
X154511Y313646D01*
X154452Y313750D01*
X154397Y313856D01*
X154345Y313963D01*
X154297Y314073D01*
X154253Y314184D01*
X154212Y314296D01*
X154175Y314409D01*
X154141Y314524D01*
X154112Y314640D01*
X154086Y314756D01*
X154065Y314874D01*
X154047Y314992D01*
X154033Y315110D01*
X154023Y315229D01*
X154017Y315349D01*
X154015Y315468D01*
D12*
X140742Y284353D02*
X138284Y284353D01*
X139513Y284353D02*
X139513Y291725D01*
X138284Y291725D02*
X140742Y291725D01*
X146960Y291725D02*
X148189Y290497D01*
X146960Y291725D02*
X144502Y291725D01*
X143274Y290497D01*
X143274Y285582D01*
X144502Y284353D01*
X146960Y284353D01*
X148189Y285582D01*
X150758Y289268D02*
X153215Y291725D01*
X153215Y284353D01*
X150758Y284353D02*
X155673Y284353D01*
D11*
X31750Y561975D02*
X31750Y574675D01*
X31750Y561975D02*
X25400Y555625D01*
X12700Y555625D01*
X6350Y561975D01*
X25400Y555625D02*
X31750Y549275D01*
X31750Y536575D01*
X25400Y530225D01*
X12700Y530225D01*
X6350Y536575D01*
X6350Y549275D01*
X12700Y555625D01*
X12700Y581025D02*
X25400Y581025D01*
X31750Y574675D01*
X12700Y581025D02*
X6350Y574675D01*
X6350Y561975D01*
X25400Y530225D02*
X31750Y523875D01*
X31750Y511175D01*
X25400Y504825D01*
X12700Y504825D01*
X6350Y511175D01*
X6350Y523875D01*
X12700Y530225D01*
D16*
X47496Y547340D02*
X49403Y549247D01*
X49403Y551153D01*
X47496Y553060D01*
X37963Y553060D01*
X37963Y551153D02*
X37963Y554967D01*
X37963Y559034D02*
X49403Y559034D01*
X37963Y559034D02*
X37963Y564754D01*
X39870Y566661D01*
X43683Y566661D01*
X45590Y564754D01*
X45590Y559034D01*
X41777Y570728D02*
X37963Y574541D01*
X49403Y574541D01*
X49403Y570728D02*
X49403Y578354D01*
D11*
X214370Y287210D02*
X214370Y271590D01*
X242820Y271590D02*
X242820Y287210D01*
D17*
X217100Y274400D03*
D10*
X218189Y296928D02*
X215138Y296928D01*
X216663Y296928D02*
X216663Y306080D01*
X215138Y306080D02*
X218189Y306080D01*
X225951Y306080D02*
X227476Y304555D01*
X225951Y306080D02*
X222900Y306080D01*
X221375Y304555D01*
X221375Y298453D01*
X222900Y296928D01*
X225951Y296928D01*
X227476Y298453D01*
X230730Y306080D02*
X236831Y306080D01*
X230730Y306080D02*
X230730Y301504D01*
X233781Y303029D01*
X235306Y303029D01*
X236831Y301504D01*
X236831Y298453D01*
X235306Y296928D01*
X232255Y296928D01*
X230730Y298453D01*
X213658Y301127D02*
X213658Y289433D01*
X213658Y301127D02*
X219505Y301127D01*
X221454Y299178D01*
X221454Y295280D01*
X219505Y293331D01*
X213658Y293331D01*
X217556Y293331D02*
X221454Y289433D01*
X225352Y289433D02*
X233147Y289433D01*
X225352Y289433D02*
X233147Y297229D01*
X233147Y299178D01*
X231198Y301127D01*
X227300Y301127D01*
X225352Y299178D01*
X240211Y339070D02*
X251905Y339070D01*
X240211Y339070D02*
X240211Y344917D01*
X242160Y346866D01*
X246058Y346866D01*
X248007Y344917D01*
X248007Y339070D01*
X248007Y342968D02*
X251905Y346866D01*
X242160Y350764D02*
X240211Y352713D01*
X240211Y356611D01*
X242160Y358560D01*
X244109Y358560D01*
X246058Y356611D01*
X246058Y354662D01*
X246058Y356611D02*
X248007Y358560D01*
X249956Y358560D01*
X251905Y356611D01*
X251905Y352713D01*
X249956Y350764D01*
X230192Y269377D02*
X232141Y267428D01*
X230192Y269377D02*
X226294Y269377D01*
X224346Y267428D01*
X224346Y259632D01*
X226294Y257683D01*
X230192Y257683D01*
X232141Y259632D01*
X236039Y269377D02*
X243835Y269377D01*
X236039Y269377D02*
X236039Y263530D01*
X239937Y265479D01*
X241886Y265479D01*
X243835Y263530D01*
X243835Y259632D01*
X241886Y257683D01*
X237988Y257683D01*
X236039Y259632D01*
X54341Y383315D02*
X52392Y385264D01*
X48494Y385264D01*
X46546Y383315D01*
X46546Y375519D01*
X48494Y373571D01*
X52392Y373571D01*
X54341Y375519D01*
X58239Y375519D02*
X60188Y373571D01*
X64086Y373571D01*
X66035Y375519D01*
X66035Y383315D01*
X64086Y385264D01*
X60188Y385264D01*
X58239Y383315D01*
X58239Y381366D01*
X60188Y379417D01*
X66035Y379417D01*
D11*
X82550Y244475D02*
X88900Y238125D01*
X101600Y238125D02*
X107950Y244475D01*
X114300Y238125D01*
X127000Y238125D02*
X133350Y244475D01*
X139700Y238125D01*
X152400Y238125D02*
X158750Y244475D01*
X165100Y238125D01*
X177800Y238125D02*
X184150Y244475D01*
X82550Y244475D02*
X82550Y282575D01*
X88900Y288925D01*
X101600Y288925D01*
X107950Y282575D01*
X114300Y288925D01*
X127000Y288925D01*
X133350Y282575D01*
X139700Y288925D01*
X152400Y288925D01*
X158750Y282575D01*
X165100Y288925D01*
X177800Y288925D01*
X184150Y282575D01*
X107950Y282575D02*
X107950Y244475D01*
X133350Y244475D02*
X133350Y282575D01*
X158750Y282575D02*
X158750Y244475D01*
X184150Y244475D02*
X184150Y282575D01*
X177800Y238125D02*
X165100Y238125D01*
X152400Y238125D02*
X139700Y238125D01*
X127000Y238125D02*
X114300Y238125D01*
X101600Y238125D02*
X88900Y238125D01*
X184150Y244475D02*
X190500Y238125D01*
X203200Y238125D02*
X209550Y244475D01*
X184150Y282575D02*
X190500Y288925D01*
X203200Y288925D01*
X209550Y282575D01*
X209550Y244475D01*
X203200Y238125D02*
X190500Y238125D01*
D16*
X85092Y295910D02*
X83185Y297817D01*
X85092Y295910D02*
X86998Y295910D01*
X88905Y297817D01*
X88905Y307350D01*
X86998Y307350D02*
X90812Y307350D01*
X94879Y307350D02*
X94879Y295910D01*
X94879Y307350D02*
X100599Y307350D01*
X102505Y305443D01*
X102505Y301630D01*
X100599Y299723D01*
X94879Y299723D01*
X112293Y295910D02*
X112293Y307350D01*
X106573Y301630D01*
X114199Y301630D01*
D11*
X49276Y266954D02*
X49276Y258826D01*
X49276Y266954D02*
X54864Y266954D01*
X77724Y266954D02*
X77724Y258826D01*
X77724Y266954D02*
X72136Y266954D01*
D10*
X44958Y279908D02*
X44958Y291602D01*
X44958Y279908D02*
X50805Y279908D01*
X52754Y281857D01*
X52754Y289653D01*
X50805Y291602D01*
X44958Y291602D01*
X56652Y289653D02*
X58601Y291602D01*
X62499Y291602D01*
X64448Y289653D01*
X64448Y287704D01*
X62499Y285755D01*
X60550Y285755D01*
X62499Y285755D02*
X64448Y283806D01*
X64448Y281857D01*
X62499Y279908D01*
X58601Y279908D01*
X56652Y281857D01*
D11*
X241300Y523875D02*
X234950Y530225D01*
X241300Y523875D02*
X241300Y511175D01*
X234950Y504825D01*
X222250Y504825D01*
X215900Y511175D01*
X215900Y523875D01*
X222250Y530225D01*
X241300Y561975D02*
X241300Y574675D01*
X241300Y561975D02*
X234950Y555625D01*
X222250Y555625D01*
X215900Y561975D01*
X234950Y555625D02*
X241300Y549275D01*
X241300Y536575D01*
X234950Y530225D01*
X222250Y530225D01*
X215900Y536575D01*
X215900Y549275D01*
X222250Y555625D01*
X222250Y581025D02*
X234950Y581025D01*
X241300Y574675D01*
X222250Y581025D02*
X215900Y574675D01*
X215900Y561975D01*
X241300Y498475D02*
X241300Y485775D01*
X234950Y479425D01*
X222250Y479425D01*
X215900Y485775D01*
X234950Y504825D02*
X241300Y498475D01*
X222250Y504825D02*
X215900Y498475D01*
X215900Y485775D01*
D16*
X257046Y547340D02*
X258953Y549247D01*
X258953Y551153D01*
X257046Y553060D01*
X247513Y553060D01*
X247513Y551153D02*
X247513Y554967D01*
X247513Y559034D02*
X258953Y559034D01*
X247513Y559034D02*
X247513Y564754D01*
X249420Y566661D01*
X253233Y566661D01*
X255140Y564754D01*
X255140Y559034D01*
X249420Y570728D02*
X247513Y572635D01*
X247513Y576448D01*
X249420Y578354D01*
X251327Y578354D01*
X253233Y576448D01*
X253233Y574541D01*
X253233Y576448D02*
X255140Y578354D01*
X257046Y578354D01*
X258953Y576448D01*
X258953Y572635D01*
X257046Y570728D01*
D10*
X253492Y189845D02*
X241798Y189845D01*
X241798Y195692D01*
X243747Y197641D01*
X247645Y197641D01*
X249594Y195692D01*
X249594Y189845D01*
X249594Y193743D02*
X253492Y197641D01*
X253492Y207386D02*
X241798Y207386D01*
X247645Y201539D01*
X247645Y209335D01*
X211504Y221390D02*
X209555Y223339D01*
X205657Y223339D01*
X203708Y221390D01*
X203708Y213594D01*
X205657Y211646D01*
X209555Y211646D01*
X211504Y213594D01*
X215402Y219441D02*
X219300Y223339D01*
X219300Y211646D01*
X215402Y211646D02*
X223198Y211646D01*
X227096Y213594D02*
X227096Y221390D01*
X229045Y223339D01*
X232943Y223339D01*
X234892Y221390D01*
X234892Y213594D01*
X232943Y211646D01*
X229045Y211646D01*
X227096Y213594D01*
X234892Y221390D01*
D11*
X141230Y193548D02*
X141230Y177928D01*
X112780Y177928D02*
X112780Y193548D01*
D17*
X138500Y190738D03*
D10*
X113412Y168217D02*
X113412Y160591D01*
X114938Y159066D01*
X117988Y159066D01*
X119514Y160591D01*
X119514Y168217D01*
X122768Y160591D02*
X124293Y159066D01*
X127344Y159066D01*
X128869Y160591D01*
X128869Y162116D01*
X127344Y163641D01*
X124293Y163641D01*
X122768Y165167D01*
X122768Y166692D01*
X124293Y168217D01*
X127344Y168217D01*
X128869Y166692D01*
X125818Y169743D02*
X125818Y157540D01*
X132123Y165167D02*
X135173Y168217D01*
X135173Y159066D01*
X132123Y159066D02*
X138224Y159066D01*
X108883Y153489D02*
X108883Y141796D01*
X108883Y153489D02*
X114730Y153489D01*
X116679Y151540D01*
X116679Y147642D01*
X114730Y145693D01*
X108883Y145693D01*
X112781Y145693D02*
X116679Y141796D01*
X120577Y153489D02*
X128372Y153489D01*
X120577Y153489D02*
X120577Y147642D01*
X124474Y149591D01*
X126423Y149591D01*
X128372Y147642D01*
X128372Y143744D01*
X126423Y141796D01*
X122525Y141796D01*
X120577Y143744D01*
D18*
X198313Y404613D02*
X230313Y404613D01*
X230313Y379613D02*
X198313Y379613D01*
X198313Y404613D01*
X230313Y404613D02*
X230313Y379613D01*
D10*
X187330Y139202D02*
X189279Y137253D01*
X187330Y139202D02*
X183432Y139202D01*
X181483Y137253D01*
X181483Y129457D01*
X183432Y127508D01*
X187330Y127508D01*
X189279Y129457D01*
X199024Y127508D02*
X199024Y139202D01*
X193177Y133355D01*
X200973Y133355D01*
X42066Y191228D02*
X40117Y193177D01*
X36219Y193177D01*
X34270Y191228D01*
X34270Y183432D01*
X36219Y181483D01*
X40117Y181483D01*
X42066Y183432D01*
X49862Y191228D02*
X53760Y193177D01*
X49862Y191228D02*
X45964Y187330D01*
X45964Y183432D01*
X47913Y181483D01*
X51811Y181483D01*
X53760Y183432D01*
X53760Y185381D01*
X51811Y187330D01*
X45964Y187330D01*
X173546Y186246D02*
X173546Y197939D01*
X173546Y186246D02*
X181341Y186246D01*
X191086Y186246D02*
X191086Y197939D01*
X185239Y192092D01*
X193035Y192092D01*
D16*
X160338Y152400D02*
X155575Y146050D01*
X160338Y146050D01*
X165101Y146050D01*
X160338Y152400D01*
X155575Y152400D01*
X160338Y152400D02*
X165101Y152400D01*
X160338Y146050D02*
X160338Y143612D01*
X160338Y152400D02*
X160338Y154838D01*
D10*
X172266Y156825D02*
X183960Y156825D01*
X183960Y162672D01*
X182011Y164621D01*
X174215Y164621D01*
X172266Y162672D01*
X172266Y156825D01*
X174215Y172417D02*
X172266Y176315D01*
X174215Y172417D02*
X178113Y168519D01*
X182011Y168519D01*
X183960Y170468D01*
X183960Y174366D01*
X182011Y176315D01*
X180062Y176315D01*
X178113Y174366D01*
X178113Y168519D01*
D19*
X100313Y170688D02*
X100313Y150088D01*
X74313Y150088D02*
X74313Y170688D01*
D20*
X87313Y167613D03*
D10*
X106861Y162858D02*
X118555Y162858D01*
X118555Y168705D01*
X116606Y170654D01*
X108810Y170654D01*
X106861Y168705D01*
X106861Y162858D01*
X118555Y174552D02*
X118555Y182347D01*
X118555Y174552D02*
X110759Y182347D01*
X108810Y182347D01*
X106861Y180398D01*
X106861Y176500D01*
X108810Y174552D01*
X159258Y564432D02*
X159258Y572228D01*
X161207Y574177D01*
X165105Y574177D01*
X167054Y572228D01*
X167054Y564432D01*
X165105Y562483D01*
X161207Y562483D01*
X159258Y564432D01*
X163156Y566381D02*
X167054Y562483D01*
X170952Y572228D02*
X172901Y574177D01*
X176799Y574177D01*
X178748Y572228D01*
X178748Y570279D01*
X176799Y568330D01*
X174850Y568330D01*
X176799Y568330D02*
X178748Y566381D01*
X178748Y564432D01*
X176799Y562483D01*
X172901Y562483D01*
X170952Y564432D01*
M02*
