M48
;GenerationSoftware,Autodesk,EAGLE,9.6.1*%
;CreationDate,2020-05-06T11:51:29Z*%
FMAT,2
ICI,OFF
METRIC,TZ,000.000
T4C0.305
T3C1.000
T2C1.016
T1C1.397
%
G90
M71
T1
X10300Y7200
X16600Y66500
X8200Y61000
X16600Y61000
X8200Y66500
X18700Y7200
X12400Y61000
X18700Y1700
X6100Y1700
X12400Y66500
X6100Y7200
X14500Y1700
X10300Y1700
X14500Y7200
T2
X1905Y54292
X1905Y51752
X9525Y25082
X9525Y27622
X12065Y25082
X12065Y27622
X14605Y25082
X14605Y27622
X17145Y27622
X22860Y49212
X19685Y25082
X19685Y27622
X22860Y56832
X22860Y54292
X22860Y51752
X17145Y25082
X1905Y56832
T3
X5239Y23019
X6826Y58896
X8096Y58896
X9366Y58896
X15399Y58896
X18256Y58896
X16828Y58896
X2699Y23019
X3969Y23019
X10636Y23019
X11906Y23019
X13176Y23019
X14446Y23019
X15716Y23019
X1111Y58896
X22384Y58896
X21114Y58896
X23654Y58896
X21114Y23019
X22384Y23019
X10636Y58896
X23654Y23019
X4921Y58896
X9366Y23019
X14129Y58896
X3651Y58896
X2381Y58896
X16986Y23019
T4
X11906Y43974
X6826Y44291
X7461Y36671
X2540Y42863
X8414Y18256
X9049Y18256
X9049Y17621
X8414Y17621
X8255Y50641
X8731Y45720
X13811Y52546
X6826Y54610
X13335Y31432
X3334Y14605
X14764Y52546
X10954Y46196
X17780Y55086
X3334Y49689
X7461Y44926
X9684Y44926
X13335Y50006
X13335Y40640
X15081Y40005
X11430Y33020
X9208Y30004
X10001Y33973
X12541Y46990
X10001Y33020
X14446Y13970
X9366Y48101
X8414Y54451
X14287Y31432
X18415Y43021
X18415Y41275
X20955Y35401
X15081Y34766
X20003Y35719
X15081Y35719
X19844Y41751
X18733Y31274
X22384Y21749
X4128Y32861
X4445Y30004
X13335Y10478
X13335Y11112
X15557Y11112
X15557Y10478
X13335Y11747
X5398Y20955
X14287Y21114
X14287Y21749
X5398Y20320
X3334Y13811
X4286Y14605
X10478Y52705
X19050Y51276
X3175Y36830
X4128Y34449
X19844Y31274
X20955Y31274
X16034Y33020
X16034Y34608
X23971Y46990
X23971Y44926
X21907Y29051
X5080Y30004
X4604Y26352
X8731Y42545
X4604Y27146
X4604Y24765
X4604Y25559
X4128Y33655
X3175Y37624
X2540Y49689
X3334Y48895
X2540Y48895
X2540Y43815
X3492Y43815
X3492Y42863
X18574Y20479
X23971Y38418
X3175Y11747
X22066Y25082
X4286Y13811
X15557Y11747
X18733Y53181
M30